<svg width="332" height="332" viewBox="0 0 332 332" fill="none" xmlns="http://www.w3.org/2000/svg">
<path d="M0.136719 166.198C0.136719 257.465 74.2671 331.493 165.661 331.493C257.054 331.493 331.092 257.465 331.092 166.198C331.092 74.9307 256.962 0.902649 165.568 0.902649C74.1748 0.902649 0.136719 74.9307 0.136719 166.198ZM35.5864 166.198C35.5864 94.4748 93.7459 36.3955 165.568 36.3955C237.391 36.3955 295.55 94.4748 295.55 166.198C295.55 237.921 237.391 296.001 165.568 296.001C93.8382 296.001 35.5864 237.829 35.5864 166.198Z" fill="url(#paint0_linear)"/>
<path d="M55.8035 166.751C55.8035 227.32 105.008 276.364 165.568 276.364C226.22 276.364 275.333 227.227 275.333 166.751C275.333 106.183 226.128 57.1381 165.568 57.1381C105.008 57.0459 55.8035 106.183 55.8035 166.751ZM90.9762 166.751C90.9762 125.635 124.395 92.2622 165.568 92.2622C206.741 92.2622 240.16 125.635 240.16 166.751C240.16 207.868 206.741 241.24 165.568 241.24C124.395 241.24 90.9762 207.868 90.9762 166.751Z" fill="url(#paint1_linear)"/>
<path d="M130.396 166.751C130.396 186.203 146.182 201.967 165.661 201.967C185.139 201.967 200.926 186.203 200.926 166.751C200.926 147.299 185.139 131.535 165.661 131.535C146.182 131.535 130.396 147.299 130.396 166.751Z" fill="url(#paint2_linear)"/>
<defs>
<linearGradient id="paint0_linear" x1="-66.5928" y1="51.0784" x2="406.145" y2="286.018" gradientUnits="userSpaceOnUse">
<stop stop-color="#8F5FEB" stop-opacity="0.2"/>
<stop offset="1" stop-color="#7C57C2" stop-opacity="0"/>
</linearGradient>
<linearGradient id="paint1_linear" x1="11.5405" y1="90.4112" x2="325.082" y2="246.278" gradientUnits="userSpaceOnUse">
<stop stop-color="#8F5FEB" stop-opacity="0.2"/>
<stop offset="1" stop-color="#7C57C2" stop-opacity="0"/>
</linearGradient>
<linearGradient id="paint2_linear" x1="116.175" y1="142.225" x2="216.909" y2="192.301" gradientUnits="userSpaceOnUse">
<stop stop-color="#8F5FEB" stop-opacity="0.2"/>
<stop offset="1" stop-color="#7C57C2" stop-opacity="0"/>
</linearGradient>
</defs>
</svg>
