<svg width="192" height="200" viewBox="0 0 192 200" fill="none" xmlns="http://www.w3.org/2000/svg">
<path d="M76.8664 49.4456C48.3938 59.9994 33.8918 91.661 44.4456 120.134C54.9994 148.606 86.661 163.108 115.134 152.554C143.606 142.001 158.108 110.339 147.554 81.8664C136.925 53.3938 105.339 38.8918 76.8664 49.4456ZM106.326 128.865C90.9129 134.56 73.7534 126.739 68.0589 111.326C62.3644 95.9129 70.1848 78.7534 85.598 73.0589C101.011 67.3644 118.171 75.1848 123.865 90.598C129.56 106.011 121.739 123.171 106.326 128.865Z" fill="url(#paint0_linear)" fill-opacity="0.5"/>
<path d="M94.7031 87.0388C95.1044 86.5156 95.8934 86.5173 96.2925 87.0422L101.514 93.9091C101.64 94.0739 101.813 94.1957 102.01 94.2578L109.605 96.6451C110.276 96.856 110.526 97.6754 110.086 98.2244L104.952 104.633C104.802 104.82 104.724 105.055 104.733 105.294L105.031 113.509C105.057 114.22 104.353 114.73 103.685 114.484L95.846 111.592C95.6227 111.51 95.3773 111.51 95.1539 111.592L87.3147 114.484C86.6472 114.73 85.9435 114.22 85.9693 113.509L86.2673 105.294C86.276 105.055 86.1983 104.82 86.0484 104.633L80.9124 98.2223C80.473 97.6739 80.7214 96.8554 81.3913 96.6436L88.9381 94.2573C89.1335 94.1955 89.3053 94.0751 89.43 93.9125L94.7031 87.0388Z" fill="url(#paint1_linear)" fill-opacity="0.5"/>
<path d="M154.165 43.2287L146.346 19.7744L140.55 27.4577C123.701 17.2133 104.156 13.0346 84.3407 15.8653C37.8363 22.3355 5.35069 65.47 11.8209 111.974C13.5732 124.915 18.1562 136.911 25.4352 147.695L32.1749 143.112C25.7048 133.407 21.5261 122.623 19.9086 110.896C13.9776 68.8398 43.3629 29.884 85.419 23.953C102.942 21.5267 120.466 25.0314 135.563 34.0627L129.497 42.1504L154.165 43.2287Z" fill="url(#paint2_linear)"/>
<path d="M169.8 57.5176L162.656 61.5614C167.644 70.1883 170.879 79.4892 172.227 89.3293C178.158 131.385 148.772 170.341 106.716 176.272C91.619 178.429 76.2524 175.868 62.6381 169.398L67.8951 162.253L43.2275 161.445L51.1805 184.899L57.6506 176.272C73.0173 184.09 90.6755 187.056 107.794 184.629C154.299 178.159 186.784 135.025 180.314 88.5205C178.832 77.3325 175.327 66.9532 169.8 57.5176Z" fill="url(#paint3_linear)"/>
<defs>
<linearGradient id="paint0_linear" x1="96.0401" y1="269.389" x2="96.0401" y2="40.8676" gradientUnits="userSpaceOnUse">
<stop stop-color="#06D48A"/>
<stop offset="1" stop-color="#8CF6D0"/>
</linearGradient>
<linearGradient id="paint1_linear" x1="95.5113" y1="144.893" x2="95.5113" y2="84.6469" gradientUnits="userSpaceOnUse">
<stop stop-color="#06D48A"/>
<stop offset="1" stop-color="#8CF6D0"/>
</linearGradient>
<linearGradient id="paint2_linear" x1="27.3221" y1="124.548" x2="138.975" y2="22.6343" gradientUnits="userSpaceOnUse">
<stop stop-color="#92E8F2" stop-opacity="0.5"/>
<stop offset="1" stop-color="#00CDE8" stop-opacity="0.4"/>
</linearGradient>
<linearGradient id="paint3_linear" x1="58.9503" y1="163.137" x2="166.591" y2="64.9742" gradientUnits="userSpaceOnUse">
<stop stop-color="#92E8F2" stop-opacity="0.5"/>
<stop offset="1" stop-color="#00CDE8" stop-opacity="0.4"/>
</linearGradient>
</defs>
</svg>
