<svg width="192" height="200" viewBox="0 0 192 200" fill="none" xmlns="http://www.w3.org/2000/svg">
<path fill-rule="evenodd" clip-rule="evenodd" d="M95.1783 70C97.782 70.0827 100.551 74.9181 102.246 82.8119H87.9871C89.6816 74.9595 92.4093 70.124 95.013 70H95.1783ZM103.238 77.4803C103.775 79.1334 104.23 80.9106 104.643 82.8117H119.976C115.388 76.1164 108.114 71.4463 99.6834 70.2891C100.923 71.7769 102.163 74.05 103.238 77.4803ZM87.4904 85.1266H102.699C103.402 89.0115 103.815 93.5163 103.857 98.3931H86.3332C86.3746 93.475 86.8292 89.0115 87.4904 85.1266ZM95.0955 129.141C92.4505 129.141 89.5988 124.182 87.9043 116.082H102.287C100.592 124.182 97.7406 129.141 95.0955 129.141ZM103.857 100.749H86.3332C86.3746 105.543 86.7878 109.965 87.4491 113.767H102.741C103.402 109.965 103.815 105.584 103.857 100.749ZM121.588 113.767H105.097C105.759 109.758 106.172 105.336 106.213 100.749H125.183C124.977 105.46 123.695 109.882 121.588 113.767ZM106.17 98.3931C106.129 93.723 105.757 89.2181 105.055 85.1266H121.421C123.611 89.0528 124.934 93.599 125.14 98.3931H106.17ZM69.5956 113.767H85.0939C84.4327 109.758 84.0607 105.336 83.978 100.749H66C66.2066 105.46 67.4465 109.882 69.5956 113.767ZM85.5078 116.082C85.921 118.065 86.417 119.966 86.9543 121.661C88.0288 125.009 89.2273 127.24 90.3846 128.728C82.3254 127.323 75.3822 122.611 71.0013 116.082H85.5078ZM104.683 116.082C104.269 118.065 103.815 119.925 103.236 121.661C102.12 125.133 100.88 127.406 99.6405 128.935C108.196 127.778 115.552 122.942 120.14 116.123H104.683V116.082ZM85.5901 82.8119C86.0034 80.9108 86.458 79.0923 86.9953 77.4805C88.0698 74.1742 89.227 71.9424 90.3842 70.4546C82.4491 71.8598 75.6299 76.4473 71.2077 82.8119H85.5901ZM66 98.3931C66.1653 93.599 67.4878 89.0942 69.7196 85.1266H85.1352C84.474 89.1768 84.0607 93.723 84.0194 98.3931H66Z" fill="url(#paint0_linear)" fill-opacity="0.4"/>
<path fill-rule="evenodd" clip-rule="evenodd" d="M63.577 164.964C72.5051 183.062 84.5478 193 97.5248 193C110.606 193 122.648 183.062 131.576 164.859C134.756 158.452 137.398 151.261 139.467 143.507C147.289 141.429 154.548 138.768 161.027 135.562C179.084 126.728 189 114.568 189 101.577C189 88.5854 179.084 76.5295 161.027 67.5916C154.781 64.5376 147.81 61.9641 140.308 59.9189C137.775 49.3554 134.242 39.7386 129.854 31.6589L135.407 28.4232L121.407 24.3392L118.068 38.5256L124.778 34.6161C128.469 41.4665 131.517 49.4969 133.828 58.3132C122.085 55.6848 109.256 54.2885 96 54.2885C83.9464 54.2885 72.2456 55.4179 61.3932 57.5904C63.3437 50.3549 65.8132 43.6433 68.7678 37.6513C76.6578 21.6457 86.8317 12.8583 97.5248 12.8583V7C84.5478 7 72.5051 16.9381 63.577 35.036C60.0418 42.1606 57.1706 50.2537 55.0137 59.0119C46.2422 61.172 38.1322 64.0487 30.9731 67.5916C12.9158 76.4256 3 88.5854 3 101.577H8.84512C8.84512 90.8719 17.6128 80.6867 33.5825 72.7881C39.5834 69.8192 46.3213 67.3396 53.5937 65.3836C51.4191 76.2445 50.2885 87.9577 50.2885 100C50.2885 113.194 51.676 125.994 54.2882 137.71C44.7754 135.178 36.1821 131.782 29.0497 127.645L32.9496 123.744L18.7632 123.644L18.8675 137.831L24.605 132.091C33.2991 137.367 43.9871 141.518 55.9373 144.371C57.9763 151.835 60.5386 158.766 63.577 164.964ZM62.3424 145.752C64.1249 151.719 66.2735 157.29 68.7678 162.349C76.6578 178.354 86.8317 187.142 97.5248 187.142C108.218 187.142 118.392 178.354 126.282 162.349C128.869 157.102 131.084 151.303 132.904 145.085C121.413 147.569 108.909 148.865 96 148.865C84.2591 148.865 72.8887 147.791 62.3424 145.752ZM60.5773 139.229C71.6331 141.636 83.693 142.927 95.9999 142.927L96 143.045C109.586 143.045 122.723 141.562 134.591 138.736C137.448 126.824 138.947 113.64 138.947 100C138.947 87.6502 137.684 75.6188 135.321 64.5929C123.262 61.6526 109.865 60.1086 96 60.1086C83.3432 60.1086 71.077 61.3952 59.8624 63.8559C57.3933 75.0767 56.1022 87.3417 56.1022 100C56.1022 113.828 57.643 127.187 60.5773 139.229ZM141.698 66.3155C143.765 76.9075 144.865 88.2806 144.865 99.8954C144.865 112.876 143.551 125.473 141.033 137.034C147.305 135.204 153.146 132.973 158.417 130.365C174.387 122.467 183.155 112.281 183.155 101.577C183.155 90.8719 174.387 80.5828 158.417 72.7881C153.332 70.2723 147.718 68.1078 141.698 66.3155Z" fill="url(#paint1_linear)"/>
<defs>
<linearGradient id="paint0_linear" x1="65.9926" y1="99.6248" x2="125.159" y2="99.6248" gradientUnits="userSpaceOnUse">
<stop stop-color="#FF5722" stop-opacity="0.8"/>
<stop offset="1" stop-color="#FFC4AE" stop-opacity="0.7"/>
</linearGradient>
<linearGradient id="paint1_linear" x1="188.962" y1="100.132" x2="37.4647" y2="24.5059" gradientUnits="userSpaceOnUse">
<stop offset="0.0122336" stop-color="#E4C1FF" stop-opacity="0.8"/>
<stop offset="1" stop-color="#E4C1FF" stop-opacity="0.3"/>
</linearGradient>
</defs>
</svg>
