<svg width="144" height="144" viewBox="0 0 144 144" fill="none" xmlns="http://www.w3.org/2000/svg">
<g clip-path="url(#clip0)">
<path d="M131.848 52.7896C131.257 52.8634 130.667 52.9372 130.077 52.9372C122.107 53.011 115.614 46.5912 115.54 38.6956C115.466 34.1206 117.606 30.0621 120.853 27.4057C117.459 23.052 113.548 19.1412 109.047 15.9682C108.678 16.4109 108.309 16.9274 107.866 17.2964C102.332 22.9783 93.1816 23.0521 87.4997 17.5178C84.253 14.3448 82.8509 9.99115 83.2937 5.78509C80.711 5.41614 78.0546 5.26855 75.3981 5.26855C72.5203 5.26855 69.6424 5.56372 66.8384 6.00646C66.9122 6.59678 66.986 7.18711 66.986 7.77743C67.0598 15.7468 60.64 22.2404 52.7444 22.3141C48.1694 22.3879 44.111 20.248 41.4545 17.0012C37.1009 20.3956 33.19 24.3065 30.017 28.8077C30.4597 29.1767 30.9763 29.5456 31.3452 29.9883C37.0271 35.5226 37.1009 44.6726 31.5666 50.3545C28.3936 53.6013 24.04 55.0033 19.8339 54.5606C19.465 57.1432 19.3174 59.7997 19.3174 62.4561C19.3174 65.334 19.6125 68.2118 20.0553 71.0158C20.6456 70.942 21.2359 70.8682 21.8263 70.8682C29.7956 70.7945 36.2892 77.2142 36.363 85.1098C36.4368 89.6848 34.2968 93.7433 31.0501 96.3997C34.4444 100.753 38.3553 104.664 42.8565 107.837C43.2255 107.395 43.5944 106.878 44.0372 106.509C49.5714 100.827 58.7215 100.753 64.4033 106.288C67.6501 109.461 69.0521 113.814 68.6094 118.02C71.192 118.389 73.8485 118.537 76.505 118.537C79.3828 118.537 82.2606 118.242 85.0646 117.799C84.9909 117.209 84.9171 116.618 84.9171 116.028C84.8433 108.059 91.263 101.565 99.1586 101.491C103.734 101.417 107.792 103.557 110.449 106.804C114.802 103.41 118.713 99.4989 121.886 94.9977C121.443 94.6288 120.927 94.2598 120.558 93.8171C114.876 88.2828 114.802 79.1328 120.336 73.4509C123.509 70.2041 127.863 68.8021 132.069 69.2449C132.438 66.6622 132.586 64.0057 132.586 61.3493C132.512 58.3977 132.291 55.5198 131.848 52.7896ZM76.2836 79.4279C66.2481 79.5017 58.0574 71.4586 57.9836 61.4969C57.9098 51.4614 65.9529 43.2706 75.9146 43.1968C85.9501 43.123 94.1409 51.1662 94.2147 61.1279C94.2884 71.0896 86.2453 79.2803 76.2836 79.4279Z" fill="url(#paint0_linear)" fill-opacity="0.2"/>
<path d="M142.673 99.4047V127.242C142.673 130.457 140.074 133.125 136.791 133.125H116.34L102.113 144V133.125H98.0775C94.8628 133.125 92.1953 130.526 92.1953 127.242V99.4047C92.1953 96.19 94.7944 93.5225 98.0775 93.5225H136.791C140.074 93.5225 142.673 96.19 142.673 99.4047Z" fill="url(#paint1_linear)" fill-opacity="0.2"/>
<path fill-rule="evenodd" clip-rule="evenodd" d="M131.652 103.645H103.053V106.394H131.652V103.645ZM131.652 111.963H103.053V114.713H131.652V111.963ZM103.053 120.212H123.884V122.963H103.053V120.212Z" fill="url(#paint2_linear)" fill-opacity="0.2"/>
<path d="M78.1938 48.6765H75.0008H38.2477C36.6852 39.3581 28.8047 32.4883 19.2937 32.4883C8.69575 32.4883 0 41.0585 0 51.7373C0 62.4161 8.62782 71.1224 19.2937 71.1224C28.8047 71.1224 36.7531 63.7765 38.2477 55.1382H58.6963V64.4567H65.1502V55.1382H75.2047V69.49H81.6585V48.6765H78.1938ZM19.2258 64.5247C12.1605 64.5247 6.38594 58.7432 6.38594 51.6693C6.38594 44.5955 12.1605 38.8139 19.2258 38.8139C26.2911 38.8139 32.0656 44.5955 32.0656 51.6693C32.0656 58.8112 26.2911 64.5247 19.2258 64.5247Z" fill="url(#paint3_linear)" fill-opacity="0.4"/>
</g>
<defs>
<linearGradient id="paint0_linear" x1="32.231" y1="98.7785" x2="126.612" y2="18.9298" gradientUnits="userSpaceOnUse">
<stop stop-color="#FF0A71" stop-opacity="0"/>
<stop offset="1" stop-color="#FF0F57"/>
</linearGradient>
<linearGradient id="paint1_linear" x1="97.9502" y1="135.195" x2="140.011" y2="99.6105" gradientUnits="userSpaceOnUse">
<stop stop-color="#FF0A71" stop-opacity="0"/>
<stop offset="1" stop-color="#FF0F57"/>
</linearGradient>
<linearGradient id="paint2_linear" x1="106.313" y1="119.593" x2="122.231" y2="99.6563" gradientUnits="userSpaceOnUse">
<stop stop-color="#FF0F57"/>
<stop offset="1" stop-color="#FF0A71" stop-opacity="0"/>
</linearGradient>
<linearGradient id="paint3_linear" x1="-0.0101903" y1="51.8407" x2="81.6246" y2="51.8407" gradientUnits="userSpaceOnUse">
<stop stop-color="#FF5722" stop-opacity="0.8"/>
<stop offset="1" stop-color="#FFC4AE" stop-opacity="0.7"/>
</linearGradient>
<clipPath id="clip0">
<rect width="144" height="144" fill="white"/>
</clipPath>
</defs>
</svg>
