<svg width="536" height="440" viewBox="0 0 536 440" fill="none" xmlns="http://www.w3.org/2000/svg">
<g clip-path="url(#clip0)">
<path d="M0.988514 172.484L0 172.335L1.30803 163.9L7.86817 169.513L7.20916 170.271L2.02695 165.825L0.988514 172.484Z" fill="#81D4FA"/>
<path d="M2.07074 164.701L1.13086 165.037L5.14886 176.223L6.08874 175.887L2.07074 164.701Z" fill="#81D4FA"/>
<path d="M51.8323 154.28L50.8438 154.121L52.1518 145.687L58.7119 151.299L58.0529 152.057L52.8707 147.611L51.8323 154.28Z" fill="#81D4FA"/>
<path d="M53.0248 146.469L52.085 146.806L56.1049 157.991L57.0448 157.654L53.0248 146.469Z" fill="#81D4FA"/>
<path d="M102.676 136.065L101.688 135.916L103.006 127.481L109.556 133.084L108.897 133.842L103.714 129.406L102.676 136.065Z" fill="#81D4FA"/>
<path d="M103.866 128.26L102.926 128.597L106.946 139.782L107.886 139.445L103.866 128.26Z" fill="#81D4FA"/>
<path d="M153.519 117.851L152.53 117.702L153.848 109.268L160.398 114.88L159.749 115.638L154.557 111.192L153.519 117.851Z" fill="#81D4FA"/>
<path d="M154.716 110.04L153.776 110.377L157.796 121.562L158.736 121.226L154.716 110.04Z" fill="#81D4FA"/>
<path d="M204.363 99.6466L203.374 99.487L204.692 91.0527L211.242 96.6656L210.593 97.4233L205.401 92.9769L204.363 99.6466Z" fill="#81D4FA"/>
<path d="M205.473 91.8783L204.533 92.2148L208.551 103.401L209.491 103.064L205.473 91.8783Z" fill="#81D4FA"/>
<path d="M255.206 81.4315L254.218 81.282L255.536 72.8477L262.086 78.4506L261.437 79.2083L256.245 74.7718L255.206 81.4315Z" fill="#81D4FA"/>
<path d="M256.32 73.6664L255.38 74.0029L259.398 85.1891L260.338 84.8526L256.32 73.6664Z" fill="#81D4FA"/>
<path d="M306.05 63.2176L305.062 63.0681L306.38 54.6338L312.93 60.2467L312.281 61.0044L307.088 56.5579L306.05 63.2176Z" fill="#81D4FA"/>
<path d="M307.165 55.4545L306.226 55.791L310.244 66.9772L311.183 66.6406L307.165 55.4545Z" fill="#81D4FA"/>
<path d="M356.904 45.0128L355.915 44.8533L357.223 36.4189L363.773 42.0319L363.124 42.7895L357.932 38.3431L356.904 45.0128Z" fill="#81D4FA"/>
<path d="M358.016 37.2513L357.076 37.5879L361.094 48.774L362.034 48.4375L358.016 37.2513Z" fill="#81D4FA"/>
<path d="M407.747 26.7987L406.759 26.6492L408.067 18.2148L414.617 23.8178L413.968 24.5755L408.776 20.139L407.747 26.7987Z" fill="#81D4FA"/>
<path d="M408.852 19.0394L407.912 19.376L411.93 30.5622L412.87 30.2256L408.852 19.0394Z" fill="#81D4FA"/>
<path d="M458.59 8.58386L457.602 8.43431L458.91 0L465.46 5.61291L464.811 6.36063L459.619 1.92414L458.59 8.58386Z" fill="#81D4FA"/>
<path d="M459.699 0.827499L458.759 1.16406L462.777 12.3502L463.717 12.0136L459.699 0.827499Z" fill="#81D4FA"/>
<path d="M38.1826 194.437L37.2041 194.288L38.5121 185.854L45.0623 191.456L44.4133 192.214L39.2211 187.768L38.1826 194.437Z" fill="#81D4FA"/>
<path d="M39.3929 186.633L38.4531 186.97L42.4731 198.155L43.4129 197.818L39.3929 186.633Z" fill="#81D4FA"/>
<path d="M89.0364 176.224L88.0479 176.074L89.3559 167.64L95.906 173.243L95.257 174L90.0648 169.564L89.0364 176.224Z" fill="#81D4FA"/>
<path d="M90.2328 168.414L89.293 168.751L93.3129 179.936L94.2527 179.6L90.2328 168.414Z" fill="#81D4FA"/>
<path d="M139.88 158.019L138.892 157.859L140.2 149.425L146.75 155.038L146.101 155.795L140.909 151.349L139.88 158.019Z" fill="#81D4FA"/>
<path d="M141.074 150.195L140.134 150.531L144.154 161.717L145.094 161.38L141.074 150.195Z" fill="#81D4FA"/>
<path d="M190.723 139.805L189.734 139.645L191.042 131.221L197.593 136.824L196.944 137.581L191.751 133.135L190.723 139.805Z" fill="#81D4FA"/>
<path d="M191.824 132.036L190.884 132.373L194.902 143.559L195.842 143.223L191.824 132.036Z" fill="#81D4FA"/>
<path d="M241.567 121.59L240.578 121.44L241.886 113.006L248.436 118.609L247.787 119.366L242.605 114.93L241.567 121.59Z" fill="#81D4FA"/>
<path d="M242.67 113.825L241.73 114.161L245.748 125.347L246.688 125.011L242.67 113.825Z" fill="#81D4FA"/>
<path d="M292.41 103.375L291.422 103.225L292.73 94.791L299.28 100.404L298.631 101.162L293.449 96.7152L292.41 103.375Z" fill="#81D4FA"/>
<path d="M293.507 95.6117L292.567 95.9482L296.585 107.134L297.525 106.798L293.507 95.6117Z" fill="#81D4FA"/>
<path d="M343.254 85.171L342.266 85.0115L343.584 76.5771L350.124 82.1901L349.475 82.9477L344.293 78.5013L343.254 85.171Z" fill="#81D4FA"/>
<path d="M344.357 77.4095L343.417 77.7461L347.435 88.9323L348.375 88.5957L344.357 77.4095Z" fill="#81D4FA"/>
<path d="M394.098 66.9559L393.109 66.8064L394.427 58.3721L400.978 63.975L400.329 64.7327L395.136 60.2962L394.098 66.9559Z" fill="#81D4FA"/>
<path d="M395.204 59.1976L394.264 59.5342L398.282 70.7203L399.222 70.3838L395.204 59.1976Z" fill="#81D4FA"/>
<path d="M444.941 48.7411L443.952 48.5915L445.27 40.1572L451.82 45.7701L451.171 46.5278L445.979 42.0814L444.941 48.7411Z" fill="#81D4FA"/>
<path d="M446.05 40.9955L445.11 41.332L449.128 52.5182L450.068 52.1816L446.05 40.9955Z" fill="#81D4FA"/>
<path d="M495.784 30.5372L494.796 30.3777L496.114 21.9434L502.664 27.5563L502.015 28.314L496.823 23.8675L495.784 30.5372Z" fill="#81D4FA"/>
<path d="M496.91 22.7894L495.97 23.126L499.988 34.3122L500.928 33.9756L496.91 22.7894Z" fill="#81D4FA"/>
<path d="M22.9153 235.882L21.9268 235.722L23.2348 227.288L29.7849 232.901L29.1359 233.659L23.9437 229.212L22.9153 235.882Z" fill="#81D4FA"/>
<path d="M23.9955 228.101L23.0557 228.438L27.0737 239.624L28.0136 239.287L23.9955 228.101Z" fill="#81D4FA"/>
<path d="M73.759 217.667L72.7705 217.517L74.0785 209.083L80.6287 214.686L79.9797 215.444L74.7975 211.007L73.759 217.667Z" fill="#81D4FA"/>
<path d="M74.8422 209.889L73.9023 210.226L77.9203 221.412L78.8602 221.075L74.8422 209.889Z" fill="#81D4FA"/>
<path d="M124.603 199.453L123.614 199.303L124.922 190.869L131.472 196.482L130.823 197.24L125.641 192.793L124.603 199.453Z" fill="#81D4FA"/>
<path d="M125.689 191.687L124.749 192.023L128.767 203.21L129.707 202.873L125.689 191.687Z" fill="#81D4FA"/>
<path d="M175.447 181.248L174.458 181.089L175.766 172.654L182.316 178.267L181.667 179.025L176.485 174.578L175.447 181.248Z" fill="#81D4FA"/>
<path d="M176.64 173.434L175.7 173.771L179.72 184.956L180.66 184.619L176.64 173.434Z" fill="#81D4FA"/>
<path d="M226.29 163.033L225.302 162.884L226.62 154.449L233.17 160.052L232.521 160.81L227.329 156.363L226.29 163.033Z" fill="#81D4FA"/>
<path d="M227.481 155.214L226.541 155.551L230.561 166.736L231.501 166.399L227.481 155.214Z" fill="#81D4FA"/>
<path d="M277.133 144.819L276.145 144.67L277.463 136.235L284.013 141.848L283.364 142.596L278.171 138.159L277.133 144.819Z" fill="#81D4FA"/>
<path d="M278.331 136.995L277.392 137.332L281.412 148.517L282.351 148.181L278.331 136.995Z" fill="#81D4FA"/>
<path d="M327.977 126.614L326.988 126.455L328.306 118.021L334.856 123.633L334.207 124.391L329.015 119.945L327.977 126.614Z" fill="#81D4FA"/>
<path d="M329.081 118.858L328.142 119.194L332.16 130.381L333.1 130.044L329.081 118.858Z" fill="#81D4FA"/>
<path d="M378.821 108.4L377.832 108.251L379.15 99.8164L385.7 105.419L385.051 106.177L379.859 101.731L378.821 108.4Z" fill="#81D4FA"/>
<path d="M379.938 100.643L378.998 100.979L383.016 112.166L383.956 111.829L379.938 100.643Z" fill="#81D4FA"/>
<path d="M429.664 90.1854L428.676 90.0359L429.994 81.6016L436.544 87.2045L435.895 87.9622L430.703 83.5257L429.664 90.1854Z" fill="#81D4FA"/>
<path d="M430.784 82.431L429.844 82.7676L433.862 93.9537L434.802 93.6171L430.784 82.431Z" fill="#81D4FA"/>
<path d="M480.508 71.9706L479.529 71.821L480.837 63.3867L487.387 68.9996L486.738 69.7573L481.546 65.3109L480.508 71.9706Z" fill="#81D4FA"/>
<path d="M481.621 64.2191L480.681 64.5557L484.699 75.7419L485.639 75.4053L481.621 64.2191Z" fill="#81D4FA"/>
<path d="M60.1096 257.825L59.1211 257.676L60.4391 249.241L66.9893 254.844L66.3402 255.602L61.148 251.165L60.1096 257.825Z" fill="#81D4FA"/>
<path d="M61.2036 250.047L60.2637 250.384L64.2817 261.57L65.2216 261.233L61.2036 250.047Z" fill="#81D4FA"/>
<path d="M110.953 239.61L109.965 239.461L111.283 231.026L117.833 236.639L117.184 237.397L111.992 232.951L110.953 239.61Z" fill="#81D4FA"/>
<path d="M112.049 231.841L111.109 232.178L115.127 243.364L116.067 243.027L112.049 231.841Z" fill="#81D4FA"/>
<path d="M161.797 221.405L160.818 221.246L162.126 212.812L168.677 218.424L168.028 219.182L162.835 214.736L161.797 221.405Z" fill="#81D4FA"/>
<path d="M163.008 213.588L162.068 213.925L166.088 225.11L167.028 224.774L163.008 213.588Z" fill="#81D4FA"/>
<path d="M212.641 203.191L211.662 203.042L212.97 194.607L219.52 200.21L218.871 200.968L213.679 196.532L212.641 203.191Z" fill="#81D4FA"/>
<path d="M213.848 195.368L212.908 195.705L216.928 206.891L217.868 206.554L213.848 195.368Z" fill="#81D4FA"/>
<path d="M263.483 184.976L262.505 184.827L263.813 176.393L270.363 182.005L269.714 182.753L264.522 178.317L263.483 184.976Z" fill="#81D4FA"/>
<path d="M264.689 177.159L263.749 177.496L267.769 188.682L268.709 188.345L264.689 177.159Z" fill="#81D4FA"/>
<path d="M314.337 166.773L313.349 166.613L314.657 158.179L321.207 163.792L320.558 164.549L315.376 160.103L314.337 166.773Z" fill="#81D4FA"/>
<path d="M315.442 159.012L314.502 159.349L318.52 170.535L319.46 170.198L315.442 159.012Z" fill="#81D4FA"/>
<path d="M365.181 148.557L364.192 148.408L365.5 139.974L372.051 145.577L371.402 146.334L366.219 141.888L365.181 148.557Z" fill="#81D4FA"/>
<path d="M366.289 140.8L365.349 141.137L369.367 152.323L370.307 151.986L366.289 140.8Z" fill="#81D4FA"/>
<path d="M416.025 130.343L415.036 130.193L416.344 121.759L422.894 127.372L422.245 128.119L417.063 123.683L416.025 130.343Z" fill="#81D4FA"/>
<path d="M417.125 122.588L416.186 122.925L420.204 134.111L421.143 133.774L417.125 122.588Z" fill="#81D4FA"/>
<path d="M466.868 112.139L465.88 111.979L467.188 103.545L473.738 109.158L473.089 109.916L467.907 105.469L466.868 112.139Z" fill="#81D4FA"/>
<path d="M467.975 104.386L467.035 104.723L471.053 115.909L471.993 115.572L467.975 104.386Z" fill="#81D4FA"/>
<path d="M517.711 93.9237L516.723 93.7742L518.041 85.3398L524.591 90.9428L523.942 91.7005L518.75 87.264L517.711 93.9237Z" fill="#81D4FA"/>
<path d="M518.822 86.1742L517.882 86.5107L521.9 97.6969L522.84 97.3603L518.822 86.1742Z" fill="#81D4FA"/>
<path d="M45.262 296.287L44.2734 296.128L45.5915 287.693L52.1416 293.306L51.4926 294.064L46.3004 289.617L45.262 296.287Z" fill="#81D4FA"/>
<path d="M46.353 288.515L45.4131 288.852L49.4311 300.038L50.371 299.701L46.353 288.515Z" fill="#81D4FA"/>
<path d="M96.1055 278.073L95.127 277.924L96.435 269.489L102.985 275.092L102.336 275.85L97.1439 271.403L96.1055 278.073Z" fill="#81D4FA"/>
<path d="M97.2084 270.299L96.2686 270.636L100.287 281.822L101.226 281.485L97.2084 270.299Z" fill="#81D4FA"/>
<path d="M146.949 259.858L145.971 259.709L147.279 251.274L153.829 256.887L153.18 257.635L147.988 253.199L146.949 259.858Z" fill="#81D4FA"/>
<path d="M148.045 252.087L147.105 252.424L151.123 263.61L152.063 263.273L148.045 252.087Z" fill="#81D4FA"/>
<path d="M197.793 241.644L196.814 241.495L198.122 233.061L204.673 238.673L204.024 239.431L198.831 234.985L197.793 241.644Z" fill="#81D4FA"/>
<path d="M198.892 233.875L197.952 234.212L201.97 245.398L202.91 245.062L198.892 233.875Z" fill="#81D4FA"/>
<path d="M248.646 223.439L247.657 223.29L248.965 214.855L255.515 220.458L254.866 221.216L249.674 216.77L248.646 223.439Z" fill="#81D4FA"/>
<path d="M249.732 215.683L248.792 216.02L252.81 227.206L253.75 226.869L249.732 215.683Z" fill="#81D4FA"/>
<path d="M299.489 205.225L298.501 205.076L299.809 196.642L306.359 202.254L305.71 203.002L300.528 198.566L299.489 205.225Z" fill="#81D4FA"/>
<path d="M300.579 197.471L299.639 197.808L303.657 208.994L304.597 208.657L300.579 197.471Z" fill="#81D4FA"/>
<path d="M350.333 187.021L349.345 186.861L350.653 178.427L357.203 184.04L356.554 184.797L351.372 180.351L350.333 187.021Z" fill="#81D4FA"/>
<path d="M351.424 179.259L350.484 179.596L354.502 190.782L355.442 190.445L351.424 179.259Z" fill="#81D4FA"/>
<path d="M401.177 168.806L400.188 168.646L401.497 160.222L408.057 165.825L407.398 166.582L402.215 162.136L401.177 168.806Z" fill="#81D4FA"/>
<path d="M402.37 160.979L401.431 161.315L405.451 172.501L406.39 172.164L402.37 160.979Z" fill="#81D4FA"/>
<path d="M452.021 150.592L451.032 150.442L452.34 142.008L458.89 147.611L458.241 148.368L453.059 143.932L452.021 150.592Z" fill="#81D4FA"/>
<path d="M453.211 142.76L452.271 143.097L456.291 154.282L457.231 153.945L453.211 142.76Z" fill="#81D4FA"/>
<path d="M502.864 132.377L501.875 132.227L503.183 123.793L509.743 129.406L509.094 130.164L503.902 125.717L502.864 132.377Z" fill="#81D4FA"/>
<path d="M504.051 124.54L503.111 124.877L507.131 136.062L508.071 135.726L504.051 124.54Z" fill="#81D4FA"/>
<path d="M82.4661 316.237L81.4775 316.088L82.7856 307.653L89.3357 313.256L88.6867 314.014L83.5045 309.568L82.4661 316.237Z" fill="#81D4FA"/>
<path d="M83.5541 308.461L82.6143 308.798L86.6323 319.984L87.5721 319.647L83.5541 308.461Z" fill="#81D4FA"/>
<path d="M133.31 298.022L132.321 297.873L133.629 289.438L140.189 295.051L139.53 295.799L134.348 291.363L133.31 298.022Z" fill="#81D4FA"/>
<path d="M134.401 290.249L133.461 290.586L137.479 301.772L138.419 301.436L134.401 290.249Z" fill="#81D4FA"/>
<path d="M184.154 279.817L183.165 279.658L184.473 271.224L191.023 276.837L190.374 277.594L185.192 273.148L184.154 279.817Z" fill="#81D4FA"/>
<path d="M185.241 272.056L184.301 272.393L188.319 283.579L189.259 283.242L185.241 272.056Z" fill="#81D4FA"/>
<path d="M234.996 261.603L234.008 261.454L235.326 253.02L241.876 258.622L241.227 259.38L236.035 254.944L234.996 261.603Z" fill="#81D4FA"/>
<path d="M236.087 253.844L235.147 254.181L239.165 265.367L240.105 265.03L236.087 253.844Z" fill="#81D4FA"/>
<path d="M285.84 243.389L284.852 243.239L286.17 234.805L292.72 240.418L292.071 241.175L286.879 236.729L285.84 243.389Z" fill="#81D4FA"/>
<path d="M286.934 235.632L285.994 235.969L290.012 247.155L290.952 246.818L286.934 235.632Z" fill="#81D4FA"/>
<path d="M336.684 225.185L335.695 225.025L337.013 216.591L343.563 222.204L342.914 222.961L337.722 218.515L336.684 225.185Z" fill="#81D4FA"/>
<path d="M337.873 217.36L336.934 217.696L340.954 228.882L341.893 228.545L337.873 217.36Z" fill="#81D4FA"/>
<path d="M387.527 206.97L386.549 206.82L387.857 198.386L394.407 203.989L393.758 204.746L388.566 200.3L387.527 206.97Z" fill="#81D4FA"/>
<path d="M388.723 199.137L387.783 199.474L391.803 210.659L392.743 210.322L388.723 199.137Z" fill="#81D4FA"/>
<path d="M438.371 188.755L437.393 188.605L438.701 180.171L445.251 185.774L444.602 186.532L439.41 182.095L438.371 188.755Z" fill="#81D4FA"/>
<path d="M439.574 180.918L438.634 181.255L442.654 192.44L443.594 192.104L439.574 180.918Z" fill="#81D4FA"/>
<path d="M489.215 170.541L488.236 170.391L489.544 161.957L496.095 167.57L495.445 168.328L490.253 163.881L489.215 170.541Z" fill="#81D4FA"/>
<path d="M490.327 162.8L489.387 163.137L493.405 174.323L494.345 173.986L490.327 162.8Z" fill="#81D4FA"/>
<path d="M68.1877 356.684L67.1992 356.534L68.5072 348.09L75.0674 353.703L74.4184 354.46L69.2262 350.014L68.1877 356.684Z" fill="#81D4FA"/>
<path d="M69.2612 348.913L68.3213 349.25L72.3393 360.436L73.2792 360.1L69.2612 348.913Z" fill="#81D4FA"/>
<path d="M119.031 338.47L118.043 338.32L119.361 329.886L125.911 335.489L125.262 336.246L120.07 331.81L119.031 338.47Z" fill="#81D4FA"/>
<path d="M120.118 330.702L119.178 331.038L123.196 342.224L124.136 341.888L120.118 330.702Z" fill="#81D4FA"/>
<path d="M169.874 320.255L168.886 320.105L170.204 311.671L176.754 317.284L176.105 318.042L170.913 313.595L169.874 320.255Z" fill="#81D4FA"/>
<path d="M170.964 312.49L170.024 312.826L174.042 324.012L174.982 323.676L170.964 312.49Z" fill="#81D4FA"/>
<path d="M220.718 302.05L219.729 301.89L221.048 293.456L227.598 299.069L226.949 299.827L221.756 295.38L220.718 302.05Z" fill="#81D4FA"/>
<path d="M221.814 294.284L220.874 294.62L224.892 305.806L225.832 305.47L221.814 294.284Z" fill="#81D4FA"/>
<path d="M271.562 283.836L270.583 283.686L271.891 275.252L278.441 280.855L277.792 281.613L272.6 277.176L271.562 283.836Z" fill="#81D4FA"/>
<path d="M272.661 276.072L271.721 276.408L275.739 287.594L276.679 287.258L272.661 276.072Z" fill="#81D4FA"/>
<path d="M322.405 265.621L321.427 265.471L322.735 257.037L329.285 262.65L328.636 263.408L323.444 258.961L322.405 265.621Z" fill="#81D4FA"/>
<path d="M323.507 257.869L322.567 258.206L326.585 269.392L327.525 269.056L323.507 257.869Z" fill="#81D4FA"/>
<path d="M373.249 247.416L372.271 247.257L373.579 238.822L380.129 244.435L379.48 245.193L374.287 240.746L373.249 247.416Z" fill="#81D4FA"/>
<path d="M374.347 239.667L373.407 240.004L377.425 251.19L378.365 250.853L374.347 239.667Z" fill="#81D4FA"/>
<path d="M424.103 229.202L423.114 229.052L424.422 220.618L430.972 226.221L430.323 226.979L425.131 222.542L424.103 229.202Z" fill="#81D4FA"/>
<path d="M425.193 221.455L424.253 221.792L428.271 232.978L429.211 232.642L425.193 221.455Z" fill="#81D4FA"/>
<path d="M474.946 210.987L473.957 210.838L475.265 202.403L481.815 208.016L481.166 208.774L475.974 204.327L474.946 210.987Z" fill="#81D4FA"/>
<path d="M476.039 203.244L475.1 203.58L479.118 214.766L480.058 214.43L476.039 203.244Z" fill="#81D4FA"/>
<path d="M525.789 192.783L524.801 192.624L526.109 184.189L532.659 189.802L532.01 190.56L526.828 186.114L525.789 192.783Z" fill="#81D4FA"/>
<path d="M526.982 184.942L526.042 185.278L530.062 196.464L531.002 196.127L526.982 184.942Z" fill="#81D4FA"/>
<path d="M105.392 376.633L104.403 376.483L105.711 368.049L112.262 373.662L111.612 374.409L106.42 369.973L105.392 376.633Z" fill="#81D4FA"/>
<path d="M106.463 368.869L105.523 369.206L109.541 380.392L110.481 380.056L106.463 368.869Z" fill="#81D4FA"/>
<path d="M156.236 358.419L155.247 358.269L156.555 349.835L163.105 355.448L162.456 356.206L157.264 351.759L156.236 358.419Z" fill="#81D4FA"/>
<path d="M157.32 350.648L156.38 350.984L160.398 362.17L161.338 361.834L157.32 350.648Z" fill="#81D4FA"/>
<path d="M207.078 340.214L206.09 340.064L207.398 331.62L213.948 337.233L213.299 337.991L208.117 333.544L207.078 340.214Z" fill="#81D4FA"/>
<path d="M208.169 332.454L207.229 332.791L211.248 343.977L212.187 343.641L208.169 332.454Z" fill="#81D4FA"/>
<path d="M257.922 321.999L256.934 321.849L258.242 313.415L264.792 319.028L264.143 319.776L258.961 315.339L257.922 321.999Z" fill="#81D4FA"/>
<path d="M259.006 314.243L258.066 314.579L262.084 325.765L263.024 325.429L259.006 314.243Z" fill="#81D4FA"/>
<path d="M308.766 303.785L307.777 303.635L309.085 295.201L315.646 300.814L314.986 301.572L309.804 297.125L308.766 303.785Z" fill="#81D4FA"/>
<path d="M309.853 296.031L308.913 296.367L312.931 307.553L313.871 307.217L309.853 296.031Z" fill="#81D4FA"/>
<path d="M359.61 285.58L358.621 285.431L359.939 276.986L366.489 282.599L365.83 283.357L360.648 278.91L359.61 285.58Z" fill="#81D4FA"/>
<path d="M360.703 277.828L359.763 278.165L363.781 289.351L364.721 289.015L360.703 277.828Z" fill="#81D4FA"/>
<path d="M410.453 267.366L409.465 267.217L410.783 258.782L417.333 264.385L416.684 265.143L411.492 260.706L410.453 267.366Z" fill="#81D4FA"/>
<path d="M411.539 259.617L410.6 259.953L414.618 271.139L415.557 270.803L411.539 259.617Z" fill="#81D4FA"/>
<path d="M461.296 249.151L460.308 249.002L461.626 240.567L468.176 246.18L467.527 246.938L462.335 242.492L461.296 249.151Z" fill="#81D4FA"/>
<path d="M462.385 241.405L461.445 241.741L465.463 252.927L466.403 252.591L462.385 241.405Z" fill="#81D4FA"/>
<path d="M512.14 230.946L511.151 230.787L512.469 222.353L519.02 227.965L518.371 228.723L513.178 224.277L512.14 230.946Z" fill="#81D4FA"/>
<path d="M513.344 223.11L512.404 223.446L516.424 234.632L517.364 234.295L513.344 223.11Z" fill="#81D4FA"/>
<path d="M91.3225 415.315L90.334 415.166L91.652 406.731L98.2022 412.344L97.5432 413.102L92.3609 408.656L91.3225 415.315Z" fill="#81D4FA"/>
<path d="M92.3901 407.55L91.4502 407.887L95.4682 419.073L96.4081 418.736L92.3901 407.55Z" fill="#81D4FA"/>
<path d="M142.166 397.11L141.178 396.951L142.496 388.517L149.046 394.129L148.397 394.887L143.205 390.441L142.166 397.11Z" fill="#81D4FA"/>
<path d="M143.24 389.348L142.3 389.685L146.318 400.871L147.258 400.534L143.24 389.348Z" fill="#81D4FA"/>
<path d="M193.01 378.896L192.021 378.747L193.34 370.312L199.89 375.915L199.241 376.673L194.048 372.237L193.01 378.896Z" fill="#81D4FA"/>
<path d="M194.096 371.132L193.156 371.469L197.174 382.655L198.114 382.318L194.096 371.132Z" fill="#81D4FA"/>
<path d="M243.854 360.682L242.865 360.532L244.183 352.098L250.733 357.711L250.084 358.458L244.892 354.022L243.854 360.682Z" fill="#81D4FA"/>
<path d="M244.943 352.92L244.003 353.257L248.021 364.443L248.961 364.106L244.943 352.92Z" fill="#81D4FA"/>
<path d="M294.697 342.467L293.708 342.317L295.026 333.883L301.576 339.496L300.927 340.253L295.735 335.807L294.697 342.467Z" fill="#81D4FA"/>
<path d="M295.792 334.718L294.853 335.055L298.871 346.241L299.81 345.904L295.792 334.718Z" fill="#81D4FA"/>
<path d="M345.54 324.263L344.562 324.113L345.87 315.679L352.42 321.282L351.771 322.039L346.579 317.593L345.54 324.263Z" fill="#81D4FA"/>
<path d="M346.639 316.506L345.699 316.843L349.717 328.029L350.657 327.692L346.639 316.506Z" fill="#81D4FA"/>
<path d="M396.394 306.048L395.405 305.898L396.713 297.464L403.263 303.077L402.614 303.824L397.422 299.388L396.394 306.048Z" fill="#81D4FA"/>
<path d="M397.486 298.294L396.546 298.631L400.564 309.817L401.504 309.48L397.486 298.294Z" fill="#81D4FA"/>
<path d="M447.238 287.834L446.249 287.684L447.557 279.25L454.107 284.863L453.458 285.621L448.266 281.174L447.238 287.834Z" fill="#81D4FA"/>
<path d="M448.331 280.082L447.392 280.419L451.41 291.605L452.349 291.269L448.331 280.082Z" fill="#81D4FA"/>
<path d="M498.081 269.629L497.093 269.479L498.401 261.035L504.951 266.648L504.302 267.406L499.12 262.959L498.081 269.629Z" fill="#81D4FA"/>
<path d="M499.171 261.89L498.231 262.227L502.249 273.413L503.189 273.076L499.171 261.89Z" fill="#81D4FA"/>
<path d="M127.529 436.272L126.54 436.112L127.848 427.678L134.398 433.291L133.749 434.048L128.557 429.602L127.529 436.272Z" fill="#81D4FA"/>
<path d="M128.603 428.501L127.663 428.838L131.681 440.024L132.621 439.688L128.603 428.501Z" fill="#81D4FA"/>
<path d="M178.371 418.057L177.383 417.907L178.691 409.473L185.241 415.076L184.592 415.833L179.41 411.397L178.371 418.057Z" fill="#81D4FA"/>
<path d="M179.45 410.3L178.51 410.637L182.528 421.823L183.468 421.486L179.45 410.3Z" fill="#81D4FA"/>
<path d="M229.215 399.843L228.227 399.693L229.535 391.259L236.085 396.872L235.436 397.619L230.254 393.183L229.215 399.843Z" fill="#81D4FA"/>
<path d="M230.296 392.088L229.356 392.425L233.374 403.611L234.314 403.274L230.296 392.088Z" fill="#81D4FA"/>
<path d="M280.059 381.638L279.07 381.478L280.378 373.044L286.928 378.657L286.279 379.415L281.097 374.968L280.059 381.638Z" fill="#81D4FA"/>
<path d="M281.136 373.885L280.196 374.222L284.214 385.408L285.154 385.071L281.136 373.885Z" fill="#81D4FA"/>
<path d="M330.903 363.424L329.914 363.274L331.232 354.84L337.782 360.443L337.123 361.2L331.941 356.764L330.903 363.424Z" fill="#81D4FA"/>
<path d="M331.983 355.673L331.043 356.01L335.061 367.196L336.001 366.859L331.983 355.673Z" fill="#81D4FA"/>
<path d="M381.746 345.209L380.758 345.059L382.076 336.625L388.626 342.238L387.977 342.996L382.785 338.549L381.746 345.209Z" fill="#81D4FA"/>
<path d="M382.839 337.461L381.899 337.798L385.917 348.984L386.857 348.647L382.839 337.461Z" fill="#81D4FA"/>
<path d="M432.59 327.004L431.602 326.844L432.92 318.41L439.47 324.023L438.821 324.781L433.629 320.334L432.59 327.004Z" fill="#81D4FA"/>
<path d="M433.689 319.259L432.749 319.596L436.767 330.782L437.707 330.445L433.689 319.259Z" fill="#81D4FA"/>
<path d="M483.433 308.79L482.444 308.64L483.762 300.206L490.312 305.809L489.663 306.567L484.471 302.12L483.433 308.79Z" fill="#81D4FA"/>
<path d="M484.526 301.046L483.586 301.383L487.604 312.569L488.544 312.232L484.526 301.046Z" fill="#81D4FA"/>
<path d="M534.277 290.575L533.288 290.426L534.606 281.991L541.156 287.604L540.507 288.362L535.315 283.915L534.277 290.575Z" fill="#81D4FA"/>
<path d="M535.381 282.831L534.441 283.168L538.459 294.354L539.399 294.018L535.381 282.831Z" fill="#81D4FA"/>
</g>
<defs>
<clipPath id="clip0">
<rect width="592" height="440" fill="white"/>
</clipPath>
</defs>
</svg>
