<svg width="647" height="580" viewBox="0 0 647 580" fill="none" xmlns="http://www.w3.org/2000/svg">
<path d="M402 106L126 106C121.582 106 118 109.582 118 114L118 170" stroke="#6A78A0" stroke-width="1.5" stroke-linecap="round" stroke-dasharray="4 8"/>
<path d="M402 454H126C121.582 454 118 450.418 118 446V390" stroke="#6A78A0" stroke-width="1.5" stroke-linecap="round" stroke-dasharray="4 8"/>
<path d="M546 106L638 106C642.418 106 646 109.582 646 114L646 446C646 450.418 642.418 454 638 454L546 454" stroke="#6A78A0" stroke-width="1.5" stroke-linecap="round" stroke-dasharray="4 8"/>
<g filter="url(#filter0_dd)">
<path d="M326 14C326 7.37258 331.373 2 338 2H534C540.627 2 546 7.37258 546 14V210C546 216.627 540.627 222 534 222H338C331.373 222 326 216.627 326 210V14Z" fill="#00CDE8"/>
</g>
<path d="M421.914 184V180.406L423.117 179.023L426.68 184H429.141L424.547 177.641L428.805 172.727H426.492L422.047 177.914H421.914V172.727H419.898V184H421.914ZM437.094 184V179.594L441.047 172.727H438.836L436.156 177.547H436.023L433.336 172.727H431.125L435.078 179.594V184H437.094ZM448.812 184C451.219 184 452.688 182.773 452.688 180.797C452.688 179.328 451.641 178.234 450.125 178.094V177.953C451.258 177.773 452.133 176.727 452.133 175.539C452.133 173.805 450.844 172.727 448.703 172.727H443.992V184H448.812ZM446.008 174.328H448.211C449.43 174.328 450.141 174.906 450.141 175.898C450.141 176.914 449.383 177.469 447.953 177.469H446.008V174.328ZM446.008 182.398V178.922H448.273C449.812 178.922 450.625 179.516 450.625 180.641C450.625 181.789 449.836 182.398 448.352 182.398H446.008Z" fill="white"/>
<path d="M456.321 87.7088C455.937 87.7518 455.553 87.7949 455.127 87.7949C449.882 87.7518 445.661 83.4452 445.703 78.1481C445.703 75.1334 447.153 72.4202 449.328 70.6545C447.153 67.726 444.552 65.099 441.653 62.9026C441.397 63.2041 441.141 63.5055 440.885 63.807C437.175 67.5107 431.163 67.5107 427.454 63.7209C425.322 61.5676 424.469 58.639 424.767 55.8397C423.062 55.5813 421.314 55.4521 419.565 55.4521C417.647 55.4521 415.77 55.5813 413.937 55.8397C413.98 56.2273 414.022 56.6149 414.022 57.0456C413.98 62.3427 409.716 66.6063 404.471 66.5632C401.486 66.5632 398.8 65.099 397.052 62.9026C394.152 65.099 391.551 67.726 389.377 70.6545C389.675 70.9129 389.974 71.1713 390.272 71.4297C393.939 75.1765 393.939 81.2488 390.187 84.9956C388.055 87.1489 385.155 88.0102 382.384 87.7088C382.128 89.4314 382 91.1971 382 92.9629C382 94.9008 382.128 96.7957 382.384 98.6476C382.768 98.6045 383.151 98.5615 383.578 98.5615C388.822 98.6045 393.044 102.911 393.001 108.208C393.001 111.223 391.551 113.936 389.377 115.702C391.551 118.63 394.152 121.257 397.052 123.454C397.308 123.152 397.563 122.851 397.819 122.549C401.529 118.846 407.541 118.846 411.251 122.635C413.383 124.789 414.235 127.717 413.937 130.517C415.643 130.775 417.391 130.904 419.139 130.904C421.058 130.904 422.934 130.775 424.767 130.517C424.725 130.129 424.682 129.741 424.682 129.311C424.725 124.014 428.989 119.75 434.233 119.793C437.218 119.793 439.904 121.257 441.653 123.454C444.552 121.257 447.153 118.63 449.328 115.702C449.029 115.443 448.731 115.185 448.432 114.927C444.765 111.18 444.765 105.108 448.518 101.361C450.65 99.2075 453.549 98.3461 456.321 98.6476C456.576 96.9249 456.704 95.1592 456.704 93.3935C456.747 91.4555 456.619 89.5606 456.321 87.7088ZM419.437 104.892C412.828 104.849 407.498 99.4228 407.541 92.7475C407.584 86.0723 412.956 80.689 419.565 80.732C426.174 80.7751 431.504 86.2014 431.462 92.8767C431.419 99.552 426.047 104.892 419.437 104.892Z" fill="url(#paint0_linear)"/>
<path fill-rule="evenodd" clip-rule="evenodd" d="M490 34L463.198 38.467L470.585 45.8547L456.712 59.7282L464.271 67.2877L478.145 53.4142L485.533 60.802L490 34ZM490 152.356L463.198 147.889L470.585 140.501L456.712 126.628L464.271 119.068L478.145 132.942L485.533 125.554L490 152.356Z" fill="url(#paint1_linear)"/>
<g filter="url(#filter1_dd)">
<path d="M6 184C6 177.373 11.3726 172 18 172H214C220.627 172 226 177.373 226 184V380C226 386.627 220.627 392 214 392H18C11.3726 392 6 386.627 6 380V184Z" fill="#5D88FD"/>
</g>
<path fill-rule="evenodd" clip-rule="evenodd" d="M132.195 211.999C118.887 211.999 108.1 222.787 108.1 236.094V252.776H107.126C100.499 252.776 95.126 258.148 95.126 264.776V298.604C95.126 305.231 100.499 310.604 107.126 310.604H157.265C163.892 310.604 169.265 305.231 169.265 298.604V264.776C169.265 258.148 163.892 252.776 157.265 252.776H156.29V236.094C156.29 222.787 145.502 211.999 132.195 211.999ZM144.242 252.776V234.982C144.242 228.328 138.848 222.934 132.195 222.934C125.541 222.934 120.147 228.328 120.147 234.982V252.776H144.242Z" fill="url(#paint2_linear)"/>
<path fill-rule="evenodd" clip-rule="evenodd" d="M73.6434 305.644H62.4229L72.6364 287.231L62.4229 269.297H73.6434L83.5692 287.231L73.6434 305.644ZM89.5145 305.644H78.2939L88.5075 287.231L78.2939 269.297H89.5145L99.4883 287.231L89.5145 305.644ZM94.2139 305.644H105.434L115.408 287.231L105.434 269.297H94.2139L104.427 287.231L94.2139 305.644Z" fill="url(#paint3_linear)"/>
<path d="M101.812 354V350.406L103.016 349.023L106.578 354H109.039L104.445 347.641L108.703 342.727H106.391L101.945 347.914H101.812V342.727H99.7969V354H101.812ZM116.992 354V349.594L120.945 342.727H118.734L116.055 347.547H115.922L113.234 342.727H111.023L114.977 349.594V354H116.992ZM127.969 354.281C130.57 354.281 132.477 352.727 132.742 350.422H130.758C130.484 351.688 129.398 352.484 127.969 352.484C126.047 352.484 124.852 350.906 124.852 348.359C124.852 345.82 126.047 344.242 127.961 344.242C129.383 344.242 130.469 345.117 130.75 346.469H132.734C132.5 344.117 130.523 342.445 127.961 342.445C124.766 342.445 122.789 344.703 122.789 348.367C122.789 352.016 124.773 354.281 127.969 354.281Z" fill="white"/>
<g filter="url(#filter2_dd)">
<path d="M326 354C326 347.373 331.373 342 338 342H534C540.627 342 546 347.373 546 354V550C546 556.627 540.627 562 534 562H338C331.373 562 326 556.627 326 550V354Z" fill="#7C57C2"/>
</g>
<path fill-rule="evenodd" clip-rule="evenodd" d="M386.233 462.363L392.653 468.783L389.856 471.58L378.667 460.391L389.856 449.202L392.653 451.999L386.233 458.419H424.111V462.363H386.233ZM412.923 467.04L415.72 464.243L426.909 475.478L415.72 486.667L412.923 483.869L419.389 477.449H381.465V473.46H419.389L412.923 467.04Z" fill="url(#paint4_linear)"/>
<path fill-rule="evenodd" clip-rule="evenodd" d="M453.404 381.333C457.561 381.593 461.329 388.544 463.602 398.872H442.685C444.959 388.609 448.727 381.593 452.884 381.333H453.144H453.404ZM438.853 420.179H413.519C413.648 412.969 415.727 406.278 419.17 400.497H440.672C439.567 406.278 438.918 412.969 438.853 420.179ZM467.434 420.179H492.768C492.639 412.969 490.56 406.278 487.117 400.497H465.616C466.72 406.278 467.369 412.969 467.434 420.179ZM463.927 400.497C465.096 406.278 465.746 413.034 465.811 420.179H440.476C440.541 413.034 441.191 406.278 442.36 400.497H463.927ZM442.62 442.59C444.894 453.179 448.661 460.324 452.949 460.649H453.208H453.468C457.691 460.389 461.523 453.179 463.732 442.59H442.62ZM442.295 441.031C441.191 435.315 440.541 428.754 440.476 421.803H465.876C465.811 428.754 465.161 435.315 464.057 441.031H442.295ZM465.356 442.59C463.602 451.035 460.808 457.401 457.431 460.389C469.513 459.09 480.036 452.334 486.337 442.59H465.356ZM419.95 442.59H440.932C442.686 451.035 445.479 457.401 448.857 460.389C436.775 459.09 426.251 452.334 419.95 442.59ZM441.062 398.872C442.816 390.687 445.544 384.451 448.857 381.528C436.969 382.827 426.576 389.388 420.275 398.872H441.062ZM467.435 421.803H492.769C492.639 428.754 490.69 435.315 487.377 441.031H465.681C466.785 435.315 467.37 428.819 467.435 421.803ZM438.853 421.803H413.519C413.648 428.819 415.597 435.38 418.91 441.031H440.607C439.567 435.315 438.918 428.754 438.853 421.803ZM486.078 398.872H465.291C463.537 390.687 460.744 384.516 457.496 381.528C469.383 382.827 479.712 389.388 486.078 398.872Z" fill="url(#paint5_linear)"/>
<path d="M385.891 524H388.055L384.047 512.727H381.781L377.781 524H379.82L380.789 521.117H384.938L385.891 524ZM382.805 514.875H382.938L384.469 519.523H381.258L382.805 514.875ZM397.703 518.328C397.5 516.531 396.172 515.281 393.977 515.281C391.406 515.281 389.898 516.93 389.898 519.703C389.898 522.516 391.414 524.172 393.984 524.172C396.148 524.172 397.492 522.969 397.703 521.18H395.859C395.656 522.07 394.984 522.547 393.977 522.547C392.656 522.547 391.859 521.5 391.859 519.703C391.859 517.93 392.648 516.906 393.977 516.906C395.039 516.906 395.68 517.5 395.859 518.328H397.703ZM407.938 518.328C407.734 516.531 406.406 515.281 404.211 515.281C401.641 515.281 400.133 516.93 400.133 519.703C400.133 522.516 401.648 524.172 404.219 524.172C406.383 524.172 407.727 522.969 407.938 521.18H406.094C405.891 522.07 405.219 522.547 404.211 522.547C402.891 522.547 402.094 521.5 402.094 519.703C402.094 517.93 402.883 516.906 404.211 516.906C405.273 516.906 405.914 517.5 406.094 518.328H407.938ZM410.789 524H412.727V519.062C412.727 517.867 413.602 517.086 414.859 517.086C415.188 517.086 415.703 517.141 415.852 517.195V515.398C415.672 515.344 415.328 515.312 415.047 515.312C413.945 515.312 413.023 515.938 412.789 516.781H412.656V515.453H410.789V524ZM421.812 516.82C422.977 516.82 423.742 517.633 423.781 518.898H419.758C419.844 517.648 420.656 516.82 421.812 516.82ZM423.797 521.648C423.516 522.281 422.852 522.633 421.891 522.633C420.617 522.633 419.797 521.742 419.75 520.32V520.219H425.719V519.594C425.719 516.898 424.258 515.281 421.82 515.281C419.344 515.281 417.805 517.008 417.805 519.758C417.805 522.508 419.32 524.172 421.836 524.172C423.852 524.172 425.266 523.203 425.633 521.648H423.797ZM431.758 524.141C432.945 524.141 433.93 523.586 434.414 522.648H434.547V524H436.422V512.148H434.484V516.812H434.352C433.898 515.875 432.93 515.312 431.758 515.312C429.602 515.312 428.242 517.016 428.242 519.719C428.242 522.438 429.594 524.141 431.758 524.141ZM432.359 516.961C433.688 516.961 434.508 518.023 434.508 519.727C434.508 521.445 433.695 522.492 432.359 522.492C431.031 522.492 430.227 521.453 430.227 519.727C430.227 518.008 431.039 516.961 432.359 516.961ZM439.891 524H441.82V515.453H439.891V524ZM440.852 514.062C441.562 514.062 442.047 513.609 442.047 512.992C442.047 512.375 441.562 511.922 440.852 511.922C440.148 511.922 439.656 512.375 439.656 512.992C439.656 513.609 440.148 514.062 440.852 514.062ZM445.844 513.359V515.508H444.492V517.055H445.844V521.719C445.844 523.375 446.625 524.039 448.586 524.039C448.961 524.039 449.32 524 449.602 523.945V522.43C449.367 522.453 449.219 522.469 448.945 522.469C448.133 522.469 447.773 522.094 447.773 521.25V517.055H449.602V515.508H447.773V513.359H445.844ZM455.461 522.617C454.602 522.617 453.984 522.188 453.984 521.469C453.984 520.773 454.492 520.383 455.578 520.312L457.508 520.188V520.867C457.508 521.859 456.633 522.617 455.461 522.617ZM454.891 524.141C456.008 524.141 456.945 523.656 457.422 522.828H457.555V524H459.422V518.164C459.422 516.352 458.188 515.281 455.992 515.281C453.961 515.281 452.547 516.242 452.391 517.75H454.219C454.398 517.172 455.008 516.859 455.898 516.859C456.945 516.859 457.508 517.328 457.508 518.164V518.883L455.305 519.016C453.227 519.141 452.062 520.031 452.062 521.578C452.062 523.141 453.242 524.141 454.891 524.141ZM463.375 513.359V515.508H462.023V517.055H463.375V521.719C463.375 523.375 464.156 524.039 466.117 524.039C466.492 524.039 466.852 524 467.133 523.945V522.43C466.898 522.453 466.75 522.469 466.477 522.469C465.664 522.469 465.305 522.094 465.305 521.25V517.055H467.133V515.508H465.305V513.359H463.375ZM470.094 524H472.023V515.453H470.094V524ZM471.055 514.062C471.766 514.062 472.25 513.609 472.25 512.992C472.25 512.375 471.766 511.922 471.055 511.922C470.352 511.922 469.859 512.375 469.859 512.992C469.859 513.609 470.352 514.062 471.055 514.062ZM479.117 524.172C481.672 524.172 483.227 522.5 483.227 519.727C483.227 516.961 481.664 515.281 479.117 515.281C476.578 515.281 475.008 516.969 475.008 519.727C475.008 522.5 476.555 524.172 479.117 524.172ZM479.117 522.547C477.766 522.547 476.992 521.516 476.992 519.727C476.992 517.945 477.766 516.906 479.117 516.906C480.461 516.906 481.234 517.945 481.234 519.727C481.234 521.516 480.469 522.547 479.117 522.547ZM486.18 524H488.117V519.023C488.117 517.766 488.844 516.969 490 516.969C491.18 516.969 491.727 517.625 491.727 518.93V524H493.664V518.469C493.664 516.43 492.625 515.281 490.719 515.281C489.445 515.281 488.586 515.867 488.18 516.82H488.047V515.453H486.18V524Z" fill="white"/>
<defs>
<filter id="filter0_dd" x="320" y="0" width="240" height="240" filterUnits="userSpaceOnUse" color-interpolation-filters="sRGB">
<feFlood flood-opacity="0" result="BackgroundImageFix"/>
<feColorMatrix in="SourceAlpha" type="matrix" values="0 0 0 0 0 0 0 0 0 0 0 0 0 0 0 0 0 0 127 0"/>
<feOffset dx="4" dy="8"/>
<feGaussianBlur stdDeviation="5"/>
<feColorMatrix type="matrix" values="0 0 0 0 0.744141 0 0 0 0 0.744141 0 0 0 0 0.744141 0 0 0 0.118171 0"/>
<feBlend mode="normal" in2="BackgroundImageFix" result="effect1_dropShadow"/>
<feColorMatrix in="SourceAlpha" type="matrix" values="0 0 0 0 0 0 0 0 0 0 0 0 0 0 0 0 0 0 127 0"/>
<feOffset dx="1" dy="2"/>
<feGaussianBlur stdDeviation="1"/>
<feColorMatrix type="matrix" values="0 0 0 0 0.9375 0 0 0 0 0.9375 0 0 0 0 0.9375 0 0 0 1 0"/>
<feBlend mode="normal" in2="effect1_dropShadow" result="effect2_dropShadow"/>
<feBlend mode="normal" in="SourceGraphic" in2="effect2_dropShadow" result="shape"/>
</filter>
<filter id="filter1_dd" x="0" y="170" width="240" height="240" filterUnits="userSpaceOnUse" color-interpolation-filters="sRGB">
<feFlood flood-opacity="0" result="BackgroundImageFix"/>
<feColorMatrix in="SourceAlpha" type="matrix" values="0 0 0 0 0 0 0 0 0 0 0 0 0 0 0 0 0 0 127 0"/>
<feOffset dx="4" dy="8"/>
<feGaussianBlur stdDeviation="5"/>
<feColorMatrix type="matrix" values="0 0 0 0 0.744141 0 0 0 0 0.744141 0 0 0 0 0.744141 0 0 0 0.118171 0"/>
<feBlend mode="normal" in2="BackgroundImageFix" result="effect1_dropShadow"/>
<feColorMatrix in="SourceAlpha" type="matrix" values="0 0 0 0 0 0 0 0 0 0 0 0 0 0 0 0 0 0 127 0"/>
<feOffset dx="1" dy="2"/>
<feGaussianBlur stdDeviation="1"/>
<feColorMatrix type="matrix" values="0 0 0 0 0.9375 0 0 0 0 0.9375 0 0 0 0 0.9375 0 0 0 1 0"/>
<feBlend mode="normal" in2="effect1_dropShadow" result="effect2_dropShadow"/>
<feBlend mode="normal" in="SourceGraphic" in2="effect2_dropShadow" result="shape"/>
</filter>
<filter id="filter2_dd" x="320" y="340" width="240" height="240" filterUnits="userSpaceOnUse" color-interpolation-filters="sRGB">
<feFlood flood-opacity="0" result="BackgroundImageFix"/>
<feColorMatrix in="SourceAlpha" type="matrix" values="0 0 0 0 0 0 0 0 0 0 0 0 0 0 0 0 0 0 127 0"/>
<feOffset dx="4" dy="8"/>
<feGaussianBlur stdDeviation="5"/>
<feColorMatrix type="matrix" values="0 0 0 0 0.744141 0 0 0 0 0.744141 0 0 0 0 0.744141 0 0 0 0.118171 0"/>
<feBlend mode="normal" in2="BackgroundImageFix" result="effect1_dropShadow"/>
<feColorMatrix in="SourceAlpha" type="matrix" values="0 0 0 0 0 0 0 0 0 0 0 0 0 0 0 0 0 0 127 0"/>
<feOffset dx="1" dy="2"/>
<feGaussianBlur stdDeviation="1"/>
<feColorMatrix type="matrix" values="0 0 0 0 0.9375 0 0 0 0 0.9375 0 0 0 0 0.9375 0 0 0 1 0"/>
<feBlend mode="normal" in2="effect1_dropShadow" result="effect2_dropShadow"/>
<feBlend mode="normal" in="SourceGraphic" in2="effect2_dropShadow" result="shape"/>
</filter>
<linearGradient id="paint0_linear" x1="419.356" y1="55.4521" x2="419.356" y2="130.904" gradientUnits="userSpaceOnUse">
<stop stop-color="white" stop-opacity="0.7"/>
<stop offset="1" stop-color="white" stop-opacity="0.5"/>
</linearGradient>
<linearGradient id="paint1_linear" x1="508" y1="93" x2="422.5" y2="93" gradientUnits="userSpaceOnUse">
<stop stop-color="white"/>
<stop offset="1" stop-color="white" stop-opacity="0.2"/>
</linearGradient>
<linearGradient id="paint2_linear" x1="132.195" y1="211.999" x2="132.195" y2="310.604" gradientUnits="userSpaceOnUse">
<stop stop-color="white" stop-opacity="0.5"/>
<stop offset="1" stop-color="white" stop-opacity="0.3"/>
</linearGradient>
<linearGradient id="paint3_linear" x1="105" y1="269" x2="65.5" y2="306" gradientUnits="userSpaceOnUse">
<stop stop-color="white"/>
<stop offset="1" stop-color="white" stop-opacity="0.2"/>
</linearGradient>
<linearGradient id="paint4_linear" x1="379" y1="461" x2="435.5" y2="487" gradientUnits="userSpaceOnUse">
<stop stop-color="white"/>
<stop offset="1" stop-color="white" stop-opacity="0.1"/>
</linearGradient>
<linearGradient id="paint5_linear" x1="453.144" y1="381.333" x2="453.144" y2="460.649" gradientUnits="userSpaceOnUse">
<stop stop-color="white" stop-opacity="0.6"/>
<stop offset="1" stop-color="white" stop-opacity="0.4"/>
</linearGradient>
</defs>
</svg>
