<svg width="56" height="56" viewBox="0 0 56 56" fill="none" xmlns="http://www.w3.org/2000/svg">
<circle cx="28" cy="28" r="28" fill="#C4C4C4"/>
<circle cx="28" cy="28" r="28" fill="#DEE8FF"/>
<path d="M27.5876 15.4862C27.7862 15.1965 28.2138 15.1965 28.4124 15.4862L32.3239 21.1936C32.519 21.4782 32.8062 21.6868 33.1371 21.7844L39.7738 23.7408C40.1108 23.8401 40.243 24.2469 40.0287 24.5253L35.8094 30.009C35.5991 30.2824 35.4894 30.6201 35.4988 30.965L35.6891 37.8814C35.6987 38.2326 35.3527 38.484 35.0217 38.3663L28.5026 36.048C28.1775 35.9324 27.8225 35.9324 27.4974 36.048L20.9783 38.3663C20.6473 38.484 20.3013 38.2326 20.3109 37.8814L20.5012 30.965C20.5106 30.6201 20.4009 30.2825 20.1906 30.009L15.9713 24.5253C15.757 24.2469 15.8892 23.8401 16.2262 23.7408L22.8629 21.7844C23.1938 21.6868 23.481 21.4782 23.6761 21.1936L27.5876 15.4862Z" stroke="#5D88FD"/>
</svg>
