<svg width="192" height="200" viewBox="0 0 192 200" fill="none" xmlns="http://www.w3.org/2000/svg">
<path d="M160 32.7998H44.7998V180H160V32.7998Z" fill="url(#paint0_linear)" fill-opacity="0.2"/>
<path d="M147.2 20H32V167.2H147.2V20Z" fill="url(#paint1_linear)" fill-opacity="0.2"/>
<path d="M131.2 61.2207H78.1006V65.8966H131.2V61.2207Z" fill="url(#paint2_linear)"/>
<path d="M64.6081 67.1155C66.7114 67.1155 68.4165 65.5227 68.4165 63.5578C68.4165 61.5929 66.7114 60 64.6081 60C62.5049 60 60.7998 61.5929 60.7998 63.5578C60.7998 65.5227 62.5049 67.1155 64.6081 67.1155Z" fill="url(#paint3_linear)"/>
<path d="M131.2 75.7568H78.1006V80.4328H131.2V75.7568Z" fill="url(#paint4_linear)"/>
<path d="M64.6081 81.6517C66.7114 81.6517 68.4165 80.0588 68.4165 78.0939C68.4165 76.129 66.7114 74.5361 64.6081 74.5361C62.5049 74.5361 60.7998 76.129 60.7998 78.0939C60.7998 80.0588 62.5049 81.6517 64.6081 81.6517Z" fill="url(#paint5_linear)"/>
<path d="M131.2 90.292H78.1006V94.9679H131.2V90.292Z" fill="url(#paint6_linear)"/>
<path d="M64.6081 96.1878C66.7114 96.1878 68.4165 94.5949 68.4165 92.63C68.4165 90.6651 66.7114 89.0723 64.6081 89.0723C62.5049 89.0723 60.7998 90.6651 60.7998 92.63C60.7998 94.5949 62.5049 96.1878 64.6081 96.1878Z" fill="url(#paint7_linear)"/>
<path d="M131.2 104.829H78.1006V109.505H131.2V104.829Z" fill="url(#paint8_linear)"/>
<path d="M64.6081 110.725C66.7114 110.725 68.4165 109.132 68.4165 107.167C68.4165 105.202 66.7114 103.609 64.6081 103.609C62.5049 103.609 60.7998 105.202 60.7998 107.167C60.7998 109.132 62.5049 110.725 64.6081 110.725Z" fill="url(#paint9_linear)"/>
<path d="M131.2 119.363H78.1006V124.039H131.2V119.363Z" fill="url(#paint10_linear)"/>
<path d="M64.6081 125.363C66.7114 125.363 68.4165 123.77 68.4165 121.805C68.4165 119.84 66.7114 118.247 64.6081 118.247C62.5049 118.247 60.7998 119.84 60.7998 121.805C60.7998 123.77 62.5049 125.363 64.6081 125.363Z" fill="url(#paint11_linear)"/>
<path d="M131.2 134.104H78.1006V138.78H131.2V134.104Z" fill="url(#paint12_linear)"/>
<path d="M64.6081 140C66.7114 140 68.4165 138.407 68.4165 136.443C68.4165 134.478 66.7114 132.885 64.6081 132.885C62.5049 132.885 60.7998 134.478 60.7998 136.443C60.7998 138.407 62.5049 140 64.6081 140Z" fill="url(#paint13_linear)"/>
<defs>
<linearGradient id="paint0_linear" x1="57.9337" y1="154.322" x2="172.435" y2="78.5105" gradientUnits="userSpaceOnUse">
<stop stop-color="#FF0A71" stop-opacity="0.3"/>
<stop offset="1" stop-color="#FF0F57"/>
</linearGradient>
<linearGradient id="paint1_linear" x1="45.1339" y1="141.523" x2="159.635" y2="65.7107" gradientUnits="userSpaceOnUse">
<stop stop-color="#FF0A71" stop-opacity="0.3"/>
<stop offset="1" stop-color="#FF0F57"/>
</linearGradient>
<linearGradient id="paint2_linear" x1="84.1544" y1="65.081" x2="84.968" y2="57.264" gradientUnits="userSpaceOnUse">
<stop stop-color="white" stop-opacity="0.5"/>
<stop offset="1" stop-color="white"/>
</linearGradient>
<linearGradient id="paint3_linear" x1="61.6682" y1="65.8743" x2="67.6509" y2="60.4563" gradientUnits="userSpaceOnUse">
<stop stop-color="white" stop-opacity="0.5"/>
<stop offset="1" stop-color="white"/>
</linearGradient>
<linearGradient id="paint4_linear" x1="84.1544" y1="79.6171" x2="84.968" y2="71.8001" gradientUnits="userSpaceOnUse">
<stop stop-color="white" stop-opacity="0.5"/>
<stop offset="1" stop-color="white"/>
</linearGradient>
<linearGradient id="paint5_linear" x1="61.6682" y1="80.4104" x2="67.6509" y2="74.9925" gradientUnits="userSpaceOnUse">
<stop stop-color="white" stop-opacity="0.5"/>
<stop offset="1" stop-color="white"/>
</linearGradient>
<linearGradient id="paint6_linear" x1="84.1544" y1="94.1523" x2="84.968" y2="86.3353" gradientUnits="userSpaceOnUse">
<stop stop-color="white" stop-opacity="0.5"/>
<stop offset="1" stop-color="white"/>
</linearGradient>
<linearGradient id="paint7_linear" x1="61.6682" y1="94.9466" x2="67.6509" y2="89.5286" gradientUnits="userSpaceOnUse">
<stop stop-color="white" stop-opacity="0.5"/>
<stop offset="1" stop-color="white"/>
</linearGradient>
<linearGradient id="paint8_linear" x1="84.1544" y1="108.689" x2="84.968" y2="100.872" gradientUnits="userSpaceOnUse">
<stop stop-color="white" stop-opacity="0.5"/>
<stop offset="1" stop-color="white"/>
</linearGradient>
<linearGradient id="paint9_linear" x1="61.6682" y1="109.484" x2="67.6509" y2="104.066" gradientUnits="userSpaceOnUse">
<stop stop-color="white" stop-opacity="0.5"/>
<stop offset="1" stop-color="white"/>
</linearGradient>
<linearGradient id="paint10_linear" x1="84.1544" y1="123.224" x2="84.968" y2="115.407" gradientUnits="userSpaceOnUse">
<stop stop-color="white" stop-opacity="0.5"/>
<stop offset="1" stop-color="white"/>
</linearGradient>
<linearGradient id="paint11_linear" x1="61.6682" y1="124.121" x2="67.6509" y2="118.703" gradientUnits="userSpaceOnUse">
<stop stop-color="white" stop-opacity="0.5"/>
<stop offset="1" stop-color="white"/>
</linearGradient>
<linearGradient id="paint12_linear" x1="84.1544" y1="137.965" x2="84.968" y2="130.148" gradientUnits="userSpaceOnUse">
<stop stop-color="white" stop-opacity="0.5"/>
<stop offset="1" stop-color="white"/>
</linearGradient>
<linearGradient id="paint13_linear" x1="61.6682" y1="138.759" x2="67.6509" y2="133.341" gradientUnits="userSpaceOnUse">
<stop stop-color="white" stop-opacity="0.5"/>
<stop offset="1" stop-color="white"/>
</linearGradient>
</defs>
</svg>
