<svg width="144" height="144" viewBox="0 0 144 144" fill="none" xmlns="http://www.w3.org/2000/svg">
<path d="M111.095 64.9391C122.895 64.9391 132.461 55.5606 132.461 43.9915C132.461 32.4225 122.895 23.0439 111.095 23.0439C99.2946 23.0439 89.7285 32.4225 89.7285 43.9915C89.7285 55.5606 99.2946 64.9391 111.095 64.9391Z" fill="url(#paint0_linear)" fill-opacity="0.4"/>
<path d="M114.029 46.9905L99.6055 54.5673L108.036 40.7913L122.129 33.8223L114.029 46.9905Z" fill="url(#paint1_linear)" fill-opacity="0.4"/>
<path d="M111.096 29.4053C112.168 29.4053 113.038 28.5527 113.038 27.501C113.038 26.4493 112.168 25.5967 111.096 25.5967C110.023 25.5967 109.153 26.4493 109.153 27.501C109.153 28.5527 110.023 29.4053 111.096 29.4053Z" fill="url(#paint2_linear)" fill-opacity="0.4"/>
<path d="M111.096 62.5079C112.168 62.5079 113.038 61.6553 113.038 60.6036C113.038 59.5518 112.168 58.6992 111.096 58.6992C110.023 58.6992 109.153 59.5518 109.153 60.6036C109.153 61.6553 110.023 62.5079 111.096 62.5079Z" fill="url(#paint3_linear)" fill-opacity="0.4"/>
<path d="M94.2334 45.8956C95.3062 45.8956 96.1758 45.043 96.1758 43.9913C96.1758 42.9395 95.3062 42.0869 94.2334 42.0869C93.1607 42.0869 92.291 42.9395 92.291 43.9913C92.291 45.043 93.1607 45.8956 94.2334 45.8956Z" fill="url(#paint4_linear)" fill-opacity="0.4"/>
<path d="M127.999 45.8956C129.072 45.8956 129.941 45.043 129.941 43.9913C129.941 42.9395 129.072 42.0869 127.999 42.0869C126.926 42.0869 126.057 42.9395 126.057 43.9913C126.057 45.043 126.926 45.8956 127.999 45.8956Z" fill="url(#paint5_linear)" fill-opacity="0.4"/>
<path d="M55.1383 53.028C68.1027 53.028 78.6125 42.7243 78.6125 30.014C78.6125 17.3037 68.1027 7 55.1383 7C42.1738 7 31.6641 17.3037 31.6641 30.014C31.6641 42.7243 42.1738 53.028 55.1383 53.028Z" fill="url(#paint6_linear)" fill-opacity="0.3"/>
<path d="M55.1381 56.6748C30.7547 56.6748 11 76.0422 11 99.9476H99.235C99.2763 76.0422 79.5216 56.6748 55.1381 56.6748Z" fill="url(#paint7_linear)" fill-opacity="0.3"/>
<path d="M111.413 90.8401C111.122 91.0025 110.832 91.1243 110.5 91.2461C106.308 92.87 101.577 90.8402 99.9586 86.7398C99.0041 84.3851 99.2946 81.868 100.498 79.8381C97.842 78.2548 94.9785 77.0369 91.949 76.2655C91.866 76.5903 91.7415 76.8745 91.617 77.1992C89.8325 81.2184 85.0185 83.0859 80.91 81.2996C78.5445 80.2847 76.926 78.336 76.3035 76.0625C74.851 76.3873 73.44 76.8339 72.029 77.3616C70.4935 77.93 69.041 78.6202 67.6715 79.4321C67.8375 79.7163 67.962 80.0005 68.0865 80.3253C69.7465 84.4257 67.6715 89.0538 63.48 90.6372C61.0729 91.5709 58.4999 91.2867 56.4249 90.1094C54.8064 92.7077 53.5614 95.5089 52.7729 98.4726C53.1049 98.5538 53.3954 98.6755 53.7274 98.7973C57.8359 100.543 59.7449 105.252 57.9189 109.272C56.8814 111.586 54.8894 113.169 52.5654 113.778C52.8974 115.199 53.3539 116.579 53.8934 117.96C54.4744 119.462 55.1799 120.883 56.0099 122.222C56.3004 122.06 56.5909 121.938 56.9229 121.816C61.1145 120.192 65.8455 122.222 67.464 126.323C68.4185 128.677 68.128 131.194 66.9245 133.224C69.5805 134.808 72.444 136.026 75.4735 136.797C75.5565 136.472 75.681 136.188 75.8055 135.863C77.59 131.844 82.404 129.977 86.5125 131.763C88.878 132.778 90.4965 134.727 91.119 137C92.5715 136.675 93.9825 136.229 95.3935 135.701C96.9291 135.132 98.3816 134.442 99.7511 133.63C99.5851 133.346 99.4606 133.062 99.3361 132.737C97.6761 128.637 99.751 124.009 103.943 122.425C106.35 121.492 108.923 121.776 110.998 122.953C112.616 120.355 113.861 117.554 114.65 114.59C114.318 114.509 114.027 114.387 113.695 114.265C109.587 112.519 107.678 107.81 109.504 103.791C110.541 101.477 112.533 99.8935 114.857 99.2845C114.525 97.8636 114.069 96.4833 113.529 95.1029C112.907 93.6008 112.201 92.1799 111.413 90.8401ZM87.467 115.564C82.1965 117.594 76.262 115.037 74.187 109.921C72.112 104.765 74.7265 98.9597 79.9555 96.9298C85.226 94.8999 91.1605 97.4576 93.2355 102.573C95.3105 107.729 92.7375 113.534 87.467 115.564Z" fill="url(#paint8_linear)" fill-opacity="0.4"/>
<defs>
<linearGradient id="paint0_linear" x1="94.6005" y1="57.631" x2="129.618" y2="27.4131" gradientUnits="userSpaceOnUse">
<stop stop-color="#F6FEFF" stop-opacity="0.5"/>
<stop offset="1" stop-color="#00CDE8"/>
</linearGradient>
<linearGradient id="paint1_linear" x1="102.173" y1="50.9485" x2="119.638" y2="34.9059" gradientUnits="userSpaceOnUse">
<stop stop-color="#BFF3FA"/>
<stop offset="1" stop-color="#00CDE8"/>
</linearGradient>
<linearGradient id="paint2_linear" x1="109.596" y1="28.741" x2="112.78" y2="25.9939" gradientUnits="userSpaceOnUse">
<stop stop-color="#BFF3FA"/>
<stop offset="1" stop-color="#00CDE8"/>
</linearGradient>
<linearGradient id="paint3_linear" x1="109.596" y1="61.8435" x2="112.78" y2="59.0964" gradientUnits="userSpaceOnUse">
<stop stop-color="#BFF3FA"/>
<stop offset="1" stop-color="#00CDE8"/>
</linearGradient>
<linearGradient id="paint4_linear" x1="92.7339" y1="45.2312" x2="95.9173" y2="42.4841" gradientUnits="userSpaceOnUse">
<stop stop-color="#BFF3FA"/>
<stop offset="1" stop-color="#00CDE8"/>
</linearGradient>
<linearGradient id="paint5_linear" x1="126.5" y1="45.2312" x2="129.683" y2="42.4841" gradientUnits="userSpaceOnUse">
<stop stop-color="#BFF3FA"/>
<stop offset="1" stop-color="#00CDE8"/>
</linearGradient>
<linearGradient id="paint6_linear" x1="55.1554" y1="100.474" x2="55.1554" y2="4.8524" gradientUnits="userSpaceOnUse">
<stop stop-color="#06D48A"/>
<stop offset="1" stop-color="#D3FCED"/>
</linearGradient>
<linearGradient id="paint7_linear" x1="55.1497" y1="144.554" x2="55.1497" y2="54.6558" gradientUnits="userSpaceOnUse">
<stop stop-color="#06D48A"/>
<stop offset="1" stop-color="#8CF6D0"/>
</linearGradient>
<linearGradient id="paint8_linear" x1="59.6673" y1="126.37" x2="110.617" y2="82.3077" gradientUnits="userSpaceOnUse">
<stop stop-color="#BFF3FA" stop-opacity="0.6"/>
<stop offset="1" stop-color="#00CDE8" stop-opacity="0.7"/>
</linearGradient>
</defs>
</svg>
