<svg width="144" height="144" viewBox="0 0 144 144" fill="none" xmlns="http://www.w3.org/2000/svg">
<path d="M71.9995 29.2129C34.1288 29.2129 3.51172 77.8263 3.51172 77.8263C3.51172 77.8263 34.2131 126.44 71.9995 126.44C109.786 126.44 140.487 77.8263 140.487 77.8263C140.487 77.8263 109.87 29.2129 71.9995 29.2129ZM71.9995 102.09C58.7574 102.09 48.0457 91.2398 48.0457 77.8263C48.0457 64.4127 58.7574 53.5623 71.9995 53.5623C85.2416 53.5623 95.9534 64.4127 95.9534 77.8263C95.9534 91.2398 85.2416 102.09 71.9995 102.09Z" fill="url(#paint0_linear)" fill-opacity="0.4"/>
<path d="M42.2019 47.8199C39.2375 45.091 35.0378 43.3853 29.356 42.5325H29.2736C19.7215 41.2533 18.9803 38.1832 18.9803 34.8573C18.9803 31.2755 23.427 28.2907 28.7795 28.2907C34.0497 28.2907 38.5787 31.2755 38.5787 34.8573H46.8133C46.8133 27.6937 40.8844 21.6388 32.8968 20.1037V14.0488H24.5799V20.1037C16.5923 21.7241 10.6634 27.6937 10.6634 34.8573C10.6634 48.6727 23.8388 50.4636 28.2031 51.0606C38.4964 52.5956 38.4964 57.0302 38.4964 58.7359C38.4964 62.3176 34.0497 65.3025 28.6972 65.3025C23.427 65.3025 18.898 62.3176 18.898 58.7359H10.5811C10.5811 65.8994 16.51 71.9543 24.4975 73.4894V80.056H32.8145V73.4894C40.8021 71.8691 46.731 65.8994 46.731 58.7359C46.8133 54.3865 45.1664 50.6342 42.2019 47.8199Z" fill="url(#paint1_linear)"/>
<path d="M98.0692 39.6951L83.0175 17.6172L67.9658 39.6951H79.3176C76.2905 78.7559 43.9167 109.665 4.39551 109.665V116.628C47.6166 116.628 83.1856 82.662 86.2128 39.78L98.0692 39.6951Z" fill="url(#paint2_linear)"/>
<defs>
<linearGradient id="paint0_linear" x1="19.1282" y1="109.48" x2="100.028" y2="13.0549" gradientUnits="userSpaceOnUse">
<stop stop-color="#F6FEFF" stop-opacity="0.5"/>
<stop offset="1" stop-color="#00CDE8"/>
</linearGradient>
<linearGradient id="paint1_linear" x1="29.0021" y1="14.1725" x2="26.9893" y2="82.5444" gradientUnits="userSpaceOnUse">
<stop stop-color="#81D4FA" stop-opacity="0.8"/>
<stop offset="0.1416" stop-color="#67CBF9" stop-opacity="0.6938"/>
<stop offset="0.4134" stop-color="#3BBBF8" stop-opacity="0.49"/>
<stop offset="0.6568" stop-color="#1BB0F8" stop-opacity="0.3074"/>
<stop offset="0.8606" stop-color="#07A9F7" stop-opacity="0.1545"/>
<stop offset="1" stop-color="#00A7F7" stop-opacity="0.05"/>
</linearGradient>
<linearGradient id="paint2_linear" x1="52.0206" y1="17.8026" x2="50.2679" y2="120.419" gradientUnits="userSpaceOnUse">
<stop stop-color="#81D4FA" stop-opacity="0.8"/>
<stop offset="0.1416" stop-color="#67CBF9" stop-opacity="0.6938"/>
<stop offset="0.4134" stop-color="#3BBBF8" stop-opacity="0.49"/>
<stop offset="0.6568" stop-color="#1BB0F8" stop-opacity="0.3074"/>
<stop offset="0.8606" stop-color="#07A9F7" stop-opacity="0.1545"/>
<stop offset="1" stop-color="#00A7F7" stop-opacity="0.05"/>
</linearGradient>
</defs>
</svg>
