<svg width="720" height="72" viewBox="0 0 720 72" fill="none" xmlns="http://www.w3.org/2000/svg">
<path d="M0 4C0 1.79086 1.79086 0 4 0H694.116C697.748 0 701.094 1.96892 702.858 5.14357L717.842 32.1149C719.184 34.531 719.184 37.469 717.842 39.8851L702.858 66.8564C701.094 70.0311 697.748 72 694.116 72H4.00001C1.79087 72 0 70.2091 0 68V4Z" fill="#00857A"/>
<path d="M0 4C0 1.79086 1.79086 0 4 0H514.116C517.748 0 521.094 1.96892 522.858 5.14357L537.842 32.1149C539.184 34.531 539.184 37.469 537.842 39.8851L522.858 66.8564C521.094 70.0311 517.748 72 514.116 72H4.00002C1.79088 72 0 70.2091 0 68V4Z" fill="#00B2A4"/>
<path d="M0 4C0 1.79086 1.79086 0 4 0H154.116C157.748 0 161.094 1.96892 162.858 5.14357L177.842 32.1149C179.184 34.531 179.184 37.469 177.842 39.8851L162.858 66.8564C161.094 70.0311 157.748 72 154.116 72H4C1.79086 72 0 70.2091 0 68V4Z" fill="#3BE8DA"/>
<path d="M32.4277 40V31.5449H30.6582V40H32.4277ZM38.1719 40V34.709H38.2773L42.1797 40H43.6445V31.5449H41.9512V36.8125H41.8457L37.9551 31.5449H36.4785V40H38.1719ZM49.4707 40V31.5449H47.7012V40H49.4707ZM57.3418 40V33.0566H59.8789V31.5449H53.0352V33.0566H55.5723V40H57.3418ZM65.2129 40V31.5449H63.4434V40H65.2129ZM74.6953 40H76.6113L73.6758 31.5449H71.5957L68.6602 40H70.4355L71.0859 37.9844H74.0566L74.6953 40ZM72.5273 33.3027H72.6328L73.6816 36.6191H71.4668L72.5273 33.3027ZM85.584 38.459H81.8223V31.5449H80.0527V40H85.584V38.459ZM90.959 40V31.5449H89.1895V40H90.959ZM94.7754 40H101.303V38.4883H96.9434V38.3828L101.186 32.7344V31.5449H94.875V33.0566H99.0293V33.1621L94.7754 38.8047V40ZM110.551 40H112.467L109.531 31.5449H107.451L104.516 40H106.291L106.941 37.9844H109.912L110.551 40ZM108.383 33.3027H108.488L109.537 36.6191H107.322L108.383 33.3027ZM118.814 40V33.0566H121.352V31.5449H114.508V33.0566H117.045V40H118.814ZM126.686 40V31.5449H124.916V40H126.686ZM134.434 31.3281C131.949 31.3281 130.361 33.0273 130.361 35.7695C130.361 38.5117 131.926 40.2168 134.434 40.2168C136.936 40.2168 138.494 38.5117 138.494 35.7695C138.494 33.0332 136.93 31.3281 134.434 31.3281ZM134.434 32.8809C135.811 32.8809 136.689 34 136.689 35.7695C136.689 37.5332 135.811 38.6641 134.434 38.6641C133.045 38.6641 132.172 37.5332 132.172 35.7695C132.172 34 133.062 32.8809 134.434 32.8809ZM143.863 40V34.709H143.969L147.871 40H149.336V31.5449H147.643V36.8125H147.537L143.646 31.5449H142.17V40H143.863Z" fill="white"/>
<path d="M327.738 32.9746H329.273C330.152 32.9746 330.703 33.4785 330.703 34.2812C330.703 35.0957 330.182 35.5762 329.291 35.5762H327.738V32.9746ZM327.738 36.9355H329.186L330.762 40H332.766L330.984 36.6602C331.957 36.2734 332.52 35.3359 332.52 34.2578C332.52 32.5762 331.377 31.5449 329.52 31.5449H325.969V40H327.738V36.9355ZM338.088 31.5449H336.318V37.082C336.318 38.957 337.695 40.2168 339.857 40.2168C342.025 40.2168 343.402 38.957 343.402 37.082V31.5449H341.633V36.9004C341.633 37.9668 340.994 38.6465 339.857 38.6465C338.727 38.6465 338.088 37.9668 338.088 36.9004V31.5449ZM349.158 40V34.709H349.264L353.166 40H354.631V31.5449H352.938V36.8125H352.832L348.941 31.5449H347.465V40H349.158ZM360.381 40V34.709H360.486L364.389 40H365.854V31.5449H364.16V36.8125H364.055L360.164 31.5449H358.688V40H360.381ZM371.68 40V31.5449H369.91V40H371.68ZM377.424 40V34.709H377.529L381.432 40H382.896V31.5449H381.203V36.8125H381.098L377.207 31.5449H375.73V40H377.424ZM394.383 36.5488V35.4707H390.832V36.8008H392.666L392.66 36.9531C392.625 37.9727 391.822 38.6582 390.662 38.6582C389.268 38.6582 388.389 37.5566 388.389 35.7461C388.389 33.9707 389.227 32.8867 390.592 32.8867C391.576 32.8867 392.285 33.3848 392.549 34.2402H394.307C394.061 32.4824 392.59 31.3281 390.592 31.3281C388.131 31.3281 386.578 33.0391 386.578 35.7637C386.578 38.5293 388.119 40.2168 390.633 40.2168C392.941 40.2168 394.383 38.8105 394.383 36.5488Z" fill="white"/>
<path d="M600.861 40.2168C602.9 40.2168 604.389 38.957 604.535 37.1289H602.812C602.643 38.0605 601.881 38.6582 600.867 38.6582C599.531 38.6582 598.705 37.5508 598.705 35.7695C598.705 33.9883 599.531 32.8867 600.861 32.8867C601.869 32.8867 602.637 33.5254 602.807 34.498H604.529C604.4 32.6582 602.865 31.3281 600.861 31.3281C598.406 31.3281 596.895 33.0215 596.895 35.7695C596.895 38.5234 598.412 40.2168 600.861 40.2168ZM613.695 38.459H609.934V31.5449H608.164V40H613.695V38.459ZM620.764 31.3281C618.279 31.3281 616.691 33.0273 616.691 35.7695C616.691 38.5117 618.256 40.2168 620.764 40.2168C623.266 40.2168 624.824 38.5117 624.824 35.7695C624.824 33.0332 623.26 31.3281 620.764 31.3281ZM620.764 32.8809C622.141 32.8809 623.02 34 623.02 35.7695C623.02 37.5332 622.141 38.6641 620.764 38.6641C619.375 38.6641 618.502 37.5332 618.502 35.7695C618.502 34 619.393 32.8809 620.764 32.8809ZM628.119 37.6504C628.184 39.2266 629.49 40.2168 631.506 40.2168C633.627 40.2168 634.934 39.1738 634.934 37.4688C634.934 36.1562 634.201 35.4238 632.502 35.0664L631.482 34.8496C630.492 34.6387 630.088 34.3398 630.088 33.8184C630.088 33.1738 630.674 32.7637 631.559 32.7637C632.414 32.7637 633.035 33.209 633.117 33.877H634.781C634.729 32.3711 633.41 31.3281 631.547 31.3281C629.596 31.3281 628.312 32.377 628.312 33.9707C628.312 35.2598 629.068 36.0625 630.609 36.3848L631.711 36.6191C632.748 36.8418 633.17 37.1523 633.17 37.6914C633.17 38.3301 632.52 38.7754 631.6 38.7754C630.604 38.7754 629.912 38.3359 629.83 37.6504H628.119ZM640.379 40V31.5449H638.609V40H640.379ZM646.123 40V34.709H646.229L650.131 40H651.596V31.5449H649.902V36.8125H649.797L645.906 31.5449H644.43V40H646.123ZM663.082 36.5488V35.4707H659.531V36.8008H661.365L661.359 36.9531C661.324 37.9727 660.521 38.6582 659.361 38.6582C657.967 38.6582 657.088 37.5566 657.088 35.7461C657.088 33.9707 657.926 32.8867 659.291 32.8867C660.275 32.8867 660.984 33.3848 661.248 34.2402H663.006C662.76 32.4824 661.289 31.3281 659.291 31.3281C656.83 31.3281 655.277 33.0391 655.277 35.7637C655.277 38.5293 656.818 40.2168 659.332 40.2168C661.641 40.2168 663.082 38.8105 663.082 36.5488Z" fill="white"/>
</svg>