<svg width="1600" height="566" viewBox="0 0 1600 566" fill="none" xmlns="http://www.w3.org/2000/svg">
<path d="M420.93 218.529L474.054 187.265V340.161H420.93V218.529Z" fill="#3F3F3F"/>
<path d="M1101.53 218.529L1154.66 187.265V340.161H1101.53V218.529Z" fill="#3F3F3F"/>
<path d="M43.834 218.769V340.673H96.963V187.526L43.834 218.769Z" fill="#3F3F3F"/>
<path d="M1539.82 266.139V187.526L1486.68 218.776V270.602C1486.68 320.733 1499.98 345.997 1556.2 345.997C1568.59 345.997 1587.18 344.209 1598.24 338.938V294.098C1591.59 298.972 1578.75 300.774 1569.47 300.774C1546.03 300.76 1539.82 287.423 1539.82 266.139Z" fill="#3F3F3F"/>
<path d="M313.384 311.452H312.029C297.028 335.338 272.201 346 243.885 346C204.473 346 166.402 324.259 166.402 282.142C166.402 212.932 246.978 208.051 300.102 208.051H313.384V202.283C313.384 176.105 293.017 162.357 264.674 162.357C242.53 162.357 222.21 171.231 208.002 184.555L180.122 156.603C203.588 132.65 236.794 122.432 270.403 122.432C361.174 122.432 361.175 188.098 361.175 218.289V340.682H313.384V311.452ZM310.285 245.282H299.235C269.981 245.282 219.533 247.546 219.533 278.135C219.533 297.637 239.43 306.088 256.704 306.088C293.003 306.088 310.264 287.009 310.264 257.301V245.288H310.285V245.282Z" fill="#3F3F3F"/>
<path d="M533.326 127.769H586.436V161.477H587.342C598.854 137.093 622.32 122.432 650.187 122.432C656.861 122.432 663.066 123.776 669.224 125.537V176.999C660.383 174.787 651.971 172.999 643.532 172.999C593.527 172.999 586.436 215.137 586.436 226.666V340.683H533.326V127.769Z" fill="#3F3F3F"/>
<path d="M711.219 127.763H761.666V161.013H762.565C771.843 141.067 792.19 122.432 827.623 122.432C860.38 122.432 882.967 135.286 894.036 161.934C909.513 134.862 932.086 122.432 963.978 122.432C1020.62 122.432 1040.54 162.801 1040.54 213.839V340.683H987.423V220.018C987.423 193.396 979.454 170.324 948.038 170.324C914.858 170.324 902.442 197.82 902.442 225.336V340.683H849.305V213.839C849.305 187.622 838.704 170.331 813.058 170.331C778.067 170.331 764.322 196.085 764.322 224.448V340.689H711.245V127.769H711.219V127.763Z" fill="#3F3F3F"/>
<path d="M1213.55 127.776H1264.03V161.933H1264.93C1274.65 140.603 1294.61 122.432 1330.01 122.432C1387.1 122.432 1407.47 162.801 1407.47 206.283V340.682H1354.35V232.865C1354.35 209.389 1352.58 170.344 1315.39 170.344C1280.46 170.344 1266.72 196.098 1266.72 224.461V340.702H1213.58V127.782H1213.55V127.776Z" fill="#3F3F3F"/>
<path d="M123.071 0C57.107 0 43.8184 38.5815 43.8184 97.573V127.996H96.9473V89.1694C96.9473 65.6536 101.348 45.2304 131.019 45.2304C138.56 45.2304 145.638 46.5879 153.145 48.3892L156.667 3.11916C145.638 0.88082 134.536 0 123.071 0Z" fill="#3F3F3F"/>
<path d="M1539.82 66.1045H1486.68V127.771H1539.82V66.1045Z" fill="#3F3F3F"/>
<path d="M146.233 127.993H0L0 173.29H146.233V127.993Z" fill="#00D1C1"/>
<path d="M1600 127.759H1442.85V173.068H1600V127.759Z" fill="#00D1C1"/>
<path d="M474.046 127.759H420.855V173.068H474.046V127.759Z" fill="#00D1C1"/>
<path d="M1154.69 127.759H1101.5V173.068H1154.69V127.759Z" fill="#00D1C1"/>
<path d="M1133.42 452.631V540H1146.98V510.574H1167.21C1184.34 510.574 1196.45 498.828 1196.45 481.754C1196.45 464.438 1184.7 452.631 1167.63 452.631H1133.42ZM1146.98 464.619H1164.06C1175.98 464.619 1182.58 470.674 1182.58 481.754C1182.58 492.592 1175.74 498.646 1164.06 498.646H1146.98V464.619ZM1213.43 540H1226.45V501.068C1226.45 491.805 1233.41 485.568 1243.28 485.568C1245.58 485.568 1249.46 485.992 1250.55 486.355V473.52C1249.16 473.156 1246.67 472.975 1244.74 472.975C1236.14 472.975 1228.81 477.697 1226.94 484.176H1225.97V474.064H1213.43V540ZM1289.45 483.873C1299.08 483.873 1305.38 490.594 1305.68 500.947H1272.38C1273.1 490.654 1279.82 483.873 1289.45 483.873ZM1305.62 522.199C1303.2 527.346 1297.81 530.191 1289.94 530.191C1279.52 530.191 1272.8 522.865 1272.38 511.301V510.574H1318.94V506.033C1318.94 485.326 1307.86 472.793 1289.51 472.793C1270.92 472.793 1259.12 486.174 1259.12 507.244C1259.12 528.314 1270.68 541.271 1289.57 541.271C1304.65 541.271 1315.18 534.006 1318.15 522.199H1305.62ZM1389.93 474.064H1376.12L1359.78 526.074H1358.75L1342.34 474.064H1328.41L1352.21 540H1366.2L1389.93 474.064ZM1404.37 540H1417.33V474.064H1404.37V540ZM1410.85 462.5C1415.69 462.5 1419.27 459.049 1419.27 454.568C1419.27 450.027 1415.69 446.576 1410.85 446.576C1406.01 446.576 1402.43 450.027 1402.43 454.568C1402.43 459.049 1406.01 462.5 1410.85 462.5ZM1464.53 483.873C1474.15 483.873 1480.45 490.594 1480.75 500.947H1447.45C1448.18 490.654 1454.9 483.873 1464.53 483.873ZM1480.69 522.199C1478.27 527.346 1472.88 530.191 1465.01 530.191C1454.6 530.191 1447.88 522.865 1447.45 511.301V510.574H1494.01V506.033C1494.01 485.326 1482.93 472.793 1464.59 472.793C1446 472.793 1434.19 486.174 1434.19 507.244C1434.19 528.314 1445.76 541.271 1464.65 541.271C1479.72 541.271 1490.26 534.006 1493.22 522.199H1480.69ZM1596 474.064H1582.99L1571.24 524.379H1570.21L1556.65 474.064H1544.18L1530.61 524.379H1529.64L1517.84 474.064H1504.64L1522.8 540H1536.18L1549.75 491.441H1550.78L1564.4 540H1577.9L1596 474.064Z" fill="#9E9E9E"/>
</svg>
