<svg width="20" height="20" viewBox="0 0 20 20" fill="none" xmlns="http://www.w3.org/2000/svg">
<path d="M10 2C5.58862 2 2 5.58862 2 10C2 14.4114 5.58862 18 10 18C14.4114 18 18 14.4114 18 10C18 5.58862 14.4114 2 10 2ZM10 17.3846C5.92831 17.3846 2.61538 14.0717 2.61538 10C2.61538 5.92831 5.92831 2.61538 10 2.61538C14.0717 2.61538 17.3846 5.92831 17.3846 10C17.3846 14.0717 14.0717 17.3846 10 17.3846Z" fill="#3F3F3F" stroke="#3F3F3F" stroke-width="0.5"/>
<path d="M10.0001 13.3848C9.82992 13.3848 9.69238 13.5223 9.69238 13.6925V14.3078C9.69238 14.478 9.82992 14.6155 10.0001 14.6155C10.1702 14.6155 10.3078 14.478 10.3078 14.3078V13.6925C10.3078 13.5223 10.1702 13.3848 10.0001 13.3848Z" fill="#3F3F3F" stroke="#3F3F3F" stroke-width="0.5"/>
<path d="M10.0344 4.76935C10.0227 4.76935 10.011 4.76904 9.99901 4.76904C9.34793 4.76904 8.73562 5.01981 8.27132 5.47797C7.7987 5.94412 7.53809 6.56658 7.53809 7.23058C7.53809 7.40074 7.67562 7.53827 7.84578 7.53827C8.01593 7.53827 8.15347 7.40074 8.15347 7.23058C8.15347 6.73274 8.34886 6.26566 8.70332 5.91612C9.05809 5.56627 9.53039 5.37304 10.0261 5.38474C10.9987 5.39827 11.8319 6.2315 11.8455 7.20412C11.8544 7.84535 11.5381 8.4355 10.999 8.7832C10.1805 9.3112 9.69193 10.2441 9.69193 11.2792V12.1537C9.69193 12.3238 9.82947 12.4614 9.99963 12.4614C10.1698 12.4614 10.3073 12.3238 10.3073 12.1537V11.2792C10.3073 10.4663 10.6999 9.70843 11.3325 9.30012C12.051 8.83674 12.4729 8.04997 12.4609 7.1955C12.4424 5.87643 11.3538 4.78781 10.0344 4.76935Z" fill="#3F3F3F" stroke="#3F3F3F" stroke-width="0.5"/>
</svg>
