<svg width="76" height="76" viewBox="0 0 76 76" fill="none" xmlns="http://www.w3.org/2000/svg">
<circle opacity="0.3" cx="38" cy="38" r="38" fill="#005560"/>
<path d="M59.4001 50.9051H16.5999C16.2688 50.9051 16 50.6363 16 50.3052V25.6949C16 25.3637 16.2688 25.0949 16.5999 25.0949H59.4001C59.7312 25.0949 60 25.3637 60 25.6949V50.3064C60 50.6375 59.7312 50.9051 59.4001 50.9051ZM17.1999 49.7052H58.8001V26.2948H17.1999V49.7052Z" fill="white"/>
<path d="M59.3999 31.3438C56.2851 31.3438 53.751 28.8097 53.751 25.6949C53.751 25.3637 54.0197 25.0949 54.3509 25.0949C54.6821 25.0949 54.9508 25.3637 54.9508 25.6949C54.9508 28.1486 56.9474 30.1439 59.3999 30.1439C59.7311 30.1439 59.9998 30.4127 59.9998 30.7439C59.9998 31.075 59.7311 31.3438 59.3999 31.3438Z" fill="white"/>
<path d="M54.3499 50.9051C54.0188 50.9051 53.75 50.6363 53.75 50.3051C53.75 47.1903 56.2841 44.6562 59.3989 44.6562C59.7301 44.6562 59.9989 44.925 59.9989 45.2561C59.9989 45.5873 59.7301 45.8561 59.3989 45.8561C56.9452 45.8561 54.9499 47.8526 54.9499 50.3051C54.9499 50.6375 54.6823 50.9051 54.3499 50.9051Z" fill="white"/>
<path d="M16.5999 31.3438C16.2688 31.3438 16 31.075 16 30.7439C16 30.4127 16.2688 30.1439 16.5999 30.1439C19.0536 30.1439 21.049 28.1474 21.049 25.6949C21.049 25.3637 21.3178 25.0949 21.6489 25.0949C21.9801 25.0949 22.2489 25.3637 22.2489 25.6949C22.2489 28.8097 19.7148 31.3438 16.5999 31.3438Z" fill="white"/>
<path d="M21.6489 50.9051C21.3178 50.9051 21.049 50.6363 21.049 50.3051C21.049 47.8514 19.0524 45.8561 16.5999 45.8561C16.2688 45.8561 16 45.5873 16 45.2561C16 44.925 16.2688 44.6562 16.5999 44.6562C19.7148 44.6562 22.2489 47.1903 22.2489 50.3051C22.2489 50.6375 21.9813 50.9051 21.6489 50.9051Z" fill="white"/>
<path d="M38.2526 44.2915C36.6099 44.2915 34.5546 43.268 33.6835 42.5769C33.4243 42.3717 33.3799 41.9938 33.5863 41.7346C33.7927 41.4754 34.1694 41.4311 34.4286 41.6374C35.1785 42.2314 36.9711 43.0917 38.2526 43.0917C39.4992 43.0917 41.3434 42.4257 41.3434 40.9943C41.3434 39.7165 40.0871 39.2125 38.4457 38.687L37.9598 38.5286C36.6615 38.0918 33.9619 37.1812 33.9619 34.995C33.9619 32.8821 35.6057 31.4626 38.051 31.4626C40.5155 31.4626 42.0609 32.7285 42.1257 32.7825C42.3801 32.9949 42.4149 33.3728 42.2013 33.6272C41.9901 33.8803 41.6134 33.9163 41.3578 33.7052C41.3338 33.686 40.0535 32.6625 38.0498 32.6625C36.268 32.6625 35.1605 33.5564 35.1605 34.995C35.1605 36.1625 36.7683 36.862 38.3413 37.3923L38.8093 37.5447C40.2947 38.0199 42.5408 38.7386 42.5408 40.9943C42.5432 43.2692 40.0343 44.2915 38.2526 44.2915Z" fill="white"/>
<path d="M38.0511 46.0781C37.7199 46.0781 37.4512 45.8093 37.4512 45.4782V30.5795C37.4512 30.2484 37.7199 29.9796 38.0511 29.9796C38.3823 29.9796 38.651 30.2484 38.651 30.5795V45.4782C38.651 45.8093 38.3823 46.0781 38.0511 46.0781Z" fill="white"/>
</svg>
