<svg width="76" height="76" viewBox="0 0 76 76" fill="none" xmlns="http://www.w3.org/2000/svg">
<circle opacity="0.3" cx="38" cy="38" r="38" fill="#005560"/>
<g clip-path="url(#clip0)">
<path d="M19.1762 44.7769C19.2986 45.1034 19.6088 45.3157 19.9353 45.3157C20.0251 45.3157 20.1149 45.2993 20.2047 45.2667C20.621 45.1197 20.8414 44.6545 20.6945 44.23C18.3027 37.5445 19.8945 30.2387 24.8576 25.1614C28.286 21.6513 32.8817 19.684 37.7877 19.6269C42.6854 19.5698 47.3301 21.4227 50.8402 24.8512L48.775 24.8757C48.326 24.8838 47.975 25.243 47.975 25.692C47.9832 26.1328 48.3423 26.4919 48.7831 26.4919H48.7913L52.8075 26.443C53.0197 26.443 53.2238 26.3532 53.3789 26.1981C53.5258 26.043 53.6074 25.8389 53.6074 25.6267L53.5584 21.6105C53.5503 21.1615 53.1911 20.7942 52.7421 20.8105C52.2932 20.8187 51.9422 21.1779 51.9422 21.6268L51.9667 23.692C48.1464 19.9616 43.1099 17.9453 37.7713 18.0025C32.4328 18.0759 27.4289 20.2065 23.6984 24.0267C21.0292 26.7613 19.2007 30.1816 18.4252 33.9039C17.666 37.5364 17.9272 41.2913 19.1762 44.7769Z" fill="white"/>
<path d="M51.1423 50.849C44.065 58.0977 32.4084 58.2283 25.1597 51.1592L27.2249 51.1347C27.6739 51.1266 28.0249 50.7674 28.0249 50.3184C28.0167 49.8777 27.6575 49.5185 27.2167 49.5185H27.2086L23.1924 49.5675C22.7435 49.5756 22.3925 49.9348 22.3925 50.3838L22.4414 54.3999C22.4496 54.8407 22.8088 55.1999 23.2496 55.1999H23.2577C23.7067 55.1917 24.0577 54.8326 24.0577 54.3836L24.0332 52.3184C27.9188 56.106 32.9553 57.9998 38 57.9998C43.1998 57.9998 48.3914 55.9917 52.3014 51.9918C54.9707 49.2573 56.7992 45.837 57.5747 42.1147C58.3338 38.4904 58.0726 34.7272 56.8237 31.2498C56.6768 30.8335 56.2115 30.6131 55.787 30.7601C55.3707 30.907 55.1503 31.3723 55.2972 31.7967C57.6971 38.4659 56.1054 45.7717 51.1423 50.849Z" fill="white"/>
</g>
<defs>
<clipPath id="clip0">
<rect width="40" height="40" fill="white" transform="translate(18 18)"/>
</clipPath>
</defs>
</svg>
