<svg width="76" height="76" viewBox="0 0 76 76" fill="none" xmlns="http://www.w3.org/2000/svg">
<circle opacity="0.3" cx="38" cy="38" r="38" fill="#005560"/>
<path d="M55.9388 38.2984L55.9082 38.3137L50.7435 25.4593H53.1001C53.5227 25.4593 53.8652 25.1167 53.8652 24.6942C53.8652 24.2716 53.5227 23.929 53.1001 23.929H38.7001V21.7177C38.7001 21.2952 38.3575 20.9526 37.935 20.9526C37.5124 20.9526 37.1698 21.2952 37.1698 21.7177V23.9214H22.7775C22.3549 23.9214 22.0123 24.264 22.0123 24.6865C22.0123 25.1091 22.3549 25.4517 22.7775 25.4517H25.2336L20.0612 38.2984C20.023 38.388 20.0022 38.4842 20 38.5815C20 42.0952 22.8484 44.9437 26.3622 44.9437C29.8759 44.9437 32.7243 42.0952 32.7243 38.5815C32.7221 38.4842 32.7014 38.388 32.6631 38.2984L27.4984 25.444H37.1698V49.1022C33.5201 49.3777 30.6661 51.5966 30.6661 54.2823C30.6661 54.7048 31.0087 55.0474 31.4312 55.0474H44.4387C44.8612 55.0474 45.2038 54.7048 45.2038 54.2823C45.2038 51.5966 42.3498 49.3777 38.7001 49.1022V25.444H48.471L43.3369 38.2984C43.2986 38.388 43.2779 38.4842 43.2757 38.5815C43.2757 42.0952 46.1241 44.9437 49.6378 44.9437C53.1516 44.9437 56 42.0952 56 38.5815C55.9978 38.4842 55.977 38.388 55.9388 38.2984ZM26.3583 43.4249C23.9885 43.4216 21.9702 41.7014 21.5915 39.362H31.0946C30.7177 41.69 28.7166 43.4067 26.3583 43.4249ZM30.8191 37.8317H21.9129L26.3736 26.7294L30.8191 37.8317ZM43.5358 53.5171H32.3265C32.8927 51.8721 35.2264 50.6019 37.9273 50.6019C40.6283 50.6019 42.9696 51.8721 43.5358 53.5171ZM49.6034 26.7371L54.0489 37.8317H45.1426L49.6034 26.7371ZM49.6034 43.4249V43.4325C47.2426 43.4137 45.2406 41.6931 44.8672 39.362H54.3702C53.9915 41.7014 51.9732 43.4216 49.6034 43.4249Z" fill="white"/>
</svg>
