<svg width="561" height="262" viewBox="0 0 561 262" fill="none" xmlns="http://www.w3.org/2000/svg">
<path opacity="0.3" fill-rule="evenodd" clip-rule="evenodd" d="M206.004 61.6014L276.37 131.921L206.004 202.241C167.141 241.077 104.133 241.077 65.2708 202.241C26.4085 163.404 26.4085 100.438 65.2708 61.6014C104.133 22.765 167.141 22.765 206.004 61.6014ZM61.0267 206.482C19.8205 165.303 19.8205 98.539 61.0267 57.3602C102.233 16.1814 169.041 16.1814 210.248 57.3602L280.614 127.68L282.292 129.356L283.964 127.686L354.33 57.3661C395.536 16.1873 462.345 16.1872 503.551 57.3661C544.757 98.5449 544.757 165.309 503.551 206.488C462.345 247.667 395.536 247.667 354.33 206.488L283.964 136.168L282.286 134.492L280.614 136.162L210.248 206.482C169.042 247.661 102.233 247.661 61.0267 206.482ZM288.208 131.927L358.574 61.6073C397.436 22.7709 460.445 22.7708 499.307 61.6073C538.169 100.444 538.169 163.41 499.307 202.247C460.445 241.083 397.436 241.083 358.574 202.247L288.208 131.927Z" fill="url(#paint0_radial)"/>
<path d="M202.446 29.4857C202.998 29.4872 203.447 29.0406 203.448 28.4884L203.472 19.4884C203.474 18.9361 203.027 18.4872 202.475 18.4857C201.923 18.4843 201.474 18.9308 201.472 19.4831L201.451 27.483L193.451 27.4617C192.899 27.4602 192.45 27.9067 192.448 28.459C192.447 29.0113 192.893 29.4602 193.446 29.4617L202.446 29.4857ZM136.29 2C161.882 2 185.036 12.3983 201.739 29.1909L203.157 27.7805C186.093 10.6253 162.435 0 136.29 0V2ZM70.8408 29.1909C87.5442 12.3983 110.698 2 136.29 2V0C110.145 0 86.4868 10.6253 69.4228 27.7805L70.8408 29.1909Z" fill="url(#paint1_linear)"/>
<path d="M365.242 29.4857C364.689 29.4856 364.242 29.0378 364.242 28.4856L364.243 19.4856C364.243 18.9333 364.691 18.4856 365.243 18.4857C365.796 18.4858 366.243 18.9335 366.243 19.4858L366.242 27.4858L374.242 27.4869C374.794 27.487 375.242 27.9348 375.242 28.487C375.242 29.0393 374.794 29.487 374.242 29.4869L365.242 29.4857ZM431.772 2C406.033 2 382.747 12.3997 365.949 29.1929L364.535 27.7785C381.694 10.6239 405.484 0 431.772 0V2ZM497.595 29.1929C480.797 12.3997 457.511 2 431.772 2V0C458.06 0 481.85 10.6239 499.009 27.7785L497.595 29.1929Z" fill="url(#paint2_linear)"/>
<path d="M532.493 60.9146C531.94 60.9164 531.494 61.3656 531.496 61.9179L531.526 70.9178C531.528 71.4701 531.977 71.9163 532.529 71.9145C533.082 71.9127 533.528 71.4634 533.526 70.9112L533.499 62.9112L541.499 62.8846C542.052 62.8827 542.498 62.4335 542.496 61.8812C542.494 61.329 542.045 60.8827 541.493 60.8846L532.493 60.9146ZM559 128.029C559 153.603 548.595 176.741 531.791 193.434L533.201 194.852C550.367 177.8 561 154.157 561 128.029L559 128.029ZM531.791 62.624C548.595 79.3162 559 102.455 559 128.029L561 128.029C561 101.901 550.367 78.2577 533.201 61.2051L531.791 62.624Z" fill="url(#paint3_linear)"/>
<path d="M29.504 61.9179C29.5058 61.3656 29.0596 60.9164 28.5073 60.9146L19.5074 60.8846C18.9551 60.8828 18.5059 61.329 18.504 61.8813C18.5022 62.4335 18.9484 62.8828 19.5007 62.8846L27.5007 62.9112L27.474 70.9112C27.4722 71.4635 27.9184 71.9127 28.4707 71.9145C29.023 71.9164 29.4722 71.4701 29.474 70.9179L29.504 61.9179ZM2 128.029C2 102.455 12.4049 79.3163 29.2087 62.624L27.7992 61.2051C10.6326 78.2577 1.10071e-06 101.901 7.88929e-07 128.029L2 128.029ZM29.2087 193.434C12.4049 176.741 2 153.603 2 128.029L7.88929e-07 128.029C4.77149e-07 154.157 10.6326 177.8 27.7992 194.853L29.2087 193.434Z" fill="url(#paint4_linear)"/>
<path d="M499.302 233.514C499.302 232.962 498.854 232.514 498.302 232.514L489.302 232.513C488.75 232.513 488.302 232.961 488.302 233.513C488.302 234.065 488.749 234.513 489.302 234.513L497.302 234.514L497.301 242.514C497.3 243.066 497.748 243.514 498.3 243.514C498.853 243.514 499.3 243.067 499.301 242.514L499.302 233.514ZM431.772 260C406.033 260 382.747 249.6 365.949 232.807L364.535 234.222C381.694 251.376 405.484 262 431.772 262L431.772 260ZM497.595 232.807C480.797 249.6 457.511 260 431.772 260L431.772 262C458.06 262 481.85 251.376 499.009 234.222L497.595 232.807Z" fill="url(#paint5_linear)"/>
<path d="M70.1319 232.514C69.5796 232.514 69.132 232.962 69.1321 233.514L69.1333 242.514C69.1333 243.067 69.5811 243.514 70.1334 243.514C70.6857 243.514 71.1333 243.066 71.1333 242.514L71.1322 234.514L79.1322 234.513C79.6845 234.513 80.1321 234.065 80.1321 233.513C80.132 232.961 79.6842 232.513 79.1319 232.513L70.1319 232.514ZM136.662 260C110.923 260 87.6368 249.6 70.8391 232.807L69.425 234.222C86.5843 251.376 110.374 262 136.662 262L136.662 260ZM202.485 232.807C185.687 249.6 162.401 260 136.662 260L136.662 262C162.95 262 186.74 251.376 203.899 234.222L202.485 232.807Z" fill="url(#paint6_linear)"/>
<defs>
<radialGradient id="paint0_radial" cx="0" cy="0" r="1" gradientUnits="userSpaceOnUse" gradientTransform="translate(282.289 131.924) rotate(90.1076) scale(160.648 384.171)">
<stop stop-color="#00AB9E"/>
<stop offset="1" stop-color="#1AFFED"/>
</radialGradient>
<linearGradient id="paint1_linear" x1="70.1318" y1="22.9143" x2="208.734" y2="28.431" gradientUnits="userSpaceOnUse">
<stop stop-color="#FF5722" stop-opacity="0"/>
<stop offset="1" stop-color="#FF5722"/>
</linearGradient>
<linearGradient id="paint2_linear" x1="498.302" y1="22.9143" x2="358.924" y2="28.4931" gradientUnits="userSpaceOnUse">
<stop stop-color="#FF5722" stop-opacity="0"/>
<stop offset="1" stop-color="#FF5722"/>
</linearGradient>
<linearGradient id="paint3_linear" x1="538.071" y1="61.9146" x2="532.565" y2="200.425" gradientUnits="userSpaceOnUse">
<stop stop-color="#FF5722"/>
<stop offset="0.86073" stop-color="#FF5722" stop-opacity="0"/>
</linearGradient>
<linearGradient id="paint4_linear" x1="22.9289" y1="194.143" x2="28.4346" y2="55.6328" gradientUnits="userSpaceOnUse">
<stop stop-color="#FF5722" stop-opacity="0"/>
<stop offset="1" stop-color="#FF5722"/>
</linearGradient>
<linearGradient id="paint5_linear" x1="498.302" y1="239.086" x2="358.924" y2="233.507" gradientUnits="userSpaceOnUse">
<stop stop-color="#FF5722"/>
<stop offset="0.86073" stop-color="#FF5722" stop-opacity="0"/>
</linearGradient>
<linearGradient id="paint6_linear" x1="203.192" y1="239.086" x2="63.8139" y2="233.507" gradientUnits="userSpaceOnUse">
<stop stop-color="#FF5722" stop-opacity="0"/>
<stop offset="1" stop-color="#FF5722"/>
</linearGradient>
</defs>
</svg>