<svg width="282" height="134" viewBox="0 0 282 134" fill="none" xmlns="http://www.w3.org/2000/svg">
<path opacity="0.3" fill-rule="evenodd" clip-rule="evenodd" d="M138.781 67.6416L138.609 67.4683L138.783 67.2925L103.793 31.9586C84.3737 12.3484 52.8887 12.3484 33.4693 31.9585C14.0499 51.5687 14.0499 83.363 33.4693 102.973C52.8887 122.583 84.3737 122.583 103.793 102.973L138.781 67.6416ZM140.892 69.7733L105.904 105.105C85.3188 125.892 51.9436 125.892 31.3584 105.105C10.7731 84.3173 10.7731 50.6143 31.3584 29.8269C51.9436 9.03947 85.3188 9.03948 105.904 29.8269L140.894 65.1608L175.882 29.8293C196.467 9.0419 229.843 9.04192 250.428 29.8293C271.013 50.6167 271.013 84.3198 250.428 105.107C229.843 125.895 196.467 125.895 175.882 105.107L140.892 69.7733ZM143.003 67.6416L177.993 102.975C197.412 122.586 228.898 122.586 248.317 102.976C267.736 83.3654 267.736 51.5711 248.317 31.961C228.898 12.3509 197.412 12.3508 177.993 31.961L143.005 67.2925L143.177 67.4658L143.003 67.6416Z" fill="url(#paint0_radial)"/>
<path d="M102 16.25C102.552 16.2543 103.003 15.8102 103.008 15.2579L103.078 6.25817C103.083 5.7059 102.639 5.25467 102.086 5.25031C101.534 5.24596 101.083 5.69013 101.079 6.24239L101.015 14.2421L93.0157 14.1791C92.4634 14.1747 92.0122 14.6189 92.0078 15.1711C92.0035 15.7234 92.4477 16.1746 92.9999 16.179L102 16.25ZM68.9571 2.375C81.6001 2.375 93.0398 7.5652 101.295 15.9515L102.72 14.5485C94.1063 5.79766 82.16 0.375 68.9571 0.375V2.375ZM36.6194 15.9515C44.8745 7.5652 56.3141 2.375 68.9571 2.375V0.375C55.7543 0.375 43.808 5.79766 35.1941 14.5485L36.6194 15.9515Z" fill="url(#paint1_linear)"/>
<path d="M183.339 16.25C182.787 16.2528 182.337 15.8074 182.334 15.2551L182.288 6.2552C182.285 5.70292 182.731 5.25294 183.283 5.25013C183.835 5.24732 184.285 5.69275 184.288 6.24503L184.329 14.2449L192.329 14.2043C192.881 14.2014 193.331 14.6469 193.334 15.1992C193.337 15.7514 192.891 16.2014 192.339 16.2042L183.339 16.25ZM216.57 2.375C203.853 2.375 192.347 7.56666 184.045 15.9535L182.623 14.5465C191.285 5.7962 203.297 0.375 216.57 0.375V2.375ZM249.095 15.9535C240.793 7.56666 229.288 2.375 216.57 2.375V0.375C229.844 0.375 241.855 5.7962 250.517 14.5465L249.095 15.9535Z" fill="url(#paint2_linear)"/>
<path d="M266.89 31.125C266.338 31.124 265.889 31.5708 265.888 32.1231L265.871 41.1231C265.87 41.6754 266.317 42.1239 266.869 42.125C267.422 42.126 267.87 41.6792 267.871 41.1269L267.886 33.1269L275.886 33.142C276.439 33.143 276.887 32.6962 276.888 32.1439C276.889 31.5916 276.443 31.143 275.89 31.142L266.89 31.125ZM279.628 65.5C279.628 78.2764 274.485 89.8329 266.18 98.1692L267.597 99.5808C276.262 90.8824 281.628 78.8233 281.628 65.5L279.628 65.5ZM266.18 32.8308C274.485 41.1671 279.628 52.7236 279.628 65.5L281.628 65.5C281.628 52.1767 276.262 40.1176 267.597 31.4192L266.18 32.8308Z" fill="url(#paint3_linear)"/>
<path d="M16.1111 32.1231C16.1101 31.5708 15.6615 31.124 15.1093 31.125L6.10927 31.142C5.55699 31.143 5.11012 31.5916 5.11116 32.1439C5.11221 32.6962 5.56076 33.143 6.11305 33.142L14.113 33.1269L14.1281 41.1269C14.1292 41.6792 14.5777 42.126 15.13 42.125C15.6823 42.1239 16.1292 41.6754 16.1281 41.1231L16.1111 32.1231ZM2.37109 65.5C2.37109 52.7236 7.5147 41.1671 15.8196 32.8308L14.4027 31.4192C5.73713 40.1176 0.371094 52.1767 0.371094 65.5L2.37109 65.5ZM15.8196 98.1692C7.5147 89.8329 2.37109 78.2764 2.37109 65.5L0.371094 65.5C0.371094 78.8233 5.73713 90.8824 14.4027 99.5808L15.8196 98.1692Z" fill="url(#paint4_linear)"/>
<path d="M250.806 118.745C250.803 118.193 250.353 117.747 249.801 117.75L240.801 117.796C240.249 117.799 239.803 118.249 239.806 118.801C239.809 119.353 240.259 119.799 240.811 119.796L248.811 119.755L248.852 127.755C248.855 128.307 249.305 128.753 249.857 128.75C250.409 128.747 250.855 128.297 250.852 127.745L250.806 118.745ZM216.57 131.625C203.853 131.625 192.347 126.433 184.045 118.046L182.623 119.454C191.285 128.204 203.297 133.625 216.57 133.625L216.57 131.625ZM249.095 118.047C240.793 126.433 229.288 131.625 216.57 131.625L216.57 133.625C229.844 133.625 241.855 128.204 250.517 119.454L249.095 118.047Z" fill="url(#paint5_linear)"/>
<path d="M35.9118 117.75C35.3595 117.747 34.9096 118.193 34.9068 118.745L34.861 127.745C34.8582 128.297 35.3036 128.747 35.8559 128.75C36.4082 128.753 36.8582 128.307 36.861 127.755L36.9016 119.755L44.9015 119.796C45.4538 119.799 45.9038 119.353 45.9066 118.801C45.9094 118.249 45.464 117.799 44.9117 117.796L35.9118 117.75ZM69.1428 131.625C56.4254 131.625 44.9194 126.433 36.6174 118.046L35.196 119.454C43.8578 128.204 55.8693 133.625 69.1428 133.625L69.1428 131.625ZM101.668 118.047C93.3662 126.433 81.8603 131.625 69.1428 131.625L69.1428 133.625C82.4164 133.625 94.4278 128.204 103.09 119.454L101.668 118.047Z" fill="url(#paint6_linear)"/>
<defs>
<radialGradient id="paint0_radial" cx="0" cy="0" r="1" gradientUnits="userSpaceOnUse" gradientTransform="translate(138.893 67.4667) rotate(90.1065) scale(81.0963 191.919)">
<stop stop-color="#00AB9E"/>
<stop offset="1" stop-color="#1AFFED"/>
</radialGradient>
<linearGradient id="paint1_linear" x1="35.9067" y1="12.4375" x2="105.15" y2="15.165" gradientUnits="userSpaceOnUse">
<stop stop-color="#FF5722" stop-opacity="0"/>
<stop offset="1" stop-color="#FF5722"/>
</linearGradient>
<linearGradient id="paint2_linear" x1="249.806" y1="12.4375" x2="180.175" y2="15.1956" gradientUnits="userSpaceOnUse">
<stop stop-color="#FF5722" stop-opacity="0"/>
<stop offset="1" stop-color="#FF5722"/>
</linearGradient>
<linearGradient id="paint3_linear" x1="269.674" y1="32.125" x2="266.865" y2="102.044" gradientUnits="userSpaceOnUse">
<stop stop-color="#FF5722"/>
<stop offset="0.86073" stop-color="#FF5722" stop-opacity="0"/>
</linearGradient>
<linearGradient id="paint4_linear" x1="12.326" y1="98.875" x2="15.1344" y2="28.9562" gradientUnits="userSpaceOnUse">
<stop stop-color="#FF5722" stop-opacity="0"/>
<stop offset="1" stop-color="#FF5722"/>
</linearGradient>
<linearGradient id="paint5_linear" x1="249.806" y1="121.562" x2="180.175" y2="118.804" gradientUnits="userSpaceOnUse">
<stop stop-color="#FF5722"/>
<stop offset="0.86073" stop-color="#FF5722" stop-opacity="0"/>
</linearGradient>
<linearGradient id="paint6_linear" x1="102.379" y1="121.562" x2="32.7481" y2="118.804" gradientUnits="userSpaceOnUse">
<stop stop-color="#FF5722" stop-opacity="0"/>
<stop offset="1" stop-color="#FF5722"/>
</linearGradient>
</defs>
</svg>