<svg width="452" height="442" viewBox="0 0 452 442" fill="none" xmlns="http://www.w3.org/2000/svg">
<g clip-path="url(#clip0)">
<path d="M12.75 118.21L11.76 118.06L13.08 109.6L19.64 115.23L18.99 115.99L13.79 111.53L12.75 118.21Z" fill="#81D4FA"/>
<path d="M13.9483 110.375L13.0071 110.713L17.0331 121.932L17.9743 121.595L13.9483 110.375Z" fill="#81D4FA"/>
<path d="M63.67 99.9501L62.68 99.7901L64 91.3301L70.56 96.9601L69.91 97.7201L64.71 93.2601L63.67 99.9501Z" fill="#81D4FA"/>
<path d="M64.7817 92.1585L63.8405 92.4961L67.8645 103.716L68.8058 103.379L64.7817 92.1585Z" fill="#81D4FA"/>
<path d="M114.59 81.6803L113.6 81.5303L114.92 73.0703L121.48 78.6903L120.83 79.4503L115.63 75.0003L114.59 81.6803Z" fill="#81D4FA"/>
<path d="M115.705 73.8909L114.763 74.2285L118.787 85.4488L119.729 85.1112L115.705 73.8909Z" fill="#81D4FA"/>
<path d="M165.51 63.4098L164.52 63.2598L165.84 54.7998L172.4 60.4298L171.75 61.1898L166.55 56.7298L165.51 63.4098Z" fill="#81D4FA"/>
<path d="M166.628 55.6233L165.686 55.9609L169.71 67.1811L170.652 66.8436L166.628 55.6233Z" fill="#81D4FA"/>
<path d="M216.44 45.1503L215.45 44.9903L216.76 36.5303L223.32 42.1603L222.67 42.9203L217.47 38.4603L216.44 45.1503Z" fill="#81D4FA"/>
<path d="M217.554 37.3655L216.613 37.7031L220.637 48.9233L221.578 48.5857L217.554 37.3655Z" fill="#81D4FA"/>
<path d="M267.36 26.8795L266.37 26.7295L267.68 18.2695L274.24 23.8895L273.59 24.6495L268.39 20.1995L267.36 26.8795Z" fill="#81D4FA"/>
<path d="M268.467 19.098L267.526 19.4355L271.55 30.6558L272.491 30.3182L268.467 19.098Z" fill="#81D4FA"/>
<path d="M318.28 8.61L317.29 8.46L318.6 0L325.16 5.63L324.51 6.38L319.31 1.93L318.28 8.61Z" fill="#81D4FA"/>
<path d="M319.39 0.830381L318.449 1.16797L322.473 12.3882L323.414 12.0506L319.39 0.830381Z" fill="#81D4FA"/>
<path d="M-0.910034 158.5L-1.90002 158.34L-0.590027 149.88L5.96997 155.51L5.31998 156.27L0.119965 151.81L-0.910034 158.5Z" fill="#81D4FA"/>
<path d="M0.285717 150.652L-0.655518 150.99L3.37051 162.21L4.31174 161.872L0.285717 150.652Z" fill="#81D4FA"/>
<path d="M50.01 140.23L49.02 140.07L50.33 131.62L56.89 137.24L56.24 138L51.04 133.54L50.01 140.23Z" fill="#81D4FA"/>
<path d="M51.1123 132.438L50.171 132.775L54.1951 143.996L55.1364 143.658L51.1123 132.438Z" fill="#81D4FA"/>
<path d="M100.93 121.96L99.94 121.81L101.25 113.35L107.81 118.97L107.16 119.73L101.97 115.28L100.93 121.96Z" fill="#81D4FA"/>
<path d="M102.035 114.171L101.094 114.509L105.118 125.729L106.059 125.391L102.035 114.171Z" fill="#81D4FA"/>
<path d="M151.85 103.69L150.86 103.54L152.17 95.0801L158.73 100.71L158.08 101.47L152.89 97.0101L151.85 103.69Z" fill="#81D4FA"/>
<path d="M152.948 95.9036L152.007 96.2412L156.031 107.461L156.972 107.124L152.948 95.9036Z" fill="#81D4FA"/>
<path d="M202.77 85.4296L201.78 85.2696L203.1 76.8096L209.65 82.4396L209 83.1996L203.81 78.7396L202.77 85.4296Z" fill="#81D4FA"/>
<path d="M203.875 77.6448L202.933 77.9824L206.957 89.2027L207.899 88.8651L203.875 77.6448Z" fill="#81D4FA"/>
<path d="M253.69 67.1598L252.7 67.0098L254.02 58.5498L260.58 64.1698L259.93 64.9298L254.73 60.4798L253.69 67.1598Z" fill="#81D4FA"/>
<path d="M254.798 59.3782L253.856 59.7158L257.88 70.936L258.822 70.5984L254.798 59.3782Z" fill="#81D4FA"/>
<path d="M304.61 48.8903L303.62 48.7403L304.94 40.2803L311.5 45.9103L310.85 46.6703L305.65 42.2103L304.61 48.8903Z" fill="#81D4FA"/>
<path d="M305.72 41.1204L304.779 41.458L308.803 52.6782L309.745 52.3406L305.72 41.1204Z" fill="#81D4FA"/>
<path d="M355.53 30.6298L354.54 30.4698L355.86 22.0098L362.42 27.6398L361.77 28.3998L356.57 23.9398L355.53 30.6298Z" fill="#81D4FA"/>
<path d="M356.656 22.8587L355.715 23.1963L359.739 34.4166L360.68 34.079L356.656 22.8587Z" fill="#81D4FA"/>
<path d="M34.71 181.8L33.72 181.64L35.03 173.18L41.59 178.81L40.94 179.57L35.75 175.11L34.71 181.8Z" fill="#81D4FA"/>
<path d="M35.9056 173.962L34.9644 174.3L38.9904 185.519L39.9316 185.182L35.9056 173.962Z" fill="#81D4FA"/>
<path d="M85.63 163.53L84.64 163.38L85.96 154.92L92.52 160.54L91.87 161.3L86.67 156.84L85.63 163.53Z" fill="#81D4FA"/>
<path d="M86.8225 155.687L85.8812 156.024L89.9072 167.244L90.8485 166.906L86.8225 155.687Z" fill="#81D4FA"/>
<path d="M136.55 145.26L135.56 145.11L136.88 136.65L143.44 142.28L142.79 143.03L137.59 138.58L136.55 145.26Z" fill="#81D4FA"/>
<path d="M137.749 137.412L136.808 137.75L140.834 148.97L141.775 148.632L137.749 137.412Z" fill="#81D4FA"/>
<path d="M187.47 127L186.48 126.84L187.8 118.38L194.36 124.01L193.71 124.77L188.51 120.31L187.47 127Z" fill="#81D4FA"/>
<path d="M188.576 119.22L187.635 119.558L191.659 130.778L192.6 130.44L188.576 119.22Z" fill="#81D4FA"/>
<path d="M238.39 108.73L237.4 108.58L238.72 100.12L245.28 105.74L244.63 106.5L239.43 102.04L238.39 108.73Z" fill="#81D4FA"/>
<path d="M239.509 100.95L238.567 101.287L242.591 112.507L243.533 112.17L239.509 100.95Z" fill="#81D4FA"/>
<path d="M289.31 90.4596L288.32 90.3096L289.64 81.8496L296.2 87.4696L295.55 88.2296L290.35 83.7796L289.31 90.4596Z" fill="#81D4FA"/>
<path d="M290.432 82.6819L289.49 83.0195L293.514 94.2397L294.456 93.9022L290.432 82.6819Z" fill="#81D4FA"/>
<path d="M340.23 72.1901L339.25 72.0401L340.56 63.5801L347.12 69.2101L346.47 69.9701L341.27 65.5101L340.23 72.1901Z" fill="#81D4FA"/>
<path d="M341.345 64.4144L340.403 64.752L344.427 75.9722L345.369 75.6346L341.345 64.4144Z" fill="#81D4FA"/>
<path d="M21.04 222.08L20.06 221.92L21.37 213.46L27.93 219.09L27.28 219.85L22.08 215.39L21.04 222.08Z" fill="#81D4FA"/>
<path d="M22.2529 214.238L21.3117 214.576L25.3377 225.796L26.2789 225.458L22.2529 214.238Z" fill="#81D4FA"/>
<path d="M71.96 203.81L70.98 203.66L72.29 195.2L78.85 200.82L78.2 201.58L73 197.13L71.96 203.81Z" fill="#81D4FA"/>
<path d="M73.1699 195.964L72.2286 196.302L76.2547 207.521L77.1959 207.184L73.1699 195.964Z" fill="#81D4FA"/>
<path d="M122.88 185.54L121.9 185.39L123.21 176.93L129.77 182.56L129.12 183.31L123.92 178.86L122.88 185.54Z" fill="#81D4FA"/>
<path d="M124.087 177.699L123.146 178.037L127.172 189.257L128.113 188.919L124.087 177.699Z" fill="#81D4FA"/>
<path d="M173.81 167.28L172.82 167.12L174.13 158.66L180.69 164.29L180.04 165.05L174.85 160.59L173.81 167.28Z" fill="#81D4FA"/>
<path d="M174.916 159.496L173.975 159.834L177.999 171.054L178.94 170.717L174.916 159.496Z" fill="#81D4FA"/>
<path d="M224.73 149.01L223.74 148.86L225.05 140.4L231.61 146.02L230.96 146.78L225.77 142.32L224.73 149.01Z" fill="#81D4FA"/>
<path d="M225.839 141.23L224.898 141.567L228.922 152.788L229.863 152.45L225.839 141.23Z" fill="#81D4FA"/>
<path d="M275.65 130.74L274.66 130.59L275.97 122.13L282.53 127.76L281.88 128.51L276.69 124.06L275.65 130.74Z" fill="#81D4FA"/>
<path d="M276.752 122.962L275.811 123.3L279.835 134.52L280.776 134.182L276.752 122.962Z" fill="#81D4FA"/>
<path d="M326.57 112.48L325.58 112.32L326.89 103.86L333.45 109.49L332.8 110.25L327.61 105.79L326.57 112.48Z" fill="#81D4FA"/>
<path d="M327.679 104.703L326.737 105.041L330.761 116.261L331.703 115.924L327.679 104.703Z" fill="#81D4FA"/>
<path d="M377.49 94.2096L376.5 94.0596L377.82 85.5996L384.38 91.2196L383.73 91.9796L378.53 87.5296L377.49 94.2096Z" fill="#81D4FA"/>
<path d="M378.601 86.4368L377.66 86.7744L381.684 97.9946L382.625 97.657L378.601 86.4368Z" fill="#81D4FA"/>
<path d="M6.17 260.65L5.19 260.5L6.5 252.04L13.06 257.67L12.41 258.42L7.21001 253.97L6.17 260.65Z" fill="#81D4FA"/>
<path d="M7.26783 252.856L6.32654 253.193L10.3506 264.414L11.2919 264.076L7.26783 252.856Z" fill="#81D4FA"/>
<path d="M57.09 242.38L56.11 242.23L57.42 233.77L63.98 239.4L63.33 240.16L58.13 235.7L57.09 242.38Z" fill="#81D4FA"/>
<path d="M58.1907 234.588L57.2495 234.926L61.2735 246.146L62.2148 245.808L58.1907 234.588Z" fill="#81D4FA"/>
<path d="M108.02 224.12L107.03 223.97L108.34 215.51L114.9 221.13L114.25 221.89L109.05 217.43L108.02 224.12Z" fill="#81D4FA"/>
<path d="M109.107 216.34L108.166 216.678L112.19 227.898L113.131 227.56L109.107 216.34Z" fill="#81D4FA"/>
<path d="M158.94 205.85L157.95 205.7L159.26 197.24L165.82 202.87L165.17 203.62L159.98 199.17L158.94 205.85Z" fill="#81D4FA"/>
<path d="M160.03 198.073L159.089 198.41L163.113 209.63L164.054 209.293L160.03 198.073Z" fill="#81D4FA"/>
<path d="M209.86 187.59L208.87 187.43L210.18 178.97L216.74 184.6L216.09 185.36L210.9 180.9L209.86 187.59Z" fill="#81D4FA"/>
<path d="M210.953 179.805L210.012 180.143L214.036 191.363L214.977 191.025L210.953 179.805Z" fill="#81D4FA"/>
<path d="M260.78 169.32L259.79 169.16L261.1 160.71L267.67 166.33L267.01 167.09L261.82 162.63L260.78 169.32Z" fill="#81D4FA"/>
<path d="M261.975 161.47L261.034 161.808L265.06 173.027L266.001 172.689L261.975 161.47Z" fill="#81D4FA"/>
<path d="M311.7 151.05L310.71 150.9L312.02 142.44L318.58 148.06L317.93 148.82L312.74 144.37L311.7 151.05Z" fill="#81D4FA"/>
<path d="M312.892 143.194L311.951 143.532L315.977 154.752L316.918 154.414L312.892 143.194Z" fill="#81D4FA"/>
<path d="M362.62 132.78L361.63 132.63L362.94 124.17L369.51 129.8L368.86 130.56L363.66 126.1L362.62 132.78Z" fill="#81D4FA"/>
<path d="M363.809 124.92L362.868 125.258L366.894 136.477L367.835 136.14L363.809 124.92Z" fill="#81D4FA"/>
<path d="M43.43 280.67L42.44 280.51L43.75 272.05L50.31 277.68L49.66 278.44L44.47 273.98L43.43 280.67Z" fill="#81D4FA"/>
<path d="M44.5195 272.885L43.5782 273.223L47.6023 284.443L48.5436 284.105L44.5195 272.885Z" fill="#81D4FA"/>
<path d="M94.35 262.4L93.36 262.25L94.68 253.79L101.24 259.41L100.59 260.17L95.39 255.72L94.35 262.4Z" fill="#81D4FA"/>
<path d="M95.4425 254.617L94.5012 254.955L98.5252 266.175L99.4665 265.838L95.4425 254.617Z" fill="#81D4FA"/>
<path d="M145.27 244.13L144.28 243.98L145.6 235.52L152.16 241.15L151.51 241.91L146.31 237.45L145.27 244.13Z" fill="#81D4FA"/>
<path d="M146.365 236.35L145.424 236.688L149.448 247.908L150.389 247.57L146.365 236.35Z" fill="#81D4FA"/>
<path d="M196.19 225.87L195.2 225.71L196.52 217.25L203.08 222.88L202.43 223.64L197.23 219.18L196.19 225.87Z" fill="#81D4FA"/>
<path d="M197.381 218.022L196.44 218.359L200.466 229.579L201.407 229.241L197.381 218.022Z" fill="#81D4FA"/>
<path d="M247.11 207.6L246.13 207.45L247.44 198.99L254 204.61L253.35 205.37L248.15 200.91L247.11 207.6Z" fill="#81D4FA"/>
<path d="M248.307 199.743L247.366 200.081L251.392 211.301L252.333 210.963L248.307 199.743Z" fill="#81D4FA"/>
<path d="M298.03 189.33L297.05 189.18L298.36 180.72L304.92 186.34L304.27 187.1L299.07 182.65L298.03 189.33Z" fill="#81D4FA"/>
<path d="M299.234 181.469L298.293 181.807L302.319 193.026L303.26 192.688L299.234 181.469Z" fill="#81D4FA"/>
<path d="M348.95 171.06L347.97 170.91L349.28 162.45L355.84 168.08L355.19 168.84L349.99 164.38L348.95 171.06Z" fill="#81D4FA"/>
<path d="M350.063 163.295L349.122 163.633L353.146 174.853L354.087 174.515L350.063 163.295Z" fill="#81D4FA"/>
<path d="M399.88 152.8L398.89 152.65L400.2 144.19L406.76 149.81L406.11 150.57L400.91 146.11L399.88 152.8Z" fill="#81D4FA"/>
<path d="M400.986 145.029L400.045 145.366L404.069 156.586L405.01 156.249L400.986 145.029Z" fill="#81D4FA"/>
<path d="M29.13 321.23L28.14 321.08L29.46 312.62L36.02 318.25L35.37 319.01L30.17 314.55L29.13 321.23Z" fill="#81D4FA"/>
<path d="M30.2216 313.442L29.2803 313.779L33.3043 325L34.2456 324.662L30.2216 313.442Z" fill="#81D4FA"/>
<path d="M80.05 302.97L79.06 302.81L80.38 294.35L86.94 299.98L86.29 300.74L81.09 296.28L80.05 302.97Z" fill="#81D4FA"/>
<path d="M81.1473 295.18L80.2061 295.518L84.2301 306.738L85.1714 306.4L81.1473 295.18Z" fill="#81D4FA"/>
<path d="M130.97 284.7L129.99 284.55L131.3 276.09L137.86 281.71L137.21 282.47L132.01 278.02L130.97 284.7Z" fill="#81D4FA"/>
<path d="M132.07 276.912L131.129 277.25L135.153 288.47L136.094 288.133L132.07 276.912Z" fill="#81D4FA"/>
<path d="M181.89 266.43L180.91 266.28L182.22 257.82L188.78 263.45L188.13 264.21L182.93 259.75L181.89 266.43Z" fill="#81D4FA"/>
<path d="M182.993 258.655L182.052 258.992L186.076 270.212L187.017 269.875L182.993 258.655Z" fill="#81D4FA"/>
<path d="M232.81 248.17L231.83 248.01L233.14 239.55L239.7 245.18L239.05 245.94L233.85 241.48L232.81 248.17Z" fill="#81D4FA"/>
<path d="M233.91 240.397L232.968 240.734L236.992 251.955L237.934 251.617L233.91 240.397Z" fill="#81D4FA"/>
<path d="M283.74 229.9L282.75 229.75L284.06 221.29L290.62 226.91L289.97 227.67L284.77 223.22L283.74 229.9Z" fill="#81D4FA"/>
<path d="M284.832 222.129L283.891 222.467L287.915 233.687L288.857 233.349L284.832 222.129Z" fill="#81D4FA"/>
<path d="M334.66 211.63L333.67 211.48L334.98 203.02L341.54 208.65L340.89 209.41L335.69 204.95L334.66 211.63Z" fill="#81D4FA"/>
<path d="M335.755 203.862L334.814 204.199L338.838 215.419L339.78 215.082L335.755 203.862Z" fill="#81D4FA"/>
<path d="M385.58 193.37L384.59 193.21L385.9 184.75L392.46 190.38L391.81 191.14L386.62 186.68L385.58 193.37Z" fill="#81D4FA"/>
<path d="M386.774 185.505L385.833 185.843L389.859 197.062L390.801 196.725L386.774 185.505Z" fill="#81D4FA"/>
<path d="M15.47 359.51L14.48 359.36L15.79 350.9L22.35 356.53L21.7 357.29L16.5 352.83L15.47 359.51Z" fill="#81D4FA"/>
<path d="M16.5564 351.715L15.6151 352.053L19.6392 363.273L20.5805 362.935L16.5564 351.715Z" fill="#81D4FA"/>
<path d="M66.39 341.25L65.4 341.1L66.71 332.63L73.27 338.26L72.62 339.02L67.43 334.56L66.39 341.25Z" fill="#81D4FA"/>
<path d="M67.4827 333.467L66.5414 333.805L70.5654 345.025L71.5067 344.687L67.4827 333.467Z" fill="#81D4FA"/>
<path d="M117.31 322.98L116.32 322.83L117.63 314.37L124.19 320L123.54 320.75L118.35 316.3L117.31 322.98Z" fill="#81D4FA"/>
<path d="M118.396 315.2L117.454 315.537L121.478 326.757L122.42 326.42L118.396 315.2Z" fill="#81D4FA"/>
<path d="M168.23 304.71L167.24 304.56L168.55 296.1L175.12 301.73L174.46 302.49L169.27 298.03L168.23 304.71Z" fill="#81D4FA"/>
<path d="M169.319 296.933L168.377 297.271L172.401 308.491L173.343 308.153L169.319 296.933Z" fill="#81D4FA"/>
<path d="M219.15 286.45L218.16 286.3L219.48 277.83L226.04 283.46L225.38 284.22L220.19 279.76L219.15 286.45Z" fill="#81D4FA"/>
<path d="M220.245 278.674L219.304 279.012L223.328 290.232L224.269 289.894L220.245 278.674Z" fill="#81D4FA"/>
<path d="M270.07 268.18L269.08 268.03L270.4 259.57L276.96 265.19L276.31 265.95L271.11 261.5L270.07 268.18Z" fill="#81D4FA"/>
<path d="M271.158 260.407L270.217 260.744L274.241 271.964L275.182 271.627L271.158 260.407Z" fill="#81D4FA"/>
<path d="M320.99 249.91L320 249.76L321.32 241.3L327.88 246.93L327.23 247.69L322.03 243.23L320.99 249.91Z" fill="#81D4FA"/>
<path d="M322.081 242.14L321.14 242.478L325.164 253.698L326.105 253.36L322.081 242.14Z" fill="#81D4FA"/>
<path d="M371.91 231.65L370.92 231.49L372.24 223.03L378.8 228.66L378.15 229.42L372.95 224.96L371.91 231.65Z" fill="#81D4FA"/>
<path d="M373.116 223.789L372.175 224.127L376.201 235.346L377.142 235.009L373.116 223.789Z" fill="#81D4FA"/>
<path d="M422.83 213.38L421.85 213.23L423.16 204.77L429.72 210.39L429.07 211.15L423.87 206.7L422.83 213.38Z" fill="#81D4FA"/>
<path d="M424.033 205.514L423.092 205.852L427.118 217.071L428.059 216.733L424.033 205.514Z" fill="#81D4FA"/>
<path d="M1.38002 398.32L0.390015 398.16L1.71002 389.7L8.27002 395.33L7.62001 396.09L2.42001 391.63L1.38002 398.32Z" fill="#81D4FA"/>
<path d="M2.45533 390.534L1.51404 390.871L5.53806 402.091L6.47936 401.754L2.45533 390.534Z" fill="#81D4FA"/>
<path d="M52.3 380.05L51.31 379.9L52.63 371.44L59.19 377.06L58.54 377.82L53.34 373.37L52.3 380.05Z" fill="#81D4FA"/>
<path d="M53.3877 372.263L52.4464 372.601L56.4704 383.821L57.4117 383.483L53.3877 372.263Z" fill="#81D4FA"/>
<path d="M103.22 361.78L102.23 361.63L103.55 353.17L110.11 358.8L109.46 359.55L104.26 355.1L103.22 361.78Z" fill="#81D4FA"/>
<path d="M104.311 353.995L103.369 354.333L107.393 365.553L108.335 365.216L104.311 353.995Z" fill="#81D4FA"/>
<path d="M154.14 343.51L153.15 343.36L154.47 334.9L161.03 340.53L160.38 341.29L155.18 336.83L154.14 343.51Z" fill="#81D4FA"/>
<path d="M155.237 335.738L154.296 336.075L158.32 347.295L159.261 346.958L155.237 335.738Z" fill="#81D4FA"/>
<path d="M205.06 325.25L204.08 325.1L205.39 316.64L211.95 322.26L211.3 323.02L206.1 318.56L205.06 325.25Z" fill="#81D4FA"/>
<path d="M206.16 317.47L205.219 317.808L209.243 329.028L210.184 328.69L206.16 317.47Z" fill="#81D4FA"/>
<path d="M255.99 306.98L255 306.83L256.31 298.37L262.87 304L262.22 304.75L257.02 300.3L255.99 306.98Z" fill="#81D4FA"/>
<path d="M257.083 299.202L256.142 299.54L260.166 310.76L261.107 310.423L257.083 299.202Z" fill="#81D4FA"/>
<path d="M306.91 288.71L305.92 288.56L307.23 280.1L313.79 285.73L313.14 286.49L307.94 282.03L306.91 288.71Z" fill="#81D4FA"/>
<path d="M308.006 280.935L307.065 281.272L311.089 292.493L312.03 292.155L308.006 280.935Z" fill="#81D4FA"/>
<path d="M357.83 270.45L356.84 270.3L358.15 261.83L364.71 267.46L364.06 268.22L358.87 263.76L357.83 270.45Z" fill="#81D4FA"/>
<path d="M358.922 262.687L357.981 263.024L362.005 274.245L362.946 273.907L358.922 262.687Z" fill="#81D4FA"/>
<path d="M408.75 252.18L407.76 252.03L409.07 243.57L415.63 249.19L414.98 249.95L409.79 245.5L408.75 252.18Z" fill="#81D4FA"/>
<path d="M409.845 244.419L408.904 244.757L412.928 255.977L413.869 255.64L409.845 244.419Z" fill="#81D4FA"/>
<path d="M37.64 419.33L36.65 419.18L37.96 410.72L44.52 416.34L43.87 417.1L38.68 412.65L37.64 419.33Z" fill="#81D4FA"/>
<path d="M38.7194 411.549L37.7781 411.887L41.8022 423.107L42.7435 422.769L38.7194 411.549Z" fill="#81D4FA"/>
<path d="M88.56 401.06L87.57 400.91L88.88 392.45L95.44 398.08L94.79 398.83L89.6 394.38L88.56 401.06Z" fill="#81D4FA"/>
<path d="M89.6423 393.282L88.701 393.619L92.7251 404.839L93.6664 404.502L89.6423 393.282Z" fill="#81D4FA"/>
<path d="M139.48 382.8L138.49 382.64L139.8 374.18L146.36 379.81L145.71 380.57L140.52 376.11L139.48 382.8Z" fill="#81D4FA"/>
<path d="M140.559 375.024L139.617 375.361L143.641 386.581L144.583 386.244L140.559 375.024Z" fill="#81D4FA"/>
<path d="M190.4 364.53L189.41 364.38L190.73 355.92L197.29 361.54L196.63 362.3L191.44 357.85L190.4 364.53Z" fill="#81D4FA"/>
<path d="M191.482 356.756L190.54 357.094L194.564 368.314L195.506 367.976L191.482 356.756Z" fill="#81D4FA"/>
<path d="M241.32 346.26L240.33 346.11L241.65 337.65L248.21 343.28L247.56 344.04L242.36 339.58L241.32 346.26Z" fill="#81D4FA"/>
<path d="M242.415 338.489L241.473 338.826L245.497 350.046L246.439 349.709L242.415 338.489Z" fill="#81D4FA"/>
<path d="M292.24 328L291.25 327.84L292.57 319.38L299.13 325.01L298.48 325.77L293.28 321.31L292.24 328Z" fill="#81D4FA"/>
<path d="M293.341 320.231L292.4 320.568L296.424 331.789L297.365 331.451L293.341 320.231Z" fill="#81D4FA"/>
<path d="M343.16 309.73L342.17 309.58L343.49 301.12L350.05 306.74L349.4 307.5L344.2 303.04L343.16 309.73Z" fill="#81D4FA"/>
<path d="M344.254 301.963L343.313 302.301L347.337 313.521L348.278 313.183L344.254 301.963Z" fill="#81D4FA"/>
<path d="M394.08 291.46L393.09 291.31L394.41 282.85L400.97 288.48L400.32 289.24L395.12 284.78L394.08 291.46Z" fill="#81D4FA"/>
<path d="M395.186 283.693L394.245 284.03L398.269 295.25L399.21 294.913L395.186 283.693Z" fill="#81D4FA"/>
<path d="M445 273.2L444.01 273.04L445.33 264.58L451.89 270.21L451.24 270.97L446.04 266.51L445 273.2Z" fill="#81D4FA"/>
<path d="M446.113 265.435L445.171 265.772L449.195 276.993L450.137 276.655L446.113 265.435Z" fill="#81D4FA"/>
</g>
<defs>
<clipPath id="clip0">
<rect width="592.89" height="441.34" fill="white" transform="translate(-141)"/>
</clipPath>
</defs>
</svg>
