<svg width="754" height="352" viewBox="0 0 754 352" fill="none" xmlns="http://www.w3.org/2000/svg">
<path opacity="0.3" fill-rule="evenodd" clip-rule="evenodd" d="M278.25 81.1124L374.377 177.24L278.25 273.368C225.16 326.458 139.084 326.458 85.9939 273.368C32.904 220.278 32.904 134.202 85.9939 81.1124C139.084 28.0224 225.16 28.0224 278.25 81.1124ZM81.7513 277.611C26.3182 222.178 26.3182 132.303 81.7513 76.8697C137.184 21.4366 227.059 21.4367 282.492 76.8697L378.62 172.998L379.409 173.787L380.192 173.005L476.319 76.8771C531.753 21.444 621.627 21.444 677.06 76.8771C732.493 132.31 732.493 222.185 677.06 277.618C621.627 333.051 531.753 333.051 476.319 277.618L380.192 181.49L379.402 180.701L378.62 181.483L282.492 277.611C227.059 333.044 137.184 333.044 81.7513 277.611ZM384.434 177.248L480.562 81.1197C533.652 28.0298 619.728 28.0298 672.818 81.1197C725.908 134.21 725.908 220.285 672.818 273.375C619.728 326.465 533.652 326.465 480.562 273.375L384.434 177.248Z" fill="url(#paint0_radial)"/>
<path d="M271.997 39C272.549 39.0017 272.998 38.5553 273 38.003L273.027 29.003C273.029 28.4508 272.582 28.0017 272.03 28C271.478 27.9984 271.029 28.4448 271.027 28.997L271.003 36.997L263.003 36.973C262.451 36.9714 262.002 37.4177 262 37.97C261.998 38.5223 262.445 38.9713 262.997 38.973L271.997 39ZM183 2C217.523 2 248.758 16.0368 271.291 38.705L272.709 37.295C249.816 14.2642 218.076 0 183 0V2ZM94.7092 38.705C117.242 16.0368 148.477 2 183 2V0C147.924 0 116.184 14.2642 93.2908 37.295L94.7092 38.705Z" fill="url(#paint1_linear)"/>
<path d="M491 39C490.448 39.0001 490 38.5525 490 38.0002L489.998 29.0002C489.998 28.4479 490.446 28.0001 490.998 28C491.55 27.9999 491.998 28.4475 491.998 28.9998L492 36.9998L500 36.9982C500.552 36.9981 501 37.4457 501 37.998C501 38.5503 500.552 38.9981 500 38.9982L491 39ZM580.5 2C545.78 2 514.367 16.0382 491.707 38.707L490.293 37.293C513.314 14.2628 545.23 0 580.5 0V2ZM669.293 38.707C646.633 16.0382 615.22 2 580.5 2V0C615.77 0 647.686 14.2628 670.707 37.293L669.293 38.707Z" fill="url(#paint2_linear)"/>
<path d="M715.997 82C715.445 82.0017 714.998 82.4507 715 83.003L715.027 92.003C715.029 92.5552 715.478 93.0016 716.03 93C716.582 92.9983 717.029 92.5492 717.027 91.997L717.003 83.997L725.003 83.973C725.555 83.9713 726.002 83.5223 726 82.97C725.998 82.4177 725.549 81.9714 724.997 81.973L715.997 82ZM752 172C752 206.523 737.963 237.758 715.295 260.291L716.705 261.709C739.736 238.816 754 207.076 754 172L752 172ZM715.295 83.7092C737.963 106.242 752 137.477 752 172L754 172C754 136.924 739.736 105.184 716.705 82.2908L715.295 83.7092Z" fill="url(#paint3_linear)"/>
<path d="M39 83.003C39.0017 82.4507 38.5553 82.0017 38.003 82L29.003 81.973C28.4508 81.9714 28.0017 82.4177 28 82.97C27.9984 83.5223 28.4448 83.9713 28.997 83.973L36.997 83.997L36.973 91.997C36.9714 92.5492 37.4177 92.9983 37.97 93C38.5223 93.0016 38.9713 92.5552 38.973 92.003L39 83.003ZM2 172C2 137.477 16.0368 106.242 38.705 83.7092L37.295 82.2908C14.2642 105.184 1.47959e-06 136.924 1.06131e-06 172L2 172ZM38.705 260.291C16.0368 237.758 2 206.523 2 172L1.06131e-06 172C6.43035e-07 207.076 14.2642 238.816 37.295 261.709L38.705 260.291Z" fill="url(#paint4_linear)"/>
<path d="M671 314C671 313.448 670.552 313 670 313L661 313.002C660.448 313.002 660 313.45 660 314.002C660 314.554 660.448 315.002 661 315.002L669 315L669.002 323C669.002 323.552 669.45 324 670.002 324C670.554 324 671.002 323.552 671.002 323L671 314ZM580.5 350C545.78 350 514.367 335.962 491.707 313.293L490.293 314.707C513.314 337.737 545.23 352 580.5 352L580.5 350ZM669.293 313.293C646.633 335.962 615.22 350 580.5 350L580.5 352C615.77 352 647.686 337.737 670.707 314.707L669.293 313.293Z" fill="url(#paint5_linear)"/>
<path d="M94.0002 313C93.4479 313 93.0001 313.448 93 314L92.9982 323C92.9981 323.552 93.4457 324 93.998 324C94.5503 324 94.9981 323.552 94.9982 323L94.9998 315L103 315.002C103.552 315.002 104 314.554 104 314.002C104 313.45 103.552 313.002 103 313.002L94.0002 313ZM183.5 350C148.78 350 117.367 335.962 94.7072 313.293L93.2928 314.707C116.314 337.737 148.23 352 183.5 352L183.5 350ZM272.293 313.293C249.633 335.962 218.22 350 183.5 350L183.5 352C218.77 352 250.686 337.737 273.707 314.707L272.293 313.293Z" fill="url(#paint6_linear)"/>
<defs>
<radialGradient id="paint0_radial" cx="0" cy="0" r="1" gradientUnits="userSpaceOnUse" gradientTransform="translate(379.406 177.244) rotate(90.1075) scale(216.257 516.81)">
<stop stop-color="#00AB9E"/>
<stop offset="1" stop-color="#1AFFED"/>
</radialGradient>
<linearGradient id="paint1_linear" x1="94" y1="30.5" x2="280.456" y2="37.9166" gradientUnits="userSpaceOnUse">
<stop stop-color="#FF5722" stop-opacity="0"/>
<stop offset="1" stop-color="#FF5722"/>
</linearGradient>
<linearGradient id="paint2_linear" x1="670" y1="30.5" x2="482.5" y2="38" gradientUnits="userSpaceOnUse">
<stop stop-color="#FF5722" stop-opacity="0"/>
<stop offset="1" stop-color="#FF5722"/>
</linearGradient>
<linearGradient id="paint3_linear" x1="723.5" y1="83" x2="716.083" y2="269.456" gradientUnits="userSpaceOnUse">
<stop stop-color="#FF5722"/>
<stop offset="0.86073" stop-color="#FF5722" stop-opacity="0"/>
</linearGradient>
<linearGradient id="paint4_linear" x1="30.5" y1="261" x2="37.9166" y2="74.5442" gradientUnits="userSpaceOnUse">
<stop stop-color="#FF5722" stop-opacity="0"/>
<stop offset="1" stop-color="#FF5722"/>
</linearGradient>
<linearGradient id="paint5_linear" x1="670" y1="321.5" x2="482.5" y2="314" gradientUnits="userSpaceOnUse">
<stop stop-color="#FF5722"/>
<stop offset="0.86073" stop-color="#FF5722" stop-opacity="0"/>
</linearGradient>
<linearGradient id="paint6_linear" x1="273" y1="321.5" x2="85.5" y2="314" gradientUnits="userSpaceOnUse">
<stop stop-color="#FF5722" stop-opacity="0"/>
<stop offset="1" stop-color="#FF5722"/>
</linearGradient>
</defs>
</svg>
