<svg width="725" height="227" viewBox="0 0 725 227" fill="none" xmlns="http://www.w3.org/2000/svg">
<path d="M8.48828 223V219.707H11.9277V218.26H8.48828V216.057H12.2559V214.545H6.71875V223H8.48828ZM16.5859 223.141C18.5723 223.141 19.7676 221.881 19.7676 219.766C19.7676 217.668 18.5547 216.396 16.5859 216.396C14.6172 216.396 13.4043 217.674 13.4043 219.766C13.4043 221.881 14.5996 223.141 16.5859 223.141ZM16.5859 221.746C15.6719 221.746 15.1562 221.025 15.1562 219.766C15.1562 218.523 15.6777 217.791 16.5859 217.791C17.4883 217.791 18.0156 218.523 18.0156 219.766C18.0156 221.02 17.4941 221.746 16.5859 221.746ZM27.0098 216.537H25.3047V220.264C25.3047 221.125 24.8477 221.658 23.998 221.658C23.2129 221.658 22.8086 221.201 22.8086 220.311V216.537H21.1035V220.75C21.1035 222.25 21.9707 223.141 23.3652 223.141C24.3438 223.141 24.9473 222.713 25.252 221.963H25.3574V223H27.0098V216.537ZM28.7207 223H30.4258V219.273C30.4258 218.424 30.9121 217.867 31.7031 217.867C32.5117 217.867 32.8926 218.336 32.8926 219.227V223H34.5977V218.822C34.5977 217.275 33.8242 216.396 32.3887 216.396C31.4336 216.396 30.7773 216.848 30.4785 217.574H30.373V216.537H28.7207V223ZM38.5703 223.1C39.4668 223.1 40.1992 222.684 40.5449 221.986H40.6504V223H42.3027V214.07H40.5977V217.568H40.498C40.1641 216.854 39.4434 216.432 38.5703 216.432C36.9473 216.432 35.9395 217.703 35.9395 219.76C35.9395 221.822 36.9414 223.1 38.5703 223.1ZM39.1504 217.861C40.0586 217.861 40.6152 218.594 40.6152 219.771C40.6152 220.955 40.0645 221.676 39.1504 221.676C38.2363 221.676 37.6914 220.961 37.6914 219.766C37.6914 218.582 38.2422 217.861 39.1504 217.861ZM46.8672 217.703C47.6641 217.703 48.1797 218.236 48.2148 219.092H45.4609C45.5195 218.254 46.0762 217.703 46.8672 217.703ZM48.25 221.16C48.0684 221.588 47.6055 221.828 46.9316 221.828C46.041 221.828 45.4785 221.23 45.4551 220.27V220.182H49.8906V219.66C49.8906 217.609 48.7656 216.396 46.8613 216.396C44.9395 216.396 43.7559 217.697 43.7559 219.801C43.7559 221.898 44.916 223.141 46.8848 223.141C48.4668 223.141 49.5801 222.379 49.8379 221.16H48.25ZM51.291 223H52.9961V219.42C52.9961 218.512 53.6348 217.961 54.5664 217.961C54.8418 217.961 55.2402 218.014 55.375 218.066V216.514C55.2285 216.461 54.9414 216.432 54.707 216.432C53.8867 216.432 53.2188 216.924 53.0488 217.568H52.9434V216.537H51.291V223ZM56.2188 218.436C56.2188 219.432 56.8281 220.029 58.082 220.305L59.2539 220.568C59.8223 220.691 60.0684 220.885 60.0684 221.201C60.0684 221.617 59.6113 221.893 58.9492 221.893C58.2695 221.893 57.8535 221.641 57.7246 221.201H56.0605C56.1777 222.443 57.209 223.141 58.9141 223.141C60.6074 223.141 61.7617 222.297 61.7617 221.008C61.7617 220.041 61.1992 219.514 59.9453 219.238L58.7324 218.975C58.1348 218.84 57.8594 218.646 57.8594 218.33C57.8594 217.92 58.3105 217.645 58.9199 217.645C59.5527 217.645 59.9453 217.902 60.0332 218.318H61.6094C61.5156 217.082 60.5488 216.396 58.9082 216.396C57.2969 216.396 56.2188 217.211 56.2188 218.436Z" fill="#202020"/>
<path d="M96.7402 223V214.545H94.9707V223H96.7402ZM98.6211 223H100.326V219.273C100.326 218.424 100.812 217.867 101.604 217.867C102.412 217.867 102.793 218.336 102.793 219.227V223H104.498V218.822C104.498 217.275 103.725 216.396 102.289 216.396C101.334 216.396 100.678 216.848 100.379 217.574H100.273V216.537H98.6211V223ZM111.822 216.537H110.023L108.699 221.354H108.594L107.258 216.537H105.424L107.668 223H109.59L111.822 216.537ZM115.502 217.703C116.299 217.703 116.814 218.236 116.85 219.092H114.096C114.154 218.254 114.711 217.703 115.502 217.703ZM116.885 221.16C116.703 221.588 116.24 221.828 115.566 221.828C114.676 221.828 114.113 221.23 114.09 220.27V220.182H118.525V219.66C118.525 217.609 117.4 216.396 115.496 216.396C113.574 216.396 112.391 217.697 112.391 219.801C112.391 221.898 113.551 223.141 115.52 223.141C117.102 223.141 118.215 222.379 118.473 221.16H116.885ZM119.779 218.436C119.779 219.432 120.389 220.029 121.643 220.305L122.814 220.568C123.383 220.691 123.629 220.885 123.629 221.201C123.629 221.617 123.172 221.893 122.51 221.893C121.83 221.893 121.414 221.641 121.285 221.201H119.621C119.738 222.443 120.77 223.141 122.475 223.141C124.168 223.141 125.322 222.297 125.322 221.008C125.322 220.041 124.76 219.514 123.506 219.238L122.293 218.975C121.695 218.84 121.42 218.646 121.42 218.33C121.42 217.92 121.871 217.645 122.48 217.645C123.113 217.645 123.506 217.902 123.594 218.318H125.17C125.076 217.082 124.109 216.396 122.469 216.396C120.857 216.396 119.779 217.211 119.779 218.436ZM127.174 215.002V216.602H126.166V217.943H127.174V221.254C127.174 222.514 127.795 223.023 129.365 223.023C129.693 223.023 130.01 222.988 130.221 222.947V221.646C130.057 221.664 129.939 221.67 129.717 221.67C129.137 221.67 128.879 221.412 128.879 220.85V217.943H130.221V216.602H128.879V215.002H127.174ZM134.463 223.141C136.449 223.141 137.645 221.881 137.645 219.766C137.645 217.668 136.432 216.396 134.463 216.396C132.494 216.396 131.281 217.674 131.281 219.766C131.281 221.881 132.477 223.141 134.463 223.141ZM134.463 221.746C133.549 221.746 133.033 221.025 133.033 219.766C133.033 218.523 133.555 217.791 134.463 217.791C135.365 217.791 135.893 218.523 135.893 219.766C135.893 221.02 135.371 221.746 134.463 221.746ZM139.039 223H140.744V219.42C140.744 218.512 141.383 217.961 142.314 217.961C142.59 217.961 142.988 218.014 143.123 218.066V216.514C142.977 216.461 142.689 216.432 142.455 216.432C141.635 216.432 140.967 216.924 140.797 217.568H140.691V216.537H139.039V223ZM143.967 218.436C143.967 219.432 144.576 220.029 145.83 220.305L147.002 220.568C147.57 220.691 147.816 220.885 147.816 221.201C147.816 221.617 147.359 221.893 146.697 221.893C146.018 221.893 145.602 221.641 145.473 221.201H143.809C143.926 222.443 144.957 223.141 146.662 223.141C148.355 223.141 149.51 222.297 149.51 221.008C149.51 220.041 148.947 219.514 147.693 219.238L146.48 218.975C145.883 218.84 145.607 218.646 145.607 218.33C145.607 217.92 146.059 217.645 146.668 217.645C147.301 217.645 147.693 217.902 147.781 218.318H149.357C149.264 217.082 148.297 216.396 146.656 216.396C145.045 216.396 143.967 217.211 143.967 218.436Z" fill="#202020"/>
<path d="M186.627 221.488H182.795V219.432H186.41V218.031H182.795V216.057H186.627V214.545H181.025V223H186.627V221.488ZM188.32 223H190.025V219.109C190.025 218.389 190.5 217.867 191.168 217.867C191.836 217.867 192.234 218.26 192.234 218.945V223H193.875V219.045C193.875 218.359 194.32 217.867 195.012 217.867C195.732 217.867 196.09 218.248 196.09 219.016V223H197.795V218.564C197.795 217.234 196.992 216.396 195.703 216.396C194.801 216.396 194.057 216.871 193.758 217.592H193.652C193.395 216.842 192.773 216.396 191.865 216.396C191.016 216.396 190.342 216.854 190.078 217.592H189.973V216.537H188.32V223ZM203.186 216.432C202.295 216.432 201.562 216.871 201.211 217.598H201.105V216.537H199.453V225.145H201.158V222.01H201.264C201.58 222.695 202.289 223.1 203.215 223.1C204.832 223.1 205.822 221.852 205.822 219.766C205.822 217.674 204.82 216.432 203.186 216.432ZM202.605 221.676C201.703 221.676 201.141 220.955 201.141 219.771C201.141 218.588 201.703 217.861 202.611 217.861C203.52 217.861 204.07 218.582 204.07 219.766C204.07 220.961 203.525 221.676 202.605 221.676ZM207.27 223H208.975V214.07H207.27V223ZM213.615 223.141C215.602 223.141 216.797 221.881 216.797 219.766C216.797 217.668 215.584 216.396 213.615 216.396C211.646 216.396 210.434 217.674 210.434 219.766C210.434 221.881 211.629 223.141 213.615 223.141ZM213.615 221.746C212.701 221.746 212.186 221.025 212.186 219.766C212.186 218.523 212.707 217.791 213.615 217.791C214.518 217.791 215.045 218.523 215.045 219.766C215.045 221.02 214.523 221.746 213.615 221.746ZM218.725 225.35C220.336 225.35 221.127 224.764 221.678 223.1L223.904 216.537H222.1L220.74 221.436H220.635L219.275 216.537H217.395L219.662 223.041L219.604 223.275C219.463 223.768 219.1 223.973 218.461 223.973C218.391 223.973 218.133 223.973 218.074 223.961V225.332C218.145 225.344 218.66 225.35 218.725 225.35ZM227.619 217.703C228.416 217.703 228.932 218.236 228.967 219.092H226.213C226.271 218.254 226.828 217.703 227.619 217.703ZM229.002 221.16C228.82 221.588 228.357 221.828 227.684 221.828C226.793 221.828 226.23 221.23 226.207 220.27V220.182H230.643V219.66C230.643 217.609 229.518 216.396 227.613 216.396C225.691 216.396 224.508 217.697 224.508 219.801C224.508 221.898 225.668 223.141 227.637 223.141C229.219 223.141 230.332 222.379 230.59 221.16H229.002ZM234.838 217.703C235.635 217.703 236.15 218.236 236.186 219.092H233.432C233.49 218.254 234.047 217.703 234.838 217.703ZM236.221 221.16C236.039 221.588 235.576 221.828 234.902 221.828C234.012 221.828 233.449 221.23 233.426 220.27V220.182H237.861V219.66C237.861 217.609 236.736 216.396 234.832 216.396C232.91 216.396 231.727 217.697 231.727 219.801C231.727 221.898 232.887 223.141 234.855 223.141C236.438 223.141 237.551 222.379 237.809 221.16H236.221ZM239.115 218.436C239.115 219.432 239.725 220.029 240.979 220.305L242.15 220.568C242.719 220.691 242.965 220.885 242.965 221.201C242.965 221.617 242.508 221.893 241.846 221.893C241.166 221.893 240.75 221.641 240.621 221.201H238.957C239.074 222.443 240.105 223.141 241.811 223.141C243.504 223.141 244.658 222.297 244.658 221.008C244.658 220.041 244.096 219.514 242.842 219.238L241.629 218.975C241.031 218.84 240.756 218.646 240.756 218.33C240.756 217.92 241.207 217.645 241.816 217.645C242.449 217.645 242.842 217.902 242.93 218.318H244.506C244.412 217.082 243.445 216.396 241.805 216.396C240.193 216.396 239.115 217.211 239.115 218.436Z" fill="#202020"/>
<path d="M280.617 223.217C282.656 223.217 284.145 221.957 284.291 220.129H282.568C282.398 221.061 281.637 221.658 280.623 221.658C279.287 221.658 278.461 220.551 278.461 218.77C278.461 216.988 279.287 215.887 280.617 215.887C281.625 215.887 282.393 216.525 282.562 217.498H284.285C284.156 215.658 282.621 214.328 280.617 214.328C278.162 214.328 276.65 216.021 276.65 218.77C276.65 221.523 278.168 223.217 280.617 223.217ZM288.615 223.141C290.602 223.141 291.797 221.881 291.797 219.766C291.797 217.668 290.584 216.396 288.615 216.396C286.646 216.396 285.434 217.674 285.434 219.766C285.434 221.881 286.629 223.141 288.615 223.141ZM288.615 221.746C287.701 221.746 287.186 221.025 287.186 219.766C287.186 218.523 287.707 217.791 288.615 217.791C289.518 217.791 290.045 218.523 290.045 219.766C290.045 221.02 289.523 221.746 288.615 221.746ZM293.191 223H294.896V219.273C294.896 218.424 295.383 217.867 296.174 217.867C296.982 217.867 297.363 218.336 297.363 219.227V223H299.068V218.822C299.068 217.275 298.295 216.396 296.859 216.396C295.904 216.396 295.248 216.848 294.949 217.574H294.844V216.537H293.191V223ZM301.213 215.002V216.602H300.205V217.943H301.213V221.254C301.213 222.514 301.834 223.023 303.404 223.023C303.732 223.023 304.049 222.988 304.26 222.947V221.646C304.096 221.664 303.979 221.67 303.756 221.67C303.176 221.67 302.918 221.412 302.918 220.85V217.943H304.26V216.602H302.918V215.002H301.213ZM305.684 223H307.389V219.42C307.389 218.512 308.027 217.961 308.959 217.961C309.234 217.961 309.633 218.014 309.768 218.066V216.514C309.621 216.461 309.334 216.432 309.1 216.432C308.279 216.432 307.611 216.924 307.441 217.568H307.336V216.537H305.684V223ZM313.125 221.816C312.533 221.816 312.117 221.523 312.117 221.043C312.117 220.58 312.475 220.316 313.207 220.264L314.514 220.182V220.656C314.514 221.312 313.916 221.816 313.125 221.816ZM312.562 223.1C313.4 223.1 314.104 222.748 314.438 222.156H314.543V223H316.195V218.588C316.195 217.205 315.229 216.396 313.518 216.396C311.895 216.396 310.799 217.146 310.688 218.342H312.258C312.398 217.955 312.809 217.744 313.424 217.744C314.127 217.744 314.514 218.049 314.514 218.588V219.115L312.949 219.209C311.344 219.303 310.447 219.982 310.447 221.154C310.447 222.338 311.32 223.1 312.562 223.1ZM323.59 218.816C323.449 217.346 322.424 216.396 320.713 216.396C318.691 216.396 317.555 217.609 317.555 219.754C317.555 221.922 318.697 223.141 320.713 223.141C322.395 223.141 323.449 222.209 323.59 220.762H321.996C321.867 221.4 321.41 221.74 320.713 221.74C319.799 221.74 319.277 221.043 319.277 219.754C319.277 218.482 319.793 217.797 320.713 217.797C321.439 217.797 321.879 218.201 321.996 218.816H323.59ZM325.471 215.002V216.602H324.463V217.943H325.471V221.254C325.471 222.514 326.092 223.023 327.662 223.023C327.99 223.023 328.307 222.988 328.518 222.947V221.646C328.354 221.664 328.236 221.67 328.014 221.67C327.434 221.67 327.176 221.412 327.176 220.85V217.943H328.518V216.602H327.176V215.002H325.471ZM332.76 223.141C334.746 223.141 335.941 221.881 335.941 219.766C335.941 217.668 334.729 216.396 332.76 216.396C330.791 216.396 329.578 217.674 329.578 219.766C329.578 221.881 330.773 223.141 332.76 223.141ZM332.76 221.746C331.846 221.746 331.33 221.025 331.33 219.766C331.33 218.523 331.852 217.791 332.76 217.791C333.662 217.791 334.189 218.523 334.189 219.766C334.189 221.02 333.668 221.746 332.76 221.746ZM337.336 223H339.041V219.42C339.041 218.512 339.68 217.961 340.611 217.961C340.887 217.961 341.285 218.014 341.42 218.066V216.514C341.273 216.461 340.986 216.432 340.752 216.432C339.932 216.432 339.264 216.924 339.094 217.568H338.988V216.537H337.336V223ZM342.264 218.436C342.264 219.432 342.873 220.029 344.127 220.305L345.299 220.568C345.867 220.691 346.113 220.885 346.113 221.201C346.113 221.617 345.656 221.893 344.994 221.893C344.314 221.893 343.898 221.641 343.77 221.201H342.105C342.223 222.443 343.254 223.141 344.959 223.141C346.652 223.141 347.807 222.297 347.807 221.008C347.807 220.041 347.244 219.514 345.99 219.238L344.777 218.975C344.18 218.84 343.904 218.646 343.904 218.33C343.904 217.92 344.355 217.645 344.965 217.645C345.598 217.645 345.99 217.902 346.078 218.318H347.654C347.561 217.082 346.594 216.396 344.953 216.396C343.342 216.396 342.264 217.211 342.264 218.436Z" fill="#202020"/>
<path d="M384.617 223.217C386.656 223.217 388.145 221.957 388.291 220.129H386.568C386.398 221.061 385.637 221.658 384.623 221.658C383.287 221.658 382.461 220.551 382.461 218.77C382.461 216.988 383.287 215.887 384.617 215.887C385.625 215.887 386.393 216.525 386.562 217.498H388.285C388.156 215.658 386.621 214.328 384.617 214.328C382.162 214.328 380.65 216.021 380.65 218.77C380.65 221.523 382.168 223.217 384.617 223.217ZM395.598 216.537H393.893V220.264C393.893 221.125 393.436 221.658 392.586 221.658C391.801 221.658 391.396 221.201 391.396 220.311V216.537H389.691V220.75C389.691 222.25 390.559 223.141 391.953 223.141C392.932 223.141 393.535 222.713 393.84 221.963H393.945V223H395.598V216.537ZM397.162 218.436C397.162 219.432 397.771 220.029 399.025 220.305L400.197 220.568C400.766 220.691 401.012 220.885 401.012 221.201C401.012 221.617 400.555 221.893 399.893 221.893C399.213 221.893 398.797 221.641 398.668 221.201H397.004C397.121 222.443 398.152 223.141 399.857 223.141C401.551 223.141 402.705 222.297 402.705 221.008C402.705 220.041 402.143 219.514 400.889 219.238L399.676 218.975C399.078 218.84 398.803 218.646 398.803 218.33C398.803 217.92 399.254 217.645 399.863 217.645C400.496 217.645 400.889 217.902 400.977 218.318H402.553C402.459 217.082 401.492 216.396 399.852 216.396C398.24 216.396 397.162 217.211 397.162 218.436ZM404.557 215.002V216.602H403.549V217.943H404.557V221.254C404.557 222.514 405.178 223.023 406.748 223.023C407.076 223.023 407.393 222.988 407.604 222.947V221.646C407.439 221.664 407.322 221.67 407.1 221.67C406.52 221.67 406.262 221.412 406.262 220.85V217.943H407.604V216.602H406.262V215.002H404.557ZM411.846 223.141C413.832 223.141 415.027 221.881 415.027 219.766C415.027 217.668 413.814 216.396 411.846 216.396C409.877 216.396 408.664 217.674 408.664 219.766C408.664 221.881 409.859 223.141 411.846 223.141ZM411.846 221.746C410.932 221.746 410.416 221.025 410.416 219.766C410.416 218.523 410.938 217.791 411.846 217.791C412.748 217.791 413.275 218.523 413.275 219.766C413.275 221.02 412.754 221.746 411.846 221.746ZM416.422 223H418.127V219.109C418.127 218.389 418.602 217.867 419.27 217.867C419.938 217.867 420.336 218.26 420.336 218.945V223H421.977V219.045C421.977 218.359 422.422 217.867 423.113 217.867C423.834 217.867 424.191 218.248 424.191 219.016V223H425.896V218.564C425.896 217.234 425.094 216.396 423.805 216.396C422.902 216.396 422.158 216.871 421.859 217.592H421.754C421.496 216.842 420.875 216.396 419.967 216.396C419.117 216.396 418.443 216.854 418.18 217.592H418.074V216.537H416.422V223ZM430.35 217.703C431.146 217.703 431.662 218.236 431.697 219.092H428.943C429.002 218.254 429.559 217.703 430.35 217.703ZM431.732 221.16C431.551 221.588 431.088 221.828 430.414 221.828C429.523 221.828 428.961 221.23 428.938 220.27V220.182H433.373V219.66C433.373 217.609 432.248 216.396 430.344 216.396C428.422 216.396 427.238 217.697 427.238 219.801C427.238 221.898 428.398 223.141 430.367 223.141C431.949 223.141 433.062 222.379 433.32 221.16H431.732ZM434.773 223H436.479V219.42C436.479 218.512 437.117 217.961 438.049 217.961C438.324 217.961 438.723 218.014 438.857 218.066V216.514C438.711 216.461 438.424 216.432 438.189 216.432C437.369 216.432 436.701 216.924 436.531 217.568H436.426V216.537H434.773V223ZM439.701 218.436C439.701 219.432 440.311 220.029 441.564 220.305L442.736 220.568C443.305 220.691 443.551 220.885 443.551 221.201C443.551 221.617 443.094 221.893 442.432 221.893C441.752 221.893 441.336 221.641 441.207 221.201H439.543C439.66 222.443 440.691 223.141 442.396 223.141C444.09 223.141 445.244 222.297 445.244 221.008C445.244 220.041 444.682 219.514 443.428 219.238L442.215 218.975C441.617 218.84 441.342 218.646 441.342 218.33C441.342 217.92 441.793 217.645 442.402 217.645C443.035 217.645 443.428 217.902 443.516 218.318H445.092C444.998 217.082 444.031 216.396 442.391 216.396C440.779 216.396 439.701 217.211 439.701 218.436Z" fill="#202020"/>
<path d="M478.812 214.545H477.043V220.082C477.043 221.957 478.42 223.217 480.582 223.217C482.75 223.217 484.127 221.957 484.127 220.082V214.545H482.357V219.9C482.357 220.967 481.719 221.646 480.582 221.646C479.451 221.646 478.812 220.967 478.812 219.9V214.545ZM485.873 218.436C485.873 219.432 486.482 220.029 487.736 220.305L488.908 220.568C489.477 220.691 489.723 220.885 489.723 221.201C489.723 221.617 489.266 221.893 488.604 221.893C487.924 221.893 487.508 221.641 487.379 221.201H485.715C485.832 222.443 486.863 223.141 488.568 223.141C490.262 223.141 491.416 222.297 491.416 221.008C491.416 220.041 490.854 219.514 489.6 219.238L488.387 218.975C487.789 218.84 487.514 218.646 487.514 218.33C487.514 217.92 487.965 217.645 488.574 217.645C489.207 217.645 489.6 217.902 489.688 218.318H491.264C491.17 217.082 490.203 216.396 488.562 216.396C486.951 216.396 485.873 217.211 485.873 218.436ZM495.611 217.703C496.408 217.703 496.924 218.236 496.959 219.092H494.205C494.264 218.254 494.82 217.703 495.611 217.703ZM496.994 221.16C496.812 221.588 496.35 221.828 495.676 221.828C494.785 221.828 494.223 221.23 494.199 220.27V220.182H498.635V219.66C498.635 217.609 497.51 216.396 495.605 216.396C493.684 216.396 492.5 217.697 492.5 219.801C492.5 221.898 493.66 223.141 495.629 223.141C497.211 223.141 498.324 222.379 498.582 221.16H496.994ZM500.035 223H501.74V219.42C501.74 218.512 502.379 217.961 503.311 217.961C503.586 217.961 503.984 218.014 504.119 218.066V216.514C503.973 216.461 503.686 216.432 503.451 216.432C502.631 216.432 501.963 216.924 501.793 217.568H501.688V216.537H500.035V223ZM504.963 218.436C504.963 219.432 505.572 220.029 506.826 220.305L507.998 220.568C508.566 220.691 508.812 220.885 508.812 221.201C508.812 221.617 508.355 221.893 507.693 221.893C507.014 221.893 506.598 221.641 506.469 221.201H504.805C504.922 222.443 505.953 223.141 507.658 223.141C509.352 223.141 510.506 222.297 510.506 221.008C510.506 220.041 509.943 219.514 508.689 219.238L507.477 218.975C506.879 218.84 506.604 218.646 506.604 218.33C506.604 217.92 507.055 217.645 507.664 217.645C508.297 217.645 508.689 217.902 508.777 218.318H510.354C510.26 217.082 509.293 216.396 507.652 216.396C506.041 216.396 504.963 217.211 504.963 218.436Z" fill="#202020"/>
<path d="M724.354 199.354C724.549 199.158 724.549 198.842 724.354 198.646L721.172 195.464C720.976 195.269 720.66 195.269 720.464 195.464C720.269 195.66 720.269 195.976 720.464 196.172L723.293 199L720.464 201.828C720.269 202.024 720.269 202.34 720.464 202.536C720.66 202.731 720.976 202.731 721.172 202.536L724.354 199.354ZM4 199.5H724V198.5H4V199.5Z" fill="#D7D7D7"/>
<path d="M4.85356 0.646454C4.6583 0.451187 4.34172 0.451187 4.14646 0.646454L0.964475 3.82843C0.769212 4.0237 0.769212 4.34027 0.964475 4.53554C1.15974 4.73079 1.47632 4.73079 1.67158 4.53554L4.50001 1.70711L7.32844 4.53554C7.5237 4.73079 7.84028 4.73079 8.03554 4.53554C8.2308 4.34027 8.2308 4.0237 8.03554 3.82843L4.85356 0.646454ZM5 199L5.00001 1L4.00001 1L4 199L5 199Z" fill="#D7D7D7"/>
<path opacity="0.6" d="M126.5 135C76.2831 105.5 5 23 5 23V199H528C405.242 192.295 235.366 198.953 126.5 135Z" fill="url(#paint0_linear)"/>
<path opacity="0.8" d="M5 23C5 23 45 83.5 135 139C225 194.5 397 193.5 532 198" stroke="#00D1C1" stroke-width="2" stroke-linecap="round"/>
<line x1="165.5" y1="199" x2="165.5" y2="157" stroke="#D7D7D7" stroke-dasharray="4 4"/>
<line x1="261.5" y1="199" x2="261.5" y2="181" stroke="#D7D7D7" stroke-dasharray="4 4"/>
<line x1="365.5" y1="199" x2="365.5" y2="191" stroke="#D7D7D7" stroke-dasharray="4 4"/>
<line x1="461.5" y1="199" x2="461.5" y2="195" stroke="#D7D7D7" stroke-dasharray="4 4"/>
<line x1="77.5" y1="199" x2="77.5" y2="101" stroke="#D7D7D7" stroke-dasharray="4 4"/>
<path d="M650.764 220.791C650.875 222.25 652.111 223.199 653.904 223.199C655.838 223.199 657.062 222.209 657.062 220.656C657.062 219.414 656.359 218.734 654.607 218.295L653.723 218.061C652.557 217.762 652.094 217.381 652.094 216.719C652.094 215.863 652.838 215.301 653.963 215.301C655.018 215.301 655.732 215.816 655.879 216.684H656.939C656.852 215.318 655.633 214.346 653.998 214.346C652.211 214.346 651.01 215.318 651.01 216.754C651.01 217.955 651.672 218.646 653.201 219.033L654.285 219.314C655.451 219.607 655.979 220.064 655.979 220.785C655.979 221.623 655.141 222.238 654.004 222.238C652.803 222.238 651.959 221.676 651.83 220.791H650.764ZM659.113 215.049V216.684H658.094V217.527H659.113V221.359C659.113 222.566 659.635 223.047 660.936 223.047C661.135 223.047 661.328 223.023 661.527 222.988V222.139C661.34 222.156 661.24 222.162 661.059 222.162C660.402 222.162 660.121 221.846 660.121 221.102V217.527H661.527V216.684H660.121V215.049H659.113ZM664.996 222.227C664.264 222.227 663.719 221.852 663.719 221.207C663.719 220.574 664.141 220.24 665.102 220.176L666.801 220.064V220.645C666.801 221.547 666.033 222.227 664.996 222.227ZM664.809 223.111C665.652 223.111 666.344 222.742 666.754 222.068H666.848V223H667.809V218.676C667.809 217.363 666.947 216.572 665.406 216.572C664.059 216.572 663.062 217.24 662.928 218.254H663.947C664.088 217.756 664.615 217.469 665.371 217.469C666.314 217.469 666.801 217.896 666.801 218.676V219.25L664.979 219.361C663.508 219.449 662.676 220.1 662.676 221.23C662.676 222.385 663.584 223.111 664.809 223.111ZM670.832 219.443H670.738V214.176H669.73V223H670.738V220.604L671.342 220.041L673.709 223H674.992L672.092 219.391L674.811 216.684H673.574L670.832 219.443ZM678.414 217.463C679.416 217.463 680.084 218.201 680.107 219.32H676.627C676.703 218.201 677.406 217.463 678.414 217.463ZM680.078 221.365C679.814 221.922 679.264 222.221 678.449 222.221C677.377 222.221 676.68 221.43 676.627 220.182V220.135H681.168V219.748C681.168 217.785 680.131 216.572 678.426 216.572C676.691 216.572 675.578 217.861 675.578 219.848C675.578 221.846 676.674 223.111 678.426 223.111C679.809 223.111 680.781 222.449 681.086 221.365H680.078ZM682.809 223H683.816V219.262C683.816 218.195 684.438 217.48 685.568 217.48C686.523 217.48 687.027 218.037 687.027 219.156V223H688.035V218.91C688.035 217.428 687.191 216.572 685.855 216.572C684.889 216.572 684.227 216.982 683.91 217.68H683.816V214.176H682.809V223ZM692.471 223.111C694.27 223.111 695.383 221.869 695.383 219.842C695.383 217.809 694.27 216.572 692.471 216.572C690.672 216.572 689.559 217.809 689.559 219.842C689.559 221.869 690.672 223.111 692.471 223.111ZM692.471 222.203C691.275 222.203 690.602 221.336 690.602 219.842C690.602 218.342 691.275 217.48 692.471 217.48C693.666 217.48 694.34 218.342 694.34 219.842C694.34 221.336 693.666 222.203 692.471 222.203ZM697.023 223H698.031V214.176H697.023V223ZM702.326 223.111C703.199 223.111 703.949 222.695 704.348 221.992H704.441V223H705.402V214.176H704.395V217.68H704.307C703.949 216.988 703.205 216.572 702.326 216.572C700.721 216.572 699.672 217.861 699.672 219.842C699.672 221.828 700.709 223.111 702.326 223.111ZM702.561 217.48C703.703 217.48 704.418 218.395 704.418 219.842C704.418 221.301 703.709 222.203 702.561 222.203C701.406 222.203 700.715 221.318 700.715 219.842C700.715 218.371 701.412 217.48 702.561 217.48ZM709.879 217.463C710.881 217.463 711.549 218.201 711.572 219.32H708.092C708.168 218.201 708.871 217.463 709.879 217.463ZM711.543 221.365C711.279 221.922 710.729 222.221 709.914 222.221C708.842 222.221 708.145 221.43 708.092 220.182V220.135H712.633V219.748C712.633 217.785 711.596 216.572 709.891 216.572C708.156 216.572 707.043 217.861 707.043 219.848C707.043 221.846 708.139 223.111 709.891 223.111C711.273 223.111 712.246 222.449 712.551 221.365H711.543ZM714.215 223H715.223V219.086C715.223 218.195 715.92 217.551 716.881 217.551C717.08 217.551 717.443 217.586 717.525 217.609V216.602C717.396 216.584 717.186 216.572 717.021 216.572C716.184 216.572 715.457 217.006 715.27 217.621H715.176V216.684H714.215V223ZM718.521 218.412C718.521 219.326 719.061 219.836 720.244 220.123L721.328 220.387C722.002 220.551 722.33 220.844 722.33 221.277C722.33 221.857 721.721 222.262 720.871 222.262C720.062 222.262 719.559 221.922 719.389 221.389H718.352C718.463 222.438 719.43 223.111 720.836 223.111C722.271 223.111 723.367 222.332 723.367 221.201C723.367 220.293 722.793 219.777 721.604 219.49L720.631 219.256C719.887 219.074 719.535 218.805 719.535 218.371C719.535 217.809 720.121 217.428 720.871 217.428C721.633 217.428 722.125 217.762 722.26 218.266H723.256C723.121 217.229 722.201 216.572 720.877 216.572C719.535 216.572 718.521 217.363 718.521 218.412Z" fill="#9E9E9E"/>
<defs>
<linearGradient id="paint0_linear" x1="270.864" y1="139.5" x2="262.689" y2="198.472" gradientUnits="userSpaceOnUse">
<stop stop-color="#84FFF5" stop-opacity="0.6"/>
<stop offset="1" stop-color="#84FFF5" stop-opacity="0.2"/>
</linearGradient>
</defs>
</svg>
