<svg width="725" height="227" viewBox="0 0 725 227" fill="none" xmlns="http://www.w3.org/2000/svg">
<path d="M8.48828 223V219.707H11.9277V218.26H8.48828V216.057H12.2559V214.545H6.71875V223H8.48828ZM16.5859 223.141C18.5723 223.141 19.7676 221.881 19.7676 219.766C19.7676 217.668 18.5547 216.396 16.5859 216.396C14.6172 216.396 13.4043 217.674 13.4043 219.766C13.4043 221.881 14.5996 223.141 16.5859 223.141ZM16.5859 221.746C15.6719 221.746 15.1562 221.025 15.1562 219.766C15.1562 218.523 15.6777 217.791 16.5859 217.791C17.4883 217.791 18.0156 218.523 18.0156 219.766C18.0156 221.02 17.4941 221.746 16.5859 221.746ZM27.0098 216.537H25.3047V220.264C25.3047 221.125 24.8477 221.658 23.998 221.658C23.2129 221.658 22.8086 221.201 22.8086 220.311V216.537H21.1035V220.75C21.1035 222.25 21.9707 223.141 23.3652 223.141C24.3438 223.141 24.9473 222.713 25.252 221.963H25.3574V223H27.0098V216.537ZM28.7207 223H30.4258V219.273C30.4258 218.424 30.9121 217.867 31.7031 217.867C32.5117 217.867 32.8926 218.336 32.8926 219.227V223H34.5977V218.822C34.5977 217.275 33.8242 216.396 32.3887 216.396C31.4336 216.396 30.7773 216.848 30.4785 217.574H30.373V216.537H28.7207V223ZM38.5703 223.1C39.4668 223.1 40.1992 222.684 40.5449 221.986H40.6504V223H42.3027V214.07H40.5977V217.568H40.498C40.1641 216.854 39.4434 216.432 38.5703 216.432C36.9473 216.432 35.9395 217.703 35.9395 219.76C35.9395 221.822 36.9414 223.1 38.5703 223.1ZM39.1504 217.861C40.0586 217.861 40.6152 218.594 40.6152 219.771C40.6152 220.955 40.0645 221.676 39.1504 221.676C38.2363 221.676 37.6914 220.961 37.6914 219.766C37.6914 218.582 38.2422 217.861 39.1504 217.861ZM46.8672 217.703C47.6641 217.703 48.1797 218.236 48.2148 219.092H45.4609C45.5195 218.254 46.0762 217.703 46.8672 217.703ZM48.25 221.16C48.0684 221.588 47.6055 221.828 46.9316 221.828C46.041 221.828 45.4785 221.23 45.4551 220.27V220.182H49.8906V219.66C49.8906 217.609 48.7656 216.396 46.8613 216.396C44.9395 216.396 43.7559 217.697 43.7559 219.801C43.7559 221.898 44.916 223.141 46.8848 223.141C48.4668 223.141 49.5801 222.379 49.8379 221.16H48.25ZM51.291 223H52.9961V219.42C52.9961 218.512 53.6348 217.961 54.5664 217.961C54.8418 217.961 55.2402 218.014 55.375 218.066V216.514C55.2285 216.461 54.9414 216.432 54.707 216.432C53.8867 216.432 53.2188 216.924 53.0488 217.568H52.9434V216.537H51.291V223ZM56.2188 218.436C56.2188 219.432 56.8281 220.029 58.082 220.305L59.2539 220.568C59.8223 220.691 60.0684 220.885 60.0684 221.201C60.0684 221.617 59.6113 221.893 58.9492 221.893C58.2695 221.893 57.8535 221.641 57.7246 221.201H56.0605C56.1777 222.443 57.209 223.141 58.9141 223.141C60.6074 223.141 61.7617 222.297 61.7617 221.008C61.7617 220.041 61.1992 219.514 59.9453 219.238L58.7324 218.975C58.1348 218.84 57.8594 218.646 57.8594 218.33C57.8594 217.92 58.3105 217.645 58.9199 217.645C59.5527 217.645 59.9453 217.902 60.0332 218.318H61.6094C61.5156 217.082 60.5488 216.396 58.9082 216.396C57.2969 216.396 56.2188 217.211 56.2188 218.436Z" fill="#202020"/>
<path d="M96.7402 223V214.545H94.9707V223H96.7402ZM98.6211 223H100.326V219.273C100.326 218.424 100.812 217.867 101.604 217.867C102.412 217.867 102.793 218.336 102.793 219.227V223H104.498V218.822C104.498 217.275 103.725 216.396 102.289 216.396C101.334 216.396 100.678 216.848 100.379 217.574H100.273V216.537H98.6211V223ZM111.822 216.537H110.023L108.699 221.354H108.594L107.258 216.537H105.424L107.668 223H109.59L111.822 216.537ZM115.502 217.703C116.299 217.703 116.814 218.236 116.85 219.092H114.096C114.154 218.254 114.711 217.703 115.502 217.703ZM116.885 221.16C116.703 221.588 116.24 221.828 115.566 221.828C114.676 221.828 114.113 221.23 114.09 220.27V220.182H118.525V219.66C118.525 217.609 117.4 216.396 115.496 216.396C113.574 216.396 112.391 217.697 112.391 219.801C112.391 221.898 113.551 223.141 115.52 223.141C117.102 223.141 118.215 222.379 118.473 221.16H116.885ZM119.779 218.436C119.779 219.432 120.389 220.029 121.643 220.305L122.814 220.568C123.383 220.691 123.629 220.885 123.629 221.201C123.629 221.617 123.172 221.893 122.51 221.893C121.83 221.893 121.414 221.641 121.285 221.201H119.621C119.738 222.443 120.77 223.141 122.475 223.141C124.168 223.141 125.322 222.297 125.322 221.008C125.322 220.041 124.76 219.514 123.506 219.238L122.293 218.975C121.695 218.84 121.42 218.646 121.42 218.33C121.42 217.92 121.871 217.645 122.48 217.645C123.113 217.645 123.506 217.902 123.594 218.318H125.17C125.076 217.082 124.109 216.396 122.469 216.396C120.857 216.396 119.779 217.211 119.779 218.436ZM127.174 215.002V216.602H126.166V217.943H127.174V221.254C127.174 222.514 127.795 223.023 129.365 223.023C129.693 223.023 130.01 222.988 130.221 222.947V221.646C130.057 221.664 129.939 221.67 129.717 221.67C129.137 221.67 128.879 221.412 128.879 220.85V217.943H130.221V216.602H128.879V215.002H127.174ZM134.463 223.141C136.449 223.141 137.645 221.881 137.645 219.766C137.645 217.668 136.432 216.396 134.463 216.396C132.494 216.396 131.281 217.674 131.281 219.766C131.281 221.881 132.477 223.141 134.463 223.141ZM134.463 221.746C133.549 221.746 133.033 221.025 133.033 219.766C133.033 218.523 133.555 217.791 134.463 217.791C135.365 217.791 135.893 218.523 135.893 219.766C135.893 221.02 135.371 221.746 134.463 221.746ZM139.039 223H140.744V219.42C140.744 218.512 141.383 217.961 142.314 217.961C142.59 217.961 142.988 218.014 143.123 218.066V216.514C142.977 216.461 142.689 216.432 142.455 216.432C141.635 216.432 140.967 216.924 140.797 217.568H140.691V216.537H139.039V223ZM143.967 218.436C143.967 219.432 144.576 220.029 145.83 220.305L147.002 220.568C147.57 220.691 147.816 220.885 147.816 221.201C147.816 221.617 147.359 221.893 146.697 221.893C146.018 221.893 145.602 221.641 145.473 221.201H143.809C143.926 222.443 144.957 223.141 146.662 223.141C148.355 223.141 149.51 222.297 149.51 221.008C149.51 220.041 148.947 219.514 147.693 219.238L146.48 218.975C145.883 218.84 145.607 218.646 145.607 218.33C145.607 217.92 146.059 217.645 146.668 217.645C147.301 217.645 147.693 217.902 147.781 218.318H149.357C149.264 217.082 148.297 216.396 146.656 216.396C145.045 216.396 143.967 217.211 143.967 218.436Z" fill="#202020"/>
<path d="M186.627 221.488H182.795V219.432H186.41V218.031H182.795V216.057H186.627V214.545H181.025V223H186.627V221.488ZM188.32 223H190.025V219.109C190.025 218.389 190.5 217.867 191.168 217.867C191.836 217.867 192.234 218.26 192.234 218.945V223H193.875V219.045C193.875 218.359 194.32 217.867 195.012 217.867C195.732 217.867 196.09 218.248 196.09 219.016V223H197.795V218.564C197.795 217.234 196.992 216.396 195.703 216.396C194.801 216.396 194.057 216.871 193.758 217.592H193.652C193.395 216.842 192.773 216.396 191.865 216.396C191.016 216.396 190.342 216.854 190.078 217.592H189.973V216.537H188.32V223ZM203.186 216.432C202.295 216.432 201.562 216.871 201.211 217.598H201.105V216.537H199.453V225.145H201.158V222.01H201.264C201.58 222.695 202.289 223.1 203.215 223.1C204.832 223.1 205.822 221.852 205.822 219.766C205.822 217.674 204.82 216.432 203.186 216.432ZM202.605 221.676C201.703 221.676 201.141 220.955 201.141 219.771C201.141 218.588 201.703 217.861 202.611 217.861C203.52 217.861 204.07 218.582 204.07 219.766C204.07 220.961 203.525 221.676 202.605 221.676ZM207.27 223H208.975V214.07H207.27V223ZM213.615 223.141C215.602 223.141 216.797 221.881 216.797 219.766C216.797 217.668 215.584 216.396 213.615 216.396C211.646 216.396 210.434 217.674 210.434 219.766C210.434 221.881 211.629 223.141 213.615 223.141ZM213.615 221.746C212.701 221.746 212.186 221.025 212.186 219.766C212.186 218.523 212.707 217.791 213.615 217.791C214.518 217.791 215.045 218.523 215.045 219.766C215.045 221.02 214.523 221.746 213.615 221.746ZM218.725 225.35C220.336 225.35 221.127 224.764 221.678 223.1L223.904 216.537H222.1L220.74 221.436H220.635L219.275 216.537H217.395L219.662 223.041L219.604 223.275C219.463 223.768 219.1 223.973 218.461 223.973C218.391 223.973 218.133 223.973 218.074 223.961V225.332C218.145 225.344 218.66 225.35 218.725 225.35ZM227.619 217.703C228.416 217.703 228.932 218.236 228.967 219.092H226.213C226.271 218.254 226.828 217.703 227.619 217.703ZM229.002 221.16C228.82 221.588 228.357 221.828 227.684 221.828C226.793 221.828 226.23 221.23 226.207 220.27V220.182H230.643V219.66C230.643 217.609 229.518 216.396 227.613 216.396C225.691 216.396 224.508 217.697 224.508 219.801C224.508 221.898 225.668 223.141 227.637 223.141C229.219 223.141 230.332 222.379 230.59 221.16H229.002ZM234.838 217.703C235.635 217.703 236.15 218.236 236.186 219.092H233.432C233.49 218.254 234.047 217.703 234.838 217.703ZM236.221 221.16C236.039 221.588 235.576 221.828 234.902 221.828C234.012 221.828 233.449 221.23 233.426 220.27V220.182H237.861V219.66C237.861 217.609 236.736 216.396 234.832 216.396C232.91 216.396 231.727 217.697 231.727 219.801C231.727 221.898 232.887 223.141 234.855 223.141C236.438 223.141 237.551 222.379 237.809 221.16H236.221ZM239.115 218.436C239.115 219.432 239.725 220.029 240.979 220.305L242.15 220.568C242.719 220.691 242.965 220.885 242.965 221.201C242.965 221.617 242.508 221.893 241.846 221.893C241.166 221.893 240.75 221.641 240.621 221.201H238.957C239.074 222.443 240.105 223.141 241.811 223.141C243.504 223.141 244.658 222.297 244.658 221.008C244.658 220.041 244.096 219.514 242.842 219.238L241.629 218.975C241.031 218.84 240.756 218.646 240.756 218.33C240.756 217.92 241.207 217.645 241.816 217.645C242.449 217.645 242.842 217.902 242.93 218.318H244.506C244.412 217.082 243.445 216.396 241.805 216.396C240.193 216.396 239.115 217.211 239.115 218.436Z" fill="#202020"/>
<path d="M280.482 223.199C282.281 223.199 283.617 222.197 283.898 220.645H282.826C282.557 221.623 281.66 222.227 280.482 222.227C278.854 222.227 277.834 220.896 277.834 218.775C277.834 216.654 278.854 215.318 280.477 215.318C281.643 215.318 282.545 216.004 282.826 217.094H283.898C283.646 215.465 282.258 214.346 280.477 214.346C278.18 214.346 276.75 216.045 276.75 218.775C276.75 221.5 278.186 223.199 280.482 223.199ZM288.135 223.111C289.934 223.111 291.047 221.869 291.047 219.842C291.047 217.809 289.934 216.572 288.135 216.572C286.336 216.572 285.223 217.809 285.223 219.842C285.223 221.869 286.336 223.111 288.135 223.111ZM288.135 222.203C286.939 222.203 286.266 221.336 286.266 219.842C286.266 218.342 286.939 217.48 288.135 217.48C289.33 217.48 290.004 218.342 290.004 219.842C290.004 221.336 289.33 222.203 288.135 222.203ZM292.629 223H293.637V219.262C293.637 218.154 294.287 217.48 295.295 217.48C296.303 217.48 296.783 218.02 296.783 219.156V223H297.791V218.91C297.791 217.41 297 216.572 295.582 216.572C294.615 216.572 294 216.982 293.684 217.68H293.59V216.684H292.629V223ZM300.059 215.049V216.684H299.039V217.527H300.059V221.359C300.059 222.566 300.58 223.047 301.881 223.047C302.08 223.047 302.273 223.023 302.473 222.988V222.139C302.285 222.156 302.186 222.162 302.004 222.162C301.348 222.162 301.066 221.846 301.066 221.102V217.527H302.473V216.684H301.066V215.049H300.059ZM303.996 223H305.004V219.086C305.004 218.195 305.701 217.551 306.662 217.551C306.861 217.551 307.225 217.586 307.307 217.609V216.602C307.178 216.584 306.967 216.572 306.803 216.572C305.965 216.572 305.238 217.006 305.051 217.621H304.957V216.684H303.996V223ZM310.512 222.227C309.779 222.227 309.234 221.852 309.234 221.207C309.234 220.574 309.656 220.24 310.617 220.176L312.316 220.064V220.645C312.316 221.547 311.549 222.227 310.512 222.227ZM310.324 223.111C311.168 223.111 311.859 222.742 312.27 222.068H312.363V223H313.324V218.676C313.324 217.363 312.463 216.572 310.922 216.572C309.574 216.572 308.578 217.24 308.443 218.254H309.463C309.604 217.756 310.131 217.469 310.887 217.469C311.83 217.469 312.316 217.896 312.316 218.676V219.25L310.494 219.361C309.023 219.449 308.191 220.1 308.191 221.23C308.191 222.385 309.1 223.111 310.324 223.111ZM320.414 218.617C320.238 217.492 319.301 216.572 317.766 216.572C315.996 216.572 314.871 217.85 314.871 219.818C314.871 221.828 316.002 223.111 317.771 223.111C319.289 223.111 320.232 222.256 320.414 221.096H319.395C319.207 221.811 318.615 222.203 317.766 222.203C316.641 222.203 315.914 221.277 315.914 219.818C315.914 218.389 316.629 217.48 317.766 217.48C318.674 217.48 319.23 217.99 319.395 218.617H320.414ZM322.441 215.049V216.684H321.422V217.527H322.441V221.359C322.441 222.566 322.963 223.047 324.264 223.047C324.463 223.047 324.656 223.023 324.855 222.988V222.139C324.668 222.156 324.568 222.162 324.387 222.162C323.73 222.162 323.449 221.846 323.449 221.102V217.527H324.855V216.684H323.449V215.049H322.441ZM328.881 223.111C330.68 223.111 331.793 221.869 331.793 219.842C331.793 217.809 330.68 216.572 328.881 216.572C327.082 216.572 325.969 217.809 325.969 219.842C325.969 221.869 327.082 223.111 328.881 223.111ZM328.881 222.203C327.686 222.203 327.012 221.336 327.012 219.842C327.012 218.342 327.686 217.48 328.881 217.48C330.076 217.48 330.75 218.342 330.75 219.842C330.75 221.336 330.076 222.203 328.881 222.203ZM333.375 223H334.383V219.086C334.383 218.195 335.08 217.551 336.041 217.551C336.24 217.551 336.604 217.586 336.686 217.609V216.602C336.557 216.584 336.346 216.572 336.182 216.572C335.344 216.572 334.617 217.006 334.43 217.621H334.336V216.684H333.375V223ZM337.682 218.412C337.682 219.326 338.221 219.836 339.404 220.123L340.488 220.387C341.162 220.551 341.49 220.844 341.49 221.277C341.49 221.857 340.881 222.262 340.031 222.262C339.223 222.262 338.719 221.922 338.549 221.389H337.512C337.623 222.438 338.59 223.111 339.996 223.111C341.432 223.111 342.527 222.332 342.527 221.201C342.527 220.293 341.953 219.777 340.764 219.49L339.791 219.256C339.047 219.074 338.695 218.805 338.695 218.371C338.695 217.809 339.281 217.428 340.031 217.428C340.793 217.428 341.285 217.762 341.42 218.266H342.416C342.281 217.229 341.361 216.572 340.037 216.572C338.695 216.572 337.682 217.363 337.682 218.412Z" fill="#9E9E9E"/>
<path d="M376.482 223.199C378.281 223.199 379.617 222.197 379.898 220.645H378.826C378.557 221.623 377.66 222.227 376.482 222.227C374.854 222.227 373.834 220.896 373.834 218.775C373.834 216.654 374.854 215.318 376.477 215.318C377.643 215.318 378.545 216.004 378.826 217.094H379.898C379.646 215.465 378.258 214.346 376.477 214.346C374.18 214.346 372.75 216.045 372.75 218.775C372.75 221.5 374.186 223.199 376.482 223.199ZM386.648 216.684H385.641V220.422C385.641 221.529 385.031 222.191 383.918 222.191C382.91 222.191 382.488 221.664 382.488 220.527V216.684H381.48V220.773C381.48 222.268 382.219 223.111 383.637 223.111C384.604 223.111 385.277 222.713 385.594 222.01H385.688V223H386.648V216.684ZM388.4 218.412C388.4 219.326 388.939 219.836 390.123 220.123L391.207 220.387C391.881 220.551 392.209 220.844 392.209 221.277C392.209 221.857 391.6 222.262 390.75 222.262C389.941 222.262 389.438 221.922 389.268 221.389H388.23C388.342 222.438 389.309 223.111 390.715 223.111C392.15 223.111 393.246 222.332 393.246 221.201C393.246 220.293 392.672 219.777 391.482 219.49L390.51 219.256C389.766 219.074 389.414 218.805 389.414 218.371C389.414 217.809 390 217.428 390.75 217.428C391.512 217.428 392.004 217.762 392.139 218.266H393.135C393 217.229 392.08 216.572 390.756 216.572C389.414 216.572 388.4 217.363 388.4 218.412ZM395.191 215.049V216.684H394.172V217.527H395.191V221.359C395.191 222.566 395.713 223.047 397.014 223.047C397.213 223.047 397.406 223.023 397.605 222.988V222.139C397.418 222.156 397.318 222.162 397.137 222.162C396.48 222.162 396.199 221.846 396.199 221.102V217.527H397.605V216.684H396.199V215.049H395.191ZM401.631 223.111C403.43 223.111 404.543 221.869 404.543 219.842C404.543 217.809 403.43 216.572 401.631 216.572C399.832 216.572 398.719 217.809 398.719 219.842C398.719 221.869 399.832 223.111 401.631 223.111ZM401.631 222.203C400.436 222.203 399.762 221.336 399.762 219.842C399.762 218.342 400.436 217.48 401.631 217.48C402.826 217.48 403.5 218.342 403.5 219.842C403.5 221.336 402.826 222.203 401.631 222.203ZM406.125 223H407.133V219.086C407.133 218.195 407.771 217.48 408.598 217.48C409.395 217.48 409.916 217.961 409.916 218.711V223H410.924V218.939C410.924 218.137 411.51 217.48 412.389 217.48C413.279 217.48 413.719 217.938 413.719 218.869V223H414.727V218.635C414.727 217.311 414.006 216.572 412.717 216.572C411.844 216.572 411.123 217.012 410.783 217.68H410.689C410.396 217.023 409.799 216.572 408.943 216.572C408.1 216.572 407.467 216.977 407.18 217.68H407.086V216.684H406.125V223ZM419.086 217.463C420.088 217.463 420.756 218.201 420.779 219.32H417.299C417.375 218.201 418.078 217.463 419.086 217.463ZM420.75 221.365C420.486 221.922 419.936 222.221 419.121 222.221C418.049 222.221 417.352 221.43 417.299 220.182V220.135H421.84V219.748C421.84 217.785 420.803 216.572 419.098 216.572C417.363 216.572 416.25 217.861 416.25 219.848C416.25 221.846 417.346 223.111 419.098 223.111C420.48 223.111 421.453 222.449 421.758 221.365H420.75ZM423.422 223H424.43V219.086C424.43 218.195 425.127 217.551 426.088 217.551C426.287 217.551 426.65 217.586 426.732 217.609V216.602C426.604 216.584 426.393 216.572 426.229 216.572C425.391 216.572 424.664 217.006 424.477 217.621H424.383V216.684H423.422V223ZM427.729 218.412C427.729 219.326 428.268 219.836 429.451 220.123L430.535 220.387C431.209 220.551 431.537 220.844 431.537 221.277C431.537 221.857 430.928 222.262 430.078 222.262C429.27 222.262 428.766 221.922 428.596 221.389H427.559C427.67 222.438 428.637 223.111 430.043 223.111C431.479 223.111 432.574 222.332 432.574 221.201C432.574 220.293 432 219.777 430.811 219.49L429.838 219.256C429.094 219.074 428.742 218.805 428.742 218.371C428.742 217.809 429.328 217.428 430.078 217.428C430.84 217.428 431.332 217.762 431.467 218.266H432.463C432.328 217.229 431.408 216.572 430.084 216.572C428.742 216.572 427.729 217.363 427.729 218.412Z" fill="#9E9E9E"/>
<path d="M467.762 214.545H466.707V220.094C466.707 221.898 467.967 223.199 470.064 223.199C472.162 223.199 473.422 221.898 473.422 220.094V214.545H472.367V220.023C472.367 221.301 471.529 222.227 470.064 222.227C468.6 222.227 467.762 221.301 467.762 220.023V214.545ZM475.332 218.412C475.332 219.326 475.871 219.836 477.055 220.123L478.139 220.387C478.812 220.551 479.141 220.844 479.141 221.277C479.141 221.857 478.531 222.262 477.682 222.262C476.873 222.262 476.369 221.922 476.199 221.389H475.162C475.273 222.438 476.24 223.111 477.646 223.111C479.082 223.111 480.178 222.332 480.178 221.201C480.178 220.293 479.604 219.777 478.414 219.49L477.441 219.256C476.697 219.074 476.346 218.805 476.346 218.371C476.346 217.809 476.932 217.428 477.682 217.428C478.443 217.428 478.936 217.762 479.07 218.266H480.066C479.932 217.229 479.012 216.572 477.688 216.572C476.346 216.572 475.332 217.363 475.332 218.412ZM484.279 217.463C485.281 217.463 485.949 218.201 485.973 219.32H482.492C482.568 218.201 483.271 217.463 484.279 217.463ZM485.943 221.365C485.68 221.922 485.129 222.221 484.314 222.221C483.242 222.221 482.545 221.43 482.492 220.182V220.135H487.033V219.748C487.033 217.785 485.996 216.572 484.291 216.572C482.557 216.572 481.443 217.861 481.443 219.848C481.443 221.846 482.539 223.111 484.291 223.111C485.674 223.111 486.646 222.449 486.951 221.365H485.943ZM488.615 223H489.623V219.086C489.623 218.195 490.32 217.551 491.281 217.551C491.48 217.551 491.844 217.586 491.926 217.609V216.602C491.797 216.584 491.586 216.572 491.422 216.572C490.584 216.572 489.857 217.006 489.67 217.621H489.576V216.684H488.615V223ZM492.922 218.412C492.922 219.326 493.461 219.836 494.645 220.123L495.729 220.387C496.402 220.551 496.73 220.844 496.73 221.277C496.73 221.857 496.121 222.262 495.271 222.262C494.463 222.262 493.959 221.922 493.789 221.389H492.752C492.863 222.438 493.83 223.111 495.236 223.111C496.672 223.111 497.768 222.332 497.768 221.201C497.768 220.293 497.193 219.777 496.004 219.49L495.031 219.256C494.287 219.074 493.936 218.805 493.936 218.371C493.936 217.809 494.521 217.428 495.271 217.428C496.033 217.428 496.525 217.762 496.66 218.266H497.656C497.521 217.229 496.602 216.572 495.277 216.572C493.936 216.572 492.922 217.363 492.922 218.412Z" fill="#9E9E9E"/>
<path d="M724.354 199.354C724.549 199.158 724.549 198.842 724.354 198.646L721.172 195.464C720.976 195.269 720.66 195.269 720.464 195.464C720.269 195.66 720.269 195.976 720.464 196.172L723.293 199L720.464 201.828C720.269 202.024 720.269 202.34 720.464 202.536C720.66 202.731 720.976 202.731 721.172 202.536L724.354 199.354ZM4 199.5H724V198.5H4V199.5Z" fill="#D7D7D7"/>
<line x1="309.5" y1="203" x2="309.5" y2="199" stroke="#D7D7D7"/>
<line x1="405.5" y1="203" x2="405.5" y2="199" stroke="#D7D7D7"/>
<line x1="481.5" y1="203" x2="481.5" y2="199" stroke="#D7D7D7"/>
<path d="M4.85356 0.646454C4.6583 0.451187 4.34172 0.451187 4.14646 0.646454L0.964475 3.82843C0.769212 4.0237 0.769212 4.34027 0.964475 4.53554C1.15974 4.73079 1.47632 4.73079 1.67158 4.53554L4.50001 1.70711L7.32844 4.53554C7.5237 4.73079 7.84028 4.73079 8.03554 4.53554C8.2308 4.34027 8.2308 4.0237 8.03554 3.82843L4.85356 0.646454ZM5 199L5.00001 1L4.00001 1L4 199L5 199Z" fill="#D7D7D7"/>
<path d="M87.5 156.5C41.5 118 5 23 5 23V199H214C214 199 133.5 195 87.5 156.5Z" fill="url(#paint0_linear)" fill-opacity="0.8"/>
<path opacity="0.5" d="M5 23C5 23 38.2308 107.231 74.5 143.5C110.769 179.769 140 189.5 214 198.5" stroke="#FF5722" stroke-width="2" stroke-linecap="round"/>
<line x1="165.5" y1="199" x2="165.5" y2="191" stroke="#D7D7D7" stroke-dasharray="4 4"/>
<line x1="77.5" y1="199" x2="77.5" y2="147" stroke="#D7D7D7" stroke-dasharray="4 4"/>
<path d="M650.764 220.791C650.875 222.25 652.111 223.199 653.904 223.199C655.838 223.199 657.062 222.209 657.062 220.656C657.062 219.414 656.359 218.734 654.607 218.295L653.723 218.061C652.557 217.762 652.094 217.381 652.094 216.719C652.094 215.863 652.838 215.301 653.963 215.301C655.018 215.301 655.732 215.816 655.879 216.684H656.939C656.852 215.318 655.633 214.346 653.998 214.346C652.211 214.346 651.01 215.318 651.01 216.754C651.01 217.955 651.672 218.646 653.201 219.033L654.285 219.314C655.451 219.607 655.979 220.064 655.979 220.785C655.979 221.623 655.141 222.238 654.004 222.238C652.803 222.238 651.959 221.676 651.83 220.791H650.764ZM659.113 215.049V216.684H658.094V217.527H659.113V221.359C659.113 222.566 659.635 223.047 660.936 223.047C661.135 223.047 661.328 223.023 661.527 222.988V222.139C661.34 222.156 661.24 222.162 661.059 222.162C660.402 222.162 660.121 221.846 660.121 221.102V217.527H661.527V216.684H660.121V215.049H659.113ZM664.996 222.227C664.264 222.227 663.719 221.852 663.719 221.207C663.719 220.574 664.141 220.24 665.102 220.176L666.801 220.064V220.645C666.801 221.547 666.033 222.227 664.996 222.227ZM664.809 223.111C665.652 223.111 666.344 222.742 666.754 222.068H666.848V223H667.809V218.676C667.809 217.363 666.947 216.572 665.406 216.572C664.059 216.572 663.062 217.24 662.928 218.254H663.947C664.088 217.756 664.615 217.469 665.371 217.469C666.314 217.469 666.801 217.896 666.801 218.676V219.25L664.979 219.361C663.508 219.449 662.676 220.1 662.676 221.23C662.676 222.385 663.584 223.111 664.809 223.111ZM670.832 219.443H670.738V214.176H669.73V223H670.738V220.604L671.342 220.041L673.709 223H674.992L672.092 219.391L674.811 216.684H673.574L670.832 219.443ZM678.414 217.463C679.416 217.463 680.084 218.201 680.107 219.32H676.627C676.703 218.201 677.406 217.463 678.414 217.463ZM680.078 221.365C679.814 221.922 679.264 222.221 678.449 222.221C677.377 222.221 676.68 221.43 676.627 220.182V220.135H681.168V219.748C681.168 217.785 680.131 216.572 678.426 216.572C676.691 216.572 675.578 217.861 675.578 219.848C675.578 221.846 676.674 223.111 678.426 223.111C679.809 223.111 680.781 222.449 681.086 221.365H680.078ZM682.809 223H683.816V219.262C683.816 218.195 684.438 217.48 685.568 217.48C686.523 217.48 687.027 218.037 687.027 219.156V223H688.035V218.91C688.035 217.428 687.191 216.572 685.855 216.572C684.889 216.572 684.227 216.982 683.91 217.68H683.816V214.176H682.809V223ZM692.471 223.111C694.27 223.111 695.383 221.869 695.383 219.842C695.383 217.809 694.27 216.572 692.471 216.572C690.672 216.572 689.559 217.809 689.559 219.842C689.559 221.869 690.672 223.111 692.471 223.111ZM692.471 222.203C691.275 222.203 690.602 221.336 690.602 219.842C690.602 218.342 691.275 217.48 692.471 217.48C693.666 217.48 694.34 218.342 694.34 219.842C694.34 221.336 693.666 222.203 692.471 222.203ZM697.023 223H698.031V214.176H697.023V223ZM702.326 223.111C703.199 223.111 703.949 222.695 704.348 221.992H704.441V223H705.402V214.176H704.395V217.68H704.307C703.949 216.988 703.205 216.572 702.326 216.572C700.721 216.572 699.672 217.861 699.672 219.842C699.672 221.828 700.709 223.111 702.326 223.111ZM702.561 217.48C703.703 217.48 704.418 218.395 704.418 219.842C704.418 221.301 703.709 222.203 702.561 222.203C701.406 222.203 700.715 221.318 700.715 219.842C700.715 218.371 701.412 217.48 702.561 217.48ZM709.879 217.463C710.881 217.463 711.549 218.201 711.572 219.32H708.092C708.168 218.201 708.871 217.463 709.879 217.463ZM711.543 221.365C711.279 221.922 710.729 222.221 709.914 222.221C708.842 222.221 708.145 221.43 708.092 220.182V220.135H712.633V219.748C712.633 217.785 711.596 216.572 709.891 216.572C708.156 216.572 707.043 217.861 707.043 219.848C707.043 221.846 708.139 223.111 709.891 223.111C711.273 223.111 712.246 222.449 712.551 221.365H711.543ZM714.215 223H715.223V219.086C715.223 218.195 715.92 217.551 716.881 217.551C717.08 217.551 717.443 217.586 717.525 217.609V216.602C717.396 216.584 717.186 216.572 717.021 216.572C716.184 216.572 715.457 217.006 715.27 217.621H715.176V216.684H714.215V223ZM718.521 218.412C718.521 219.326 719.061 219.836 720.244 220.123L721.328 220.387C722.002 220.551 722.33 220.844 722.33 221.277C722.33 221.857 721.721 222.262 720.871 222.262C720.062 222.262 719.559 221.922 719.389 221.389H718.352C718.463 222.438 719.43 223.111 720.836 223.111C722.271 223.111 723.367 222.332 723.367 221.201C723.367 220.293 722.793 219.777 721.604 219.49L720.631 219.256C719.887 219.074 719.535 218.805 719.535 218.371C719.535 217.809 720.121 217.428 720.871 217.428C721.633 217.428 722.125 217.762 722.26 218.266H723.256C723.121 217.229 722.201 216.572 720.877 216.572C719.535 216.572 718.521 217.363 718.521 218.412Z" fill="#9E9E9E"/>
<defs>
<linearGradient id="paint0_linear" x1="754.066" y1="23" x2="754.066" y2="199" gradientUnits="userSpaceOnUse">
<stop stop-color="#FF5722" stop-opacity="0.4"/>
<stop offset="1" stop-color="#FF5722" stop-opacity="0"/>
</linearGradient>
</defs>
</svg>