<svg width="728" height="228" viewBox="0 0 728 228" fill="none" xmlns="http://www.w3.org/2000/svg">
<path d="M554.795 12V3.54492H553.025V12H554.795ZM556.846 3.54492V12H558.615V9.375H560.285C562.066 9.375 563.303 8.20898 563.303 6.46875C563.303 4.71094 562.113 3.54492 560.373 3.54492H556.846ZM558.615 4.99805H559.904C560.924 4.99805 561.504 5.51367 561.504 6.47461C561.504 7.42383 560.912 7.93945 559.898 7.93945H558.615V4.99805ZM568.629 3.32812C566.145 3.32812 564.557 5.02734 564.557 7.76953C564.557 10.5117 566.121 12.2168 568.629 12.2168C571.131 12.2168 572.689 10.5117 572.689 7.76953C572.689 5.0332 571.125 3.32812 568.629 3.32812ZM568.629 4.88086C570.006 4.88086 570.885 6 570.885 7.76953C570.885 9.5332 570.006 10.6641 568.629 10.6641C567.24 10.6641 566.367 9.5332 566.367 7.76953C566.367 6 567.258 4.88086 568.629 4.88086Z" fill="#5F5F5F"/>
<path d="M8.00586 224.199C9.9043 224.199 10.9941 222.594 10.9941 219.787C10.9941 216.986 9.88672 215.346 8.00586 215.346C6.11328 215.346 5.00586 216.98 5.00586 219.77C5.00586 222.582 6.10156 224.199 8.00586 224.199ZM8.00586 223.279C6.75781 223.279 6.06641 222.031 6.06641 219.77C6.06641 217.537 6.76953 216.271 8.00586 216.271C9.24219 216.271 9.93359 217.525 9.93359 219.77C9.93359 222.037 9.25391 223.279 8.00586 223.279Z" fill="#5F5F5F"/>
<path d="M68.1641 224H69.2188V215.545H68.1699L65.9199 217.162V218.275L68.0703 216.717H68.1641V224Z" fill="#5F5F5F"/>
<path d="M125.264 217.924V217.93H126.283V217.924C126.283 216.928 126.951 216.266 127.941 216.266C128.873 216.266 129.594 216.916 129.594 217.76C129.594 218.439 129.33 218.896 128.24 220.08L125.316 223.273V224H130.789V223.051H126.828V222.957L128.861 220.771C130.25 219.283 130.648 218.598 130.648 217.719C130.648 216.377 129.488 215.346 127.971 215.346C126.4 215.346 125.264 216.424 125.264 217.924Z" fill="#5F5F5F"/>
<path d="M186.91 220.104H187.982C189.184 220.104 189.928 220.713 189.928 221.691C189.928 222.617 189.137 223.279 188.023 223.279C186.934 223.279 186.172 222.699 186.078 221.797H185.059C185.135 223.244 186.318 224.199 188.035 224.199C189.705 224.199 191.012 223.115 191.012 221.721C191.012 220.566 190.314 219.77 189.166 219.623V219.529C190.092 219.307 190.648 218.568 190.648 217.561C190.648 216.33 189.471 215.346 187.994 215.346C186.383 215.346 185.334 216.248 185.229 217.713H186.254C186.342 216.805 186.98 216.266 187.953 216.266C188.926 216.266 189.576 216.84 189.576 217.701C189.576 218.58 188.896 219.201 187.936 219.201H186.91V220.104Z" fill="#5F5F5F"/>
<path d="M248.943 224H249.975V222.248H251.176V221.305H249.975V215.545H248.445C246.922 217.824 245.58 219.945 244.824 221.287V222.248H248.943V224ZM245.902 221.24C246.91 219.529 248.012 217.783 248.879 216.523H248.949V221.311H245.902V221.24Z" fill="#5F5F5F"/>
<path d="M308.018 224.199C309.77 224.199 310.971 223.027 310.971 221.311C310.971 219.646 309.846 218.48 308.24 218.48C307.461 218.48 306.863 218.721 306.453 219.201H306.359L306.6 216.488H310.49V215.545H305.773L305.311 220.338H306.301C306.646 219.734 307.279 219.389 308.047 219.389C309.154 219.389 309.916 220.18 309.916 221.34C309.916 222.5 309.16 223.273 308.029 223.273C307.033 223.273 306.307 222.664 306.213 221.75H305.176C305.27 223.209 306.418 224.199 308.018 224.199Z" fill="#5F5F5F"/>
<path d="M368.105 224.193C369.84 224.193 371.07 222.98 371.07 221.281C371.07 219.641 369.904 218.451 368.293 218.451C367.285 218.451 366.459 218.932 366.043 219.752H365.949C366.008 217.502 366.787 216.283 368.164 216.283C368.996 216.283 369.635 216.764 369.863 217.555H370.947C370.678 216.195 369.611 215.346 368.176 215.346C366.107 215.346 364.924 217.01 364.924 219.916C364.924 220.848 365.059 221.627 365.334 222.271C365.861 223.514 366.834 224.193 368.105 224.193ZM368.094 223.268C367.01 223.268 366.184 222.412 366.184 221.281C366.184 220.162 366.986 219.365 368.105 219.365C369.225 219.365 370.004 220.162 370.004 221.316C370.004 222.424 369.178 223.268 368.094 223.268Z" fill="#5F5F5F"/>
<path d="M425.873 224H426.98L430.742 216.523V215.545H425.146V216.488H429.67V216.57L425.873 224Z" fill="#5F5F5F"/>
<path d="M488 224.199C489.793 224.199 491.047 223.186 491.047 221.738C491.047 220.637 490.35 219.781 489.289 219.582V219.488C490.162 219.248 490.701 218.527 490.701 217.602C490.701 216.283 489.582 215.346 488 215.346C486.418 215.346 485.299 216.283 485.299 217.602C485.299 218.521 485.85 219.254 486.711 219.488V219.582C485.65 219.781 484.953 220.637 484.953 221.738C484.953 223.186 486.207 224.199 488 224.199ZM488 223.297C486.828 223.297 486.02 222.629 486.02 221.662C486.02 220.695 486.828 220.027 488 220.027C489.172 220.027 489.98 220.695 489.98 221.662C489.98 222.629 489.172 223.297 488 223.297ZM488 219.137C487.004 219.137 486.336 218.562 486.336 217.701C486.336 216.828 486.998 216.248 488 216.248C489.002 216.248 489.664 216.828 489.664 217.701C489.664 218.562 488.996 219.137 488 219.137Z" fill="#5F5F5F"/>
<path d="M547.818 224.193C549.887 224.193 551.07 222.529 551.07 219.623C551.07 218.691 550.936 217.912 550.66 217.268C550.133 216.02 549.154 215.346 547.889 215.346C546.154 215.346 544.924 216.559 544.924 218.258C544.924 219.898 546.09 221.088 547.701 221.088C548.709 221.088 549.535 220.607 549.951 219.787H549.975H549.998H550.045C549.986 222.037 549.207 223.256 547.83 223.256C546.998 223.256 546.359 222.775 546.131 221.984H545.047C545.316 223.344 546.383 224.193 547.818 224.193ZM547.889 220.174C546.77 220.174 545.99 219.377 545.99 218.223C545.99 217.115 546.816 216.271 547.9 216.271C548.984 216.271 549.811 217.127 549.811 218.258C549.811 219.377 549.008 220.174 547.889 220.174Z" fill="#5F5F5F"/>
<path d="M604.385 224H605.439V215.545H604.391L602.141 217.162V218.275L604.291 216.717H604.385V224ZM610.807 224.199C612.705 224.199 613.795 222.594 613.795 219.787C613.795 216.986 612.688 215.346 610.807 215.346C608.914 215.346 607.807 216.98 607.807 219.77C607.807 222.582 608.902 224.199 610.807 224.199ZM610.807 223.279C609.559 223.279 608.867 222.031 608.867 219.77C608.867 217.537 609.57 216.271 610.807 216.271C612.043 216.271 612.734 217.525 612.734 219.77C612.734 222.037 612.055 223.279 610.807 223.279Z" fill="#5F5F5F"/>
<path d="M665.363 224H666.418V215.545H665.369L663.119 217.162V218.275L665.27 216.717H665.363V224ZM670.965 224H672.02V215.545H670.971L668.721 217.162V218.275L670.871 216.717H670.965V224Z" fill="#5F5F5F"/>
<path d="M727.349 200.354C727.544 200.158 727.544 199.842 727.349 199.646L724.167 196.464C723.971 196.269 723.655 196.269 723.46 196.464C723.264 196.66 723.264 196.976 723.46 197.172L726.288 200L723.46 202.828C723.264 203.024 723.264 203.34 723.46 203.536C723.655 203.731 723.971 203.731 724.167 203.536L727.349 200.354ZM6.99707 200.5L726.995 200.5L726.995 199.5L6.99707 199.5L6.99707 200.5Z" fill="#D7D7D7"/>
<line x1="607.496" y1="204" x2="607.496" y2="196" stroke="#D7D7D7"/>
<line x1="667.496" y1="204" x2="667.496" y2="196" stroke="#D7D7D7"/>
<line x1="547.496" y1="204" x2="547.496" y2="196" stroke="#D7D7D7"/>
<line x1="427.496" y1="204" x2="427.496" y2="196" stroke="#D7D7D7"/>
<line x1="487.496" y1="204" x2="487.496" y2="196" stroke="#D7D7D7"/>
<line x1="367.496" y1="204" x2="367.496" y2="196" stroke="#D7D7D7"/>
<line x1="307.496" y1="204" x2="307.496" y2="196" stroke="#D7D7D7"/>
<line x1="127.496" y1="204" x2="127.496" y2="196" stroke="#D7D7D7"/>
<line x1="187.496" y1="204" x2="187.496" y2="196" stroke="#D7D7D7"/>
<line x1="247.496" y1="204" x2="247.496" y2="196" stroke="#D7D7D7"/>
<line x1="67.4961" y1="204" x2="67.4961" y2="196" stroke="#D7D7D7"/>
<line x1="7.49609" y1="204" x2="7.49609" y2="196" stroke="#D7D7D7"/>
<line x1="543.5" y1="200" x2="543.5" y2="2.18557e-08" stroke="#D7D7D7" stroke-dasharray="4 4"/>
<line x1="67.4951" y1="199" x2="67.4951" y2="-2.25428e-08" stroke="#D7D7D7" stroke-dasharray="4 4"/>
<path opacity="0.6" d="M67.9951 200V186L37.7674 195.561L6.99505 200H67.9951Z" fill="url(#paint0_linear)"/>
<path opacity="0.8" d="M67.9951 186L37.9233 195.512C37.8196 195.544 37.7133 195.569 37.6057 195.584L6.99505 200" stroke="#00D1C1" stroke-width="2"/>
<path opacity="0.3" d="M630.904 200L727 200L727 0L544 -1.59984e-05L544 200L630.904 200Z" fill="url(#paint1_linear)"/>
<path opacity="0.3" d="M35.4932 200L67 200L67 0L6.99999 -5.24537e-06L6.99998 200L35.4932 200Z" fill="url(#paint2_linear)"/>
<path d="M396.375 117.061L263.511 150.591C263.371 150.626 263.227 150.646 263.083 150.65L152.427 154.047C152.213 154.054 152.001 154.095 151.8 154.169L69.7186 184.294C68.9312 184.583 68.4077 185.333 68.4077 186.172V198C68.4077 199.105 69.3031 200 70.4077 200H542.877C543.982 200 544.877 199.105 544.877 198V119C544.877 117.895 543.982 117 542.877 117H396.864C396.699 117 396.535 117.02 396.375 117.061Z" fill="url(#paint3_linear)" fill-opacity="0.7"/>
<path d="M67.9951 186L151.124 154.843C151.328 154.766 151.544 154.723 151.763 154.716L262.064 151.259C262.211 151.254 262.358 151.233 262.5 151.196L394.944 117.063C395.107 117.021 395.275 117 395.443 117H542.994" stroke="#D7D7D7" stroke-width="2"/>
<path opacity="0.6" d="M640.09 54.5285L543.995 116.549V200H726.994V48L640.09 54.5285Z" fill="url(#paint4_linear)"/>
<path d="M700.375 224V220.361L703.375 215.545H702.174L699.895 219.301H699.801L697.521 215.545H696.32L699.32 220.361V224H700.375ZM706.258 218.463C707.26 218.463 707.928 219.201 707.951 220.32H704.471C704.547 219.201 705.25 218.463 706.258 218.463ZM707.922 222.365C707.658 222.922 707.107 223.221 706.293 223.221C705.221 223.221 704.523 222.43 704.471 221.182V221.135H709.012V220.748C709.012 218.785 707.975 217.572 706.27 217.572C704.535 217.572 703.422 218.861 703.422 220.848C703.422 222.846 704.518 224.111 706.27 224.111C707.652 224.111 708.625 223.449 708.93 222.365H707.922ZM712.539 223.227C711.807 223.227 711.262 222.852 711.262 222.207C711.262 221.574 711.684 221.24 712.645 221.176L714.344 221.064V221.645C714.344 222.547 713.576 223.227 712.539 223.227ZM712.352 224.111C713.195 224.111 713.887 223.742 714.297 223.068H714.391V224H715.352V219.676C715.352 218.363 714.49 217.572 712.949 217.572C711.602 217.572 710.605 218.24 710.471 219.254H711.49C711.631 218.756 712.158 218.469 712.914 218.469C713.857 218.469 714.344 218.896 714.344 219.676V220.25L712.521 220.361C711.051 220.449 710.219 221.1 710.219 222.23C710.219 223.385 711.127 224.111 712.352 224.111ZM717.215 224H718.223V220.086C718.223 219.195 718.92 218.551 719.881 218.551C720.08 218.551 720.443 218.586 720.525 218.609V217.602C720.396 217.584 720.186 217.572 720.021 217.572C719.184 217.572 718.457 218.006 718.27 218.621H718.176V217.684H717.215V224ZM721.521 219.412C721.521 220.326 722.061 220.836 723.244 221.123L724.328 221.387C725.002 221.551 725.33 221.844 725.33 222.277C725.33 222.857 724.721 223.262 723.871 223.262C723.062 223.262 722.559 222.922 722.389 222.389H721.352C721.463 223.438 722.43 224.111 723.836 224.111C725.271 224.111 726.367 223.332 726.367 222.201C726.367 221.293 725.793 220.777 724.604 220.49L723.631 220.256C722.887 220.074 722.535 219.805 722.535 219.371C722.535 218.809 723.121 218.428 723.871 218.428C724.633 218.428 725.125 218.762 725.26 219.266H726.256C726.121 218.229 725.201 217.572 723.877 217.572C722.535 217.572 721.521 218.363 721.521 219.412Z" fill="#5F5F5F"/>
<path opacity="0.8" d="M726.994 48L640.6 54.5329C640.265 54.5582 639.943 54.6673 639.661 54.85L543.995 117" stroke="#00D1C1" stroke-width="2"/>
<defs>
<linearGradient id="paint0_linear" x1="37.4951" y1="186" x2="37.4951" y2="200" gradientUnits="userSpaceOnUse">
<stop stop-color="#84FFF5"/>
<stop offset="1" stop-color="#B3F1EC" stop-opacity="0"/>
</linearGradient>
<linearGradient id="paint1_linear" x1="635.5" y1="200" x2="635.5" y2="-7.99918e-06" gradientUnits="userSpaceOnUse">
<stop stop-color="#84FFF5"/>
<stop offset="1" stop-color="#B3F1EC" stop-opacity="0"/>
</linearGradient>
<linearGradient id="paint2_linear" x1="37" y1="200" x2="37" y2="-2.62268e-06" gradientUnits="userSpaceOnUse">
<stop stop-color="#84FFF5"/>
<stop offset="1" stop-color="#B3F1EC" stop-opacity="0"/>
</linearGradient>
<linearGradient id="paint3_linear" x1="306.643" y1="109.188" x2="306.643" y2="200" gradientUnits="userSpaceOnUse">
<stop stop-color="#C4C4C4" stop-opacity="0.3"/>
<stop offset="1" stop-color="#C4C4C4" stop-opacity="0"/>
</linearGradient>
<linearGradient id="paint4_linear" x1="635.494" y1="48" x2="635.494" y2="200" gradientUnits="userSpaceOnUse">
<stop stop-color="#84FFF5"/>
<stop offset="1" stop-color="#B3F1EC" stop-opacity="0"/>
</linearGradient>
</defs>
</svg>
