<svg width="400" height="400" viewBox="0 0 400 400" fill="none" xmlns="http://www.w3.org/2000/svg">
<circle opacity="0.3" cx="200" cy="200" r="200" fill="url(#paint0_radial)"/>
<circle opacity="0.6" cx="266" cy="85" r="50" fill="url(#paint1_linear)"/>
<path d="M240.488 89V85.707H243.928V84.2598H240.488V82.0566H244.256V80.5449H238.719V89H240.488ZM248.586 89.1406C250.572 89.1406 251.768 87.8809 251.768 85.7656C251.768 83.668 250.555 82.3965 248.586 82.3965C246.617 82.3965 245.404 83.6738 245.404 85.7656C245.404 87.8809 246.6 89.1406 248.586 89.1406ZM248.586 87.7461C247.672 87.7461 247.156 87.0254 247.156 85.7656C247.156 84.5234 247.678 83.791 248.586 83.791C249.488 83.791 250.016 84.5234 250.016 85.7656C250.016 87.0195 249.494 87.7461 248.586 87.7461ZM259.01 82.5371H257.305V86.2637C257.305 87.125 256.848 87.6582 255.998 87.6582C255.213 87.6582 254.809 87.2012 254.809 86.3105V82.5371H253.104V86.75C253.104 88.25 253.971 89.1406 255.365 89.1406C256.344 89.1406 256.947 88.7129 257.252 87.9629H257.357V89H259.01V82.5371ZM260.721 89H262.426V85.2734C262.426 84.4238 262.912 83.8672 263.703 83.8672C264.512 83.8672 264.893 84.3359 264.893 85.2266V89H266.598V84.8223C266.598 83.2754 265.824 82.3965 264.389 82.3965C263.434 82.3965 262.777 82.8477 262.479 83.5742H262.373V82.5371H260.721V89ZM270.57 89.0996C271.467 89.0996 272.199 88.6836 272.545 87.9863H272.65V89H274.303V80.0703H272.598V83.5684H272.498C272.164 82.8535 271.443 82.4316 270.57 82.4316C268.947 82.4316 267.939 83.7031 267.939 85.7598C267.939 87.8223 268.941 89.0996 270.57 89.0996ZM271.15 83.8613C272.059 83.8613 272.615 84.5938 272.615 85.7715C272.615 86.9551 272.064 87.6758 271.15 87.6758C270.236 87.6758 269.691 86.9609 269.691 85.7656C269.691 84.582 270.242 83.8613 271.15 83.8613ZM278.867 83.7031C279.664 83.7031 280.18 84.2363 280.215 85.0918H277.461C277.52 84.2539 278.076 83.7031 278.867 83.7031ZM280.25 87.1602C280.068 87.5879 279.605 87.8281 278.932 87.8281C278.041 87.8281 277.479 87.2305 277.455 86.2695V86.1816H281.891V85.6602C281.891 83.6094 280.766 82.3965 278.861 82.3965C276.939 82.3965 275.756 83.6973 275.756 85.8008C275.756 87.8984 276.916 89.1406 278.885 89.1406C280.467 89.1406 281.58 88.3789 281.838 87.1602H280.25ZM283.291 89H284.996V85.4199C284.996 84.5117 285.635 83.9609 286.566 83.9609C286.842 83.9609 287.24 84.0137 287.375 84.0664V82.5137C287.229 82.4609 286.941 82.4316 286.707 82.4316C285.887 82.4316 285.219 82.9238 285.049 83.5684H284.943V82.5371H283.291V89ZM288.219 84.4355C288.219 85.4316 288.828 86.0293 290.082 86.3047L291.254 86.5684C291.822 86.6914 292.068 86.8848 292.068 87.2012C292.068 87.6172 291.611 87.8926 290.949 87.8926C290.27 87.8926 289.854 87.6406 289.725 87.2012H288.061C288.178 88.4434 289.209 89.1406 290.914 89.1406C292.607 89.1406 293.762 88.2969 293.762 87.0078C293.762 86.041 293.199 85.5137 291.945 85.2383L290.732 84.9746C290.135 84.8398 289.859 84.6465 289.859 84.3301C289.859 83.9199 290.311 83.6445 290.92 83.6445C291.553 83.6445 291.945 83.9023 292.033 84.3184H293.609C293.516 83.082 292.549 82.3965 290.908 82.3965C289.297 82.3965 288.219 83.2109 288.219 84.4355Z" fill="#00857A"/>
<circle opacity="0.6" cx="133" cy="315" r="50" fill="url(#paint2_linear)"/>
<path d="M106.74 319V310.545H104.971V319H106.74ZM108.621 319H110.326V315.273C110.326 314.424 110.812 313.867 111.604 313.867C112.412 313.867 112.793 314.336 112.793 315.227V319H114.498V314.822C114.498 313.275 113.725 312.396 112.289 312.396C111.334 312.396 110.678 312.848 110.379 313.574H110.273V312.537H108.621V319ZM121.822 312.537H120.023L118.699 317.354H118.594L117.258 312.537H115.424L117.668 319H119.59L121.822 312.537ZM125.502 313.703C126.299 313.703 126.814 314.236 126.85 315.092H124.096C124.154 314.254 124.711 313.703 125.502 313.703ZM126.885 317.16C126.703 317.588 126.24 317.828 125.566 317.828C124.676 317.828 124.113 317.23 124.09 316.27V316.182H128.525V315.66C128.525 313.609 127.4 312.396 125.496 312.396C123.574 312.396 122.391 313.697 122.391 315.801C122.391 317.898 123.551 319.141 125.52 319.141C127.102 319.141 128.215 318.379 128.473 317.16H126.885ZM129.779 314.436C129.779 315.432 130.389 316.029 131.643 316.305L132.814 316.568C133.383 316.691 133.629 316.885 133.629 317.201C133.629 317.617 133.172 317.893 132.51 317.893C131.83 317.893 131.414 317.641 131.285 317.201H129.621C129.738 318.443 130.77 319.141 132.475 319.141C134.168 319.141 135.322 318.297 135.322 317.008C135.322 316.041 134.76 315.514 133.506 315.238L132.293 314.975C131.695 314.84 131.42 314.646 131.42 314.33C131.42 313.92 131.871 313.645 132.48 313.645C133.113 313.645 133.506 313.902 133.594 314.318H135.17C135.076 313.082 134.109 312.396 132.469 312.396C130.857 312.396 129.779 313.211 129.779 314.436ZM137.174 311.002V312.602H136.166V313.943H137.174V317.254C137.174 318.514 137.795 319.023 139.365 319.023C139.693 319.023 140.01 318.988 140.221 318.947V317.646C140.057 317.664 139.939 317.67 139.717 317.67C139.137 317.67 138.879 317.412 138.879 316.85V313.943H140.221V312.602H138.879V311.002H137.174ZM144.463 319.141C146.449 319.141 147.645 317.881 147.645 315.766C147.645 313.668 146.432 312.396 144.463 312.396C142.494 312.396 141.281 313.674 141.281 315.766C141.281 317.881 142.477 319.141 144.463 319.141ZM144.463 317.746C143.549 317.746 143.033 317.025 143.033 315.766C143.033 314.523 143.555 313.791 144.463 313.791C145.365 313.791 145.893 314.523 145.893 315.766C145.893 317.02 145.371 317.746 144.463 317.746ZM149.039 319H150.744V315.42C150.744 314.512 151.383 313.961 152.314 313.961C152.59 313.961 152.988 314.014 153.123 314.066V312.514C152.977 312.461 152.689 312.432 152.455 312.432C151.635 312.432 150.967 312.924 150.797 313.568H150.691V312.537H149.039V319ZM153.967 314.436C153.967 315.432 154.576 316.029 155.83 316.305L157.002 316.568C157.57 316.691 157.816 316.885 157.816 317.201C157.816 317.617 157.359 317.893 156.697 317.893C156.018 317.893 155.602 317.641 155.473 317.201H153.809C153.926 318.443 154.957 319.141 156.662 319.141C158.355 319.141 159.51 318.297 159.51 317.008C159.51 316.041 158.947 315.514 157.693 315.238L156.48 314.975C155.883 314.84 155.607 314.646 155.607 314.33C155.607 313.92 156.059 313.645 156.668 313.645C157.301 313.645 157.693 313.902 157.781 314.318H159.357C159.264 313.082 158.297 312.396 156.656 312.396C155.045 312.396 153.967 313.211 153.967 314.436Z" fill="#00857A"/>
<circle opacity="0.6" cx="266" cy="315" r="50" fill="url(#paint3_linear)"/>
<path d="M239.025 317.488H235.193V315.432H238.809V314.031H235.193V312.057H239.025V310.545H233.424V319H239.025V317.488ZM240.719 319H242.424V315.109C242.424 314.389 242.898 313.867 243.566 313.867C244.234 313.867 244.633 314.26 244.633 314.945V319H246.273V315.045C246.273 314.359 246.719 313.867 247.41 313.867C248.131 313.867 248.488 314.248 248.488 315.016V319H250.193V314.564C250.193 313.234 249.391 312.396 248.102 312.396C247.199 312.396 246.455 312.871 246.156 313.592H246.051C245.793 312.842 245.172 312.396 244.264 312.396C243.414 312.396 242.74 312.854 242.477 313.592H242.371V312.537H240.719V319ZM255.584 312.432C254.693 312.432 253.961 312.871 253.609 313.598H253.504V312.537H251.852V321.145H253.557V318.01H253.662C253.979 318.695 254.688 319.1 255.613 319.1C257.23 319.1 258.221 317.852 258.221 315.766C258.221 313.674 257.219 312.432 255.584 312.432ZM255.004 317.676C254.102 317.676 253.539 316.955 253.539 315.771C253.539 314.588 254.102 313.861 255.01 313.861C255.918 313.861 256.469 314.582 256.469 315.766C256.469 316.961 255.924 317.676 255.004 317.676ZM259.668 319H261.373V310.07H259.668V319ZM266.014 319.141C268 319.141 269.195 317.881 269.195 315.766C269.195 313.668 267.982 312.396 266.014 312.396C264.045 312.396 262.832 313.674 262.832 315.766C262.832 317.881 264.027 319.141 266.014 319.141ZM266.014 317.746C265.1 317.746 264.584 317.025 264.584 315.766C264.584 314.523 265.105 313.791 266.014 313.791C266.916 313.791 267.443 314.523 267.443 315.766C267.443 317.02 266.922 317.746 266.014 317.746ZM271.123 321.35C272.734 321.35 273.525 320.764 274.076 319.1L276.303 312.537H274.498L273.139 317.436H273.033L271.674 312.537H269.793L272.061 319.041L272.002 319.275C271.861 319.768 271.498 319.973 270.859 319.973C270.789 319.973 270.531 319.973 270.473 319.961V321.332C270.543 321.344 271.059 321.35 271.123 321.35ZM280.018 313.703C280.814 313.703 281.33 314.236 281.365 315.092H278.611C278.67 314.254 279.227 313.703 280.018 313.703ZM281.4 317.16C281.219 317.588 280.756 317.828 280.082 317.828C279.191 317.828 278.629 317.23 278.605 316.27V316.182H283.041V315.66C283.041 313.609 281.916 312.396 280.012 312.396C278.09 312.396 276.906 313.697 276.906 315.801C276.906 317.898 278.066 319.141 280.035 319.141C281.617 319.141 282.73 318.379 282.988 317.16H281.4ZM287.236 313.703C288.033 313.703 288.549 314.236 288.584 315.092H285.83C285.889 314.254 286.445 313.703 287.236 313.703ZM288.619 317.16C288.438 317.588 287.975 317.828 287.301 317.828C286.41 317.828 285.848 317.23 285.824 316.27V316.182H290.26V315.66C290.26 313.609 289.135 312.396 287.23 312.396C285.309 312.396 284.125 313.697 284.125 315.801C284.125 317.898 285.285 319.141 287.254 319.141C288.836 319.141 289.949 318.379 290.207 317.16H288.619ZM291.514 314.436C291.514 315.432 292.123 316.029 293.377 316.305L294.549 316.568C295.117 316.691 295.363 316.885 295.363 317.201C295.363 317.617 294.906 317.893 294.244 317.893C293.564 317.893 293.148 317.641 293.02 317.201H291.355C291.473 318.443 292.504 319.141 294.209 319.141C295.902 319.141 297.057 318.297 297.057 317.008C297.057 316.041 296.494 315.514 295.24 315.238L294.027 314.975C293.43 314.84 293.154 314.646 293.154 314.33C293.154 313.92 293.605 313.645 294.215 313.645C294.848 313.645 295.24 313.902 295.328 314.318H296.904C296.811 313.082 295.844 312.396 294.203 312.396C292.592 312.396 291.514 313.211 291.514 314.436Z" fill="#00857A"/>
<circle opacity="0.6" cx="332" cy="199" r="50" fill="url(#paint4_linear)"/>
<path d="M300.441 203.217C302.48 203.217 303.969 201.957 304.115 200.129H302.393C302.223 201.061 301.461 201.658 300.447 201.658C299.111 201.658 298.285 200.551 298.285 198.77C298.285 196.988 299.111 195.887 300.441 195.887C301.449 195.887 302.217 196.525 302.387 197.498H304.109C303.98 195.658 302.445 194.328 300.441 194.328C297.986 194.328 296.475 196.021 296.475 198.77C296.475 201.523 297.992 203.217 300.441 203.217ZM308.439 203.141C310.426 203.141 311.621 201.881 311.621 199.766C311.621 197.668 310.408 196.396 308.439 196.396C306.471 196.396 305.258 197.674 305.258 199.766C305.258 201.881 306.453 203.141 308.439 203.141ZM308.439 201.746C307.525 201.746 307.01 201.025 307.01 199.766C307.01 198.523 307.531 197.791 308.439 197.791C309.342 197.791 309.869 198.523 309.869 199.766C309.869 201.02 309.348 201.746 308.439 201.746ZM313.016 203H314.721V199.273C314.721 198.424 315.207 197.867 315.998 197.867C316.807 197.867 317.188 198.336 317.188 199.227V203H318.893V198.822C318.893 197.275 318.119 196.396 316.684 196.396C315.729 196.396 315.072 196.848 314.773 197.574H314.668V196.537H313.016V203ZM321.037 195.002V196.602H320.029V197.943H321.037V201.254C321.037 202.514 321.658 203.023 323.229 203.023C323.557 203.023 323.873 202.988 324.084 202.947V201.646C323.92 201.664 323.803 201.67 323.58 201.67C323 201.67 322.742 201.412 322.742 200.85V197.943H324.084V196.602H322.742V195.002H321.037ZM325.508 203H327.213V199.42C327.213 198.512 327.852 197.961 328.783 197.961C329.059 197.961 329.457 198.014 329.592 198.066V196.514C329.445 196.461 329.158 196.432 328.924 196.432C328.104 196.432 327.436 196.924 327.266 197.568H327.16V196.537H325.508V203ZM332.949 201.816C332.357 201.816 331.941 201.523 331.941 201.043C331.941 200.58 332.299 200.316 333.031 200.264L334.338 200.182V200.656C334.338 201.312 333.74 201.816 332.949 201.816ZM332.387 203.1C333.225 203.1 333.928 202.748 334.262 202.156H334.367V203H336.02V198.588C336.02 197.205 335.053 196.396 333.342 196.396C331.719 196.396 330.623 197.146 330.512 198.342H332.082C332.223 197.955 332.633 197.744 333.248 197.744C333.951 197.744 334.338 198.049 334.338 198.588V199.115L332.773 199.209C331.168 199.303 330.271 199.982 330.271 201.154C330.271 202.338 331.145 203.1 332.387 203.1ZM343.414 198.816C343.273 197.346 342.248 196.396 340.537 196.396C338.516 196.396 337.379 197.609 337.379 199.754C337.379 201.922 338.521 203.141 340.537 203.141C342.219 203.141 343.273 202.209 343.414 200.762H341.82C341.691 201.4 341.234 201.74 340.537 201.74C339.623 201.74 339.102 201.043 339.102 199.754C339.102 198.482 339.617 197.797 340.537 197.797C341.264 197.797 341.703 198.201 341.82 198.816H343.414ZM345.295 195.002V196.602H344.287V197.943H345.295V201.254C345.295 202.514 345.916 203.023 347.486 203.023C347.814 203.023 348.131 202.988 348.342 202.947V201.646C348.178 201.664 348.061 201.67 347.838 201.67C347.258 201.67 347 201.412 347 200.85V197.943H348.342V196.602H347V195.002H345.295ZM352.584 203.141C354.57 203.141 355.766 201.881 355.766 199.766C355.766 197.668 354.553 196.396 352.584 196.396C350.615 196.396 349.402 197.674 349.402 199.766C349.402 201.881 350.598 203.141 352.584 203.141ZM352.584 201.746C351.67 201.746 351.154 201.025 351.154 199.766C351.154 198.523 351.676 197.791 352.584 197.791C353.486 197.791 354.014 198.523 354.014 199.766C354.014 201.02 353.492 201.746 352.584 201.746ZM357.16 203H358.865V199.42C358.865 198.512 359.504 197.961 360.436 197.961C360.711 197.961 361.109 198.014 361.244 198.066V196.514C361.098 196.461 360.811 196.432 360.576 196.432C359.756 196.432 359.088 196.924 358.918 197.568H358.812V196.537H357.16V203ZM362.088 198.436C362.088 199.432 362.697 200.029 363.951 200.305L365.123 200.568C365.691 200.691 365.938 200.885 365.938 201.201C365.938 201.617 365.48 201.893 364.818 201.893C364.139 201.893 363.723 201.641 363.594 201.201H361.93C362.047 202.443 363.078 203.141 364.783 203.141C366.477 203.141 367.631 202.297 367.631 201.008C367.631 200.041 367.068 199.514 365.814 199.238L364.602 198.975C364.004 198.84 363.729 198.646 363.729 198.33C363.729 197.92 364.18 197.645 364.789 197.645C365.422 197.645 365.814 197.902 365.902 198.318H367.479C367.385 197.082 366.418 196.396 364.777 196.396C363.166 196.396 362.088 197.211 362.088 198.436Z" fill="#00857A"/>
<circle opacity="0.6" cx="68" cy="199" r="50" fill="url(#paint5_linear)"/>
<path d="M39.7227 203.217C41.7617 203.217 43.25 201.957 43.3965 200.129H41.6738C41.5039 201.061 40.7422 201.658 39.7285 201.658C38.3926 201.658 37.5664 200.551 37.5664 198.77C37.5664 196.988 38.3926 195.887 39.7227 195.887C40.7305 195.887 41.498 196.525 41.668 197.498H43.3906C43.2617 195.658 41.7266 194.328 39.7227 194.328C37.2676 194.328 35.7559 196.021 35.7559 198.77C35.7559 201.523 37.2734 203.217 39.7227 203.217ZM50.7031 196.537H48.998V200.264C48.998 201.125 48.541 201.658 47.6914 201.658C46.9062 201.658 46.502 201.201 46.502 200.311V196.537H44.7969V200.75C44.7969 202.25 45.6641 203.141 47.0586 203.141C48.0371 203.141 48.6406 202.713 48.9453 201.963H49.0508V203H50.7031V196.537ZM52.2676 198.436C52.2676 199.432 52.877 200.029 54.1309 200.305L55.3027 200.568C55.8711 200.691 56.1172 200.885 56.1172 201.201C56.1172 201.617 55.6602 201.893 54.998 201.893C54.3184 201.893 53.9023 201.641 53.7734 201.201H52.1094C52.2266 202.443 53.2578 203.141 54.9629 203.141C56.6562 203.141 57.8105 202.297 57.8105 201.008C57.8105 200.041 57.248 199.514 55.9941 199.238L54.7812 198.975C54.1836 198.84 53.9082 198.646 53.9082 198.33C53.9082 197.92 54.3594 197.645 54.9688 197.645C55.6016 197.645 55.9941 197.902 56.082 198.318H57.6582C57.5645 197.082 56.5977 196.396 54.957 196.396C53.3457 196.396 52.2676 197.211 52.2676 198.436ZM59.6621 195.002V196.602H58.6543V197.943H59.6621V201.254C59.6621 202.514 60.2832 203.023 61.8535 203.023C62.1816 203.023 62.498 202.988 62.709 202.947V201.646C62.5449 201.664 62.4277 201.67 62.2051 201.67C61.625 201.67 61.3672 201.412 61.3672 200.85V197.943H62.709V196.602H61.3672V195.002H59.6621ZM66.9512 203.141C68.9375 203.141 70.1328 201.881 70.1328 199.766C70.1328 197.668 68.9199 196.396 66.9512 196.396C64.9824 196.396 63.7695 197.674 63.7695 199.766C63.7695 201.881 64.9648 203.141 66.9512 203.141ZM66.9512 201.746C66.0371 201.746 65.5215 201.025 65.5215 199.766C65.5215 198.523 66.043 197.791 66.9512 197.791C67.8535 197.791 68.3809 198.523 68.3809 199.766C68.3809 201.02 67.8594 201.746 66.9512 201.746ZM71.5273 203H73.2324V199.109C73.2324 198.389 73.707 197.867 74.375 197.867C75.043 197.867 75.4414 198.26 75.4414 198.945V203H77.082V199.045C77.082 198.359 77.5273 197.867 78.2188 197.867C78.9395 197.867 79.2969 198.248 79.2969 199.016V203H81.002V198.564C81.002 197.234 80.1992 196.396 78.9102 196.396C78.0078 196.396 77.2637 196.871 76.9648 197.592H76.8594C76.6016 196.842 75.9805 196.396 75.0723 196.396C74.2227 196.396 73.5488 196.854 73.2852 197.592H73.1797V196.537H71.5273V203ZM85.4551 197.703C86.252 197.703 86.7676 198.236 86.8027 199.092H84.0488C84.1074 198.254 84.6641 197.703 85.4551 197.703ZM86.8379 201.16C86.6562 201.588 86.1934 201.828 85.5195 201.828C84.6289 201.828 84.0664 201.23 84.043 200.27V200.182H88.4785V199.66C88.4785 197.609 87.3535 196.396 85.4492 196.396C83.5273 196.396 82.3438 197.697 82.3438 199.801C82.3438 201.898 83.5039 203.141 85.4727 203.141C87.0547 203.141 88.168 202.379 88.4258 201.16H86.8379ZM89.8789 203H91.584V199.42C91.584 198.512 92.2227 197.961 93.1543 197.961C93.4297 197.961 93.8281 198.014 93.9629 198.066V196.514C93.8164 196.461 93.5293 196.432 93.2949 196.432C92.4746 196.432 91.8066 196.924 91.6367 197.568H91.5312V196.537H89.8789V203ZM94.8066 198.436C94.8066 199.432 95.416 200.029 96.6699 200.305L97.8418 200.568C98.4102 200.691 98.6562 200.885 98.6562 201.201C98.6562 201.617 98.1992 201.893 97.5371 201.893C96.8574 201.893 96.4414 201.641 96.3125 201.201H94.6484C94.7656 202.443 95.7969 203.141 97.502 203.141C99.1953 203.141 100.35 202.297 100.35 201.008C100.35 200.041 99.7871 199.514 98.5332 199.238L97.3203 198.975C96.7227 198.84 96.4473 198.646 96.4473 198.33C96.4473 197.92 96.8984 197.645 97.5078 197.645C98.1406 197.645 98.5332 197.902 98.6211 198.318H100.197C100.104 197.082 99.1367 196.396 97.4961 196.396C95.8848 196.396 94.8066 197.211 94.8066 198.436Z" fill="#00857A"/>
<circle opacity="0.6" cx="133" cy="85" r="50" fill="url(#paint6_linear)"/>
<path d="M118.287 80.5449H116.518V86.082C116.518 87.957 117.895 89.2168 120.057 89.2168C122.225 89.2168 123.602 87.957 123.602 86.082V80.5449H121.832V85.9004C121.832 86.9668 121.193 87.6465 120.057 87.6465C118.926 87.6465 118.287 86.9668 118.287 85.9004V80.5449ZM125.348 84.4355C125.348 85.4316 125.957 86.0293 127.211 86.3047L128.383 86.5684C128.951 86.6914 129.197 86.8848 129.197 87.2012C129.197 87.6172 128.74 87.8926 128.078 87.8926C127.398 87.8926 126.982 87.6406 126.854 87.2012H125.189C125.307 88.4434 126.338 89.1406 128.043 89.1406C129.736 89.1406 130.891 88.2969 130.891 87.0078C130.891 86.041 130.328 85.5137 129.074 85.2383L127.861 84.9746C127.264 84.8398 126.988 84.6465 126.988 84.3301C126.988 83.9199 127.439 83.6445 128.049 83.6445C128.682 83.6445 129.074 83.9023 129.162 84.3184H130.738C130.645 83.082 129.678 82.3965 128.037 82.3965C126.426 82.3965 125.348 83.2109 125.348 84.4355ZM135.086 83.7031C135.883 83.7031 136.398 84.2363 136.434 85.0918H133.68C133.738 84.2539 134.295 83.7031 135.086 83.7031ZM136.469 87.1602C136.287 87.5879 135.824 87.8281 135.15 87.8281C134.26 87.8281 133.697 87.2305 133.674 86.2695V86.1816H138.109V85.6602C138.109 83.6094 136.984 82.3965 135.08 82.3965C133.158 82.3965 131.975 83.6973 131.975 85.8008C131.975 87.8984 133.135 89.1406 135.104 89.1406C136.686 89.1406 137.799 88.3789 138.057 87.1602H136.469ZM139.51 89H141.215V85.4199C141.215 84.5117 141.854 83.9609 142.785 83.9609C143.061 83.9609 143.459 84.0137 143.594 84.0664V82.5137C143.447 82.4609 143.16 82.4316 142.926 82.4316C142.105 82.4316 141.438 82.9238 141.268 83.5684H141.162V82.5371H139.51V89ZM144.438 84.4355C144.438 85.4316 145.047 86.0293 146.301 86.3047L147.473 86.5684C148.041 86.6914 148.287 86.8848 148.287 87.2012C148.287 87.6172 147.83 87.8926 147.168 87.8926C146.488 87.8926 146.072 87.6406 145.943 87.2012H144.279C144.396 88.4434 145.428 89.1406 147.133 89.1406C148.826 89.1406 149.98 88.2969 149.98 87.0078C149.98 86.041 149.418 85.5137 148.164 85.2383L146.951 84.9746C146.354 84.8398 146.078 84.6465 146.078 84.3301C146.078 83.9199 146.529 83.6445 147.139 83.6445C147.771 83.6445 148.164 83.9023 148.252 84.3184H149.828C149.734 83.082 148.768 82.3965 147.127 82.3965C145.516 82.3965 144.438 83.2109 144.438 84.4355Z" fill="#00857A"/>
<circle opacity="0.6" cx="200" cy="200" r="70" fill="url(#paint7_linear)"/>
<path d="M160.771 201.65C160.836 203.227 162.143 204.217 164.158 204.217C166.279 204.217 167.586 203.174 167.586 201.469C167.586 200.156 166.854 199.424 165.154 199.066L164.135 198.85C163.145 198.639 162.74 198.34 162.74 197.818C162.74 197.174 163.326 196.764 164.211 196.764C165.066 196.764 165.688 197.209 165.77 197.877H167.434C167.381 196.371 166.062 195.328 164.199 195.328C162.248 195.328 160.965 196.377 160.965 197.971C160.965 199.26 161.721 200.062 163.262 200.385L164.363 200.619C165.4 200.842 165.822 201.152 165.822 201.691C165.822 202.33 165.172 202.775 164.252 202.775C163.256 202.775 162.564 202.336 162.482 201.65H160.771ZM169.578 196.002V197.602H168.57V198.943H169.578V202.254C169.578 203.514 170.199 204.023 171.77 204.023C172.098 204.023 172.414 203.988 172.625 203.947V202.646C172.461 202.664 172.344 202.67 172.121 202.67C171.541 202.67 171.283 202.412 171.283 201.85V198.943H172.625V197.602H171.283V196.002H169.578ZM176.381 202.816C175.789 202.816 175.373 202.523 175.373 202.043C175.373 201.58 175.73 201.316 176.463 201.264L177.77 201.182V201.656C177.77 202.312 177.172 202.816 176.381 202.816ZM175.818 204.1C176.656 204.1 177.359 203.748 177.693 203.156H177.799V204H179.451V199.588C179.451 198.205 178.484 197.396 176.773 197.396C175.15 197.396 174.055 198.146 173.943 199.342H175.514C175.654 198.955 176.064 198.744 176.68 198.744C177.383 198.744 177.77 199.049 177.77 199.588V200.115L176.205 200.209C174.6 200.303 173.703 200.982 173.703 202.154C173.703 203.338 174.576 204.1 175.818 204.1ZM182.996 200.062H182.891V195.07H181.186V204H182.891V201.855L183.359 201.375L185.246 204H187.268L184.637 200.309L187.098 197.537H185.158L182.996 200.062ZM190.754 198.703C191.551 198.703 192.066 199.236 192.102 200.092H189.348C189.406 199.254 189.963 198.703 190.754 198.703ZM192.137 202.16C191.955 202.588 191.492 202.828 190.818 202.828C189.928 202.828 189.365 202.23 189.342 201.27V201.182H193.777V200.66C193.777 198.609 192.652 197.396 190.748 197.396C188.826 197.396 187.643 198.697 187.643 200.801C187.643 202.898 188.803 204.141 190.771 204.141C192.354 204.141 193.467 203.379 193.725 202.16H192.137ZM195.236 204H196.941V200.291C196.941 199.453 197.434 198.885 198.289 198.885C199.062 198.885 199.479 199.348 199.479 200.244V204H201.184V199.84C201.184 198.287 200.357 197.414 198.969 197.414C198.02 197.414 197.316 197.859 197.018 198.598H196.912V195.07H195.236V204ZM205.707 204.141C207.693 204.141 208.889 202.881 208.889 200.766C208.889 198.668 207.676 197.396 205.707 197.396C203.738 197.396 202.525 198.674 202.525 200.766C202.525 202.881 203.721 204.141 205.707 204.141ZM205.707 202.746C204.793 202.746 204.277 202.025 204.277 200.766C204.277 199.523 204.799 198.791 205.707 198.791C206.609 198.791 207.137 199.523 207.137 200.766C207.137 202.02 206.615 202.746 205.707 202.746ZM210.342 204H212.047V195.07H210.342V204ZM216.137 204.1C217.033 204.1 217.766 203.684 218.111 202.986H218.217V204H219.869V195.07H218.164V198.568H218.064C217.73 197.854 217.01 197.432 216.137 197.432C214.514 197.432 213.506 198.703 213.506 200.76C213.506 202.822 214.508 204.1 216.137 204.1ZM216.717 198.861C217.625 198.861 218.182 199.594 218.182 200.771C218.182 201.955 217.631 202.676 216.717 202.676C215.803 202.676 215.258 201.961 215.258 200.766C215.258 199.582 215.809 198.861 216.717 198.861ZM224.434 198.703C225.23 198.703 225.746 199.236 225.781 200.092H223.027C223.086 199.254 223.643 198.703 224.434 198.703ZM225.816 202.16C225.635 202.588 225.172 202.828 224.498 202.828C223.607 202.828 223.045 202.23 223.021 201.27V201.182H227.457V200.66C227.457 198.609 226.332 197.396 224.428 197.396C222.506 197.396 221.322 198.697 221.322 200.801C221.322 202.898 222.482 204.141 224.451 204.141C226.033 204.141 227.146 203.379 227.404 202.16H225.816ZM228.857 204H230.562V200.42C230.562 199.512 231.201 198.961 232.133 198.961C232.408 198.961 232.807 199.014 232.941 199.066V197.514C232.795 197.461 232.508 197.432 232.273 197.432C231.453 197.432 230.785 197.924 230.615 198.568H230.51V197.537H228.857V204ZM233.785 199.436C233.785 200.432 234.395 201.029 235.648 201.305L236.82 201.568C237.389 201.691 237.635 201.885 237.635 202.201C237.635 202.617 237.178 202.893 236.516 202.893C235.836 202.893 235.42 202.641 235.291 202.201H233.627C233.744 203.443 234.775 204.141 236.48 204.141C238.174 204.141 239.328 203.297 239.328 202.008C239.328 201.041 238.766 200.514 237.512 200.238L236.299 199.975C235.701 199.84 235.426 199.646 235.426 199.33C235.426 198.92 235.877 198.645 236.486 198.645C237.119 198.645 237.512 198.902 237.6 199.318H239.176C239.082 198.082 238.115 197.396 236.475 197.396C234.863 197.396 233.785 198.211 233.785 199.436Z" fill="#00857A"/>
<defs>
<radialGradient id="paint0_radial" cx="0" cy="0" r="1" gradientUnits="userSpaceOnUse" gradientTransform="translate(200 200) rotate(90) scale(209.596)">
<stop stop-color="#30FAE8" stop-opacity="0"/>
<stop offset="1" stop-color="#4DFFF0" stop-opacity="0.4"/>
</radialGradient>
<linearGradient id="paint1_linear" x1="216" y1="51.0714" x2="271.04" y2="136.905" gradientUnits="userSpaceOnUse">
<stop stop-color="#30FCEB" stop-opacity="0.7"/>
<stop offset="1" stop-color="#39F8E8" stop-opacity="0.3"/>
</linearGradient>
<linearGradient id="paint2_linear" x1="83" y1="281.071" x2="138.04" y2="366.905" gradientUnits="userSpaceOnUse">
<stop stop-color="#30FCEB" stop-opacity="0.7"/>
<stop offset="1" stop-color="#39F8E8" stop-opacity="0.3"/>
</linearGradient>
<linearGradient id="paint3_linear" x1="216" y1="281.071" x2="271.04" y2="366.905" gradientUnits="userSpaceOnUse">
<stop stop-color="#30FCEB" stop-opacity="0.7"/>
<stop offset="1" stop-color="#39F8E8" stop-opacity="0.3"/>
</linearGradient>
<linearGradient id="paint4_linear" x1="282" y1="165.071" x2="337.04" y2="250.905" gradientUnits="userSpaceOnUse">
<stop stop-color="#30FCEB" stop-opacity="0.7"/>
<stop offset="1" stop-color="#39F8E8" stop-opacity="0.3"/>
</linearGradient>
<linearGradient id="paint5_linear" x1="18" y1="165.071" x2="73.0401" y2="250.905" gradientUnits="userSpaceOnUse">
<stop stop-color="#30FCEB" stop-opacity="0.7"/>
<stop offset="1" stop-color="#39F8E8" stop-opacity="0.3"/>
</linearGradient>
<linearGradient id="paint6_linear" x1="83" y1="51.0714" x2="138.04" y2="136.905" gradientUnits="userSpaceOnUse">
<stop stop-color="#30FCEB" stop-opacity="0.7"/>
<stop offset="1" stop-color="#39F8E8" stop-opacity="0.3"/>
</linearGradient>
<linearGradient id="paint7_linear" x1="130" y1="152.5" x2="207.056" y2="272.666" gradientUnits="userSpaceOnUse">
<stop stop-color="#30FCEB" stop-opacity="0.7"/>
<stop offset="1" stop-color="#39F8E8" stop-opacity="0.3"/>
</linearGradient>
</defs>
</svg>
