<svg width="156" height="308" viewBox="0 0 156 308" fill="none" xmlns="http://www.w3.org/2000/svg">
<path d="M156 254.927C156 262.56 121.078 294.732 78 294.732C34.9218 294.732 0 262.56 0 254.927C0 247.294 34.9218 240 78 240C121.078 240 156 247.294 156 254.927Z" fill="#79FFF5"/>
<path d="M0 255.479C0 255.479 3.40476 274.829 78 274.829C152.595 274.829 156 255.479 156 255.479V288.332C156 288.544 155.986 288.744 155.923 288.946C155.162 291.38 147.42 308 78 308C8.57959 308 0.838211 291.38 0.07675 288.946C0.0135643 288.744 0 288.544 0 288.332V255.479Z" fill="url(#paint0_linear)"/>
<path d="M156 206.927C156 214.56 121.078 246.732 78 246.732C34.9218 246.732 0 214.56 0 206.927C0 199.294 34.9218 192 78 192C121.078 192 156 199.294 156 206.927Z" fill="#79FFF5"/>
<path d="M0 207.479C0 207.479 3.40476 226.829 78 226.829C152.595 226.829 156 207.479 156 207.479V240.332C156 240.544 155.986 240.744 155.923 240.946C155.162 243.38 147.42 260 78 260C8.57959 260 0.838211 243.38 0.07675 240.946C0.0135643 240.744 0 240.544 0 240.332V207.479Z" fill="url(#paint1_linear)"/>
<path d="M156 158.927C156 166.56 121.078 198.732 78 198.732C34.9218 198.732 0 166.56 0 158.927C0 151.294 34.9218 144 78 144C121.078 144 156 151.294 156 158.927Z" fill="#79FFF5"/>
<path d="M0 159.479C0 159.479 3.40476 178.829 78 178.829C152.595 178.829 156 159.479 156 159.479V192.332C156 192.544 155.986 192.744 155.923 192.946C155.162 195.38 147.42 212 78 212C8.57959 212 0.838211 195.38 0.07675 192.946C0.0135643 192.744 0 192.544 0 192.332V159.479Z" fill="url(#paint2_linear)"/>
<path d="M156 110.927C156 118.56 121.078 150.732 78 150.732C34.9218 150.732 0 118.56 0 110.927C0 103.294 34.9218 96 78 96C121.078 96 156 103.294 156 110.927Z" fill="#9AE5FF"/>
<path d="M0 111.479C0 111.479 3.40476 130.829 78 130.829C152.595 130.829 156 111.479 156 111.479V144.332C156 144.544 155.986 144.744 155.923 144.946C155.162 147.38 147.42 164 78 164C8.57959 164 0.838211 147.38 0.07675 144.946C0.0135643 144.744 0 144.544 0 144.332V111.479Z" fill="url(#paint3_linear)"/>
<path d="M156 62.9268C156 70.56 121.078 102.732 78 102.732C34.9218 102.732 0 70.56 0 62.9268C0 55.2936 34.9218 48 78 48C121.078 48 156 55.2936 156 62.9268Z" fill="#9AE5FF"/>
<path d="M0 63.4795C0 63.4795 3.40476 82.8291 78 82.8291C152.595 82.8291 156 63.4795 156 63.4795V96.3323C156 96.5439 155.986 96.7443 155.923 96.9462C155.162 99.3799 147.42 116 78 116C8.57959 116 0.838211 99.38 0.07675 96.9462C0.0135643 96.7443 0 96.5439 0 96.3323V63.4795Z" fill="url(#paint4_linear)"/>
<path d="M156 14.9268C156 22.56 121.078 54.7317 78 54.7317C34.9218 54.7317 0 22.56 0 14.9268C0 7.29363 34.9218 0 78 0C121.078 0 156 7.29363 156 14.9268Z" fill="#9AE5FF"/>
<path d="M0 15.4795C0 15.4795 3.40476 34.8291 78 34.8291C152.595 34.8291 156 15.4795 156 15.4795V48.3323C156 48.5439 155.986 48.7443 155.923 48.9462C155.162 51.3799 147.42 67.9998 78 67.9998C8.57959 67.9998 0.838211 51.38 0.07675 48.9462C0.0135643 48.7443 0 48.5439 0 48.3323V15.4795Z" fill="url(#paint5_linear)"/>
<defs>
<linearGradient id="paint0_linear" x1="0.0865583" y1="275.581" x2="156.087" y2="275.581" gradientUnits="userSpaceOnUse">
<stop stop-color="#00A195"/>
<stop offset="1" stop-color="#27EEDE"/>
</linearGradient>
<linearGradient id="paint1_linear" x1="0.0865583" y1="227.581" x2="156.087" y2="227.581" gradientUnits="userSpaceOnUse">
<stop stop-color="#00A195"/>
<stop offset="1" stop-color="#27EEDE"/>
</linearGradient>
<linearGradient id="paint2_linear" x1="0.0865583" y1="179.581" x2="156.087" y2="179.581" gradientUnits="userSpaceOnUse">
<stop stop-color="#00A195"/>
<stop offset="1" stop-color="#27EEDE"/>
</linearGradient>
<linearGradient id="paint3_linear" x1="0.0865583" y1="131.581" x2="156.087" y2="131.581" gradientUnits="userSpaceOnUse">
<stop stop-color="#006598"/>
<stop offset="1" stop-color="#8AD8FF"/>
</linearGradient>
<linearGradient id="paint4_linear" x1="0.0865583" y1="83.5813" x2="156.087" y2="83.5813" gradientUnits="userSpaceOnUse">
<stop stop-color="#006598"/>
<stop offset="1" stop-color="#8AD8FF"/>
</linearGradient>
<linearGradient id="paint5_linear" x1="0.0865583" y1="35.5813" x2="156.087" y2="35.5813" gradientUnits="userSpaceOnUse">
<stop stop-color="#006598"/>
<stop offset="1" stop-color="#8AD8FF"/>
</linearGradient>
</defs>
</svg>
