<svg width="60" height="60" viewBox="0 0 60 60" fill="none" xmlns="http://www.w3.org/2000/svg">
<g clip-path="url(#clip0)">
<path d="M60.1001 55H6.1001V42.4H16.6001V29.8H28.3001V17.9H40.4001V5H60.1001V55Z" fill="url(#paint0_linear)" fill-opacity="0.4"/>
<path d="M28.0002 55H0.700195C0.400195 55 0.200195 54.8 0.200195 54.5C0.200195 54.2 0.400195 54 0.700195 54H28.0002C28.3002 54 28.5002 54.2 28.5002 54.5C28.5002 54.8 28.2002 55 28.0002 55Z" fill="#05ACFF"/>
<path d="M28.0001 42.5H6.1001C5.8001 42.5 5.6001 42.3 5.6001 42C5.6001 41.7 5.8001 41.5 6.1001 41.5H28.0001C28.3001 41.5 28.5001 41.7 28.5001 42C28.5001 42.3 28.2001 42.5 28.0001 42.5Z" fill="#05ACFF"/>
<path d="M28 30.5H17C16.7 30.5 16.5 30.3 16.5 30C16.5 29.7 16.7 29.5 17 29.5H28C28.3 29.5 28.5 29.7 28.5 30C28.5 30.3 28.2 30.5 28 30.5Z" fill="#05ACFF"/>
</g>
<defs>
<linearGradient id="paint0_linear" x1="15.6378" y1="64.5842" x2="67.6378" y2="12.5842" gradientUnits="userSpaceOnUse">
<stop stop-color="#CBF1FF" stop-opacity="0.4"/>
<stop offset="1" stop-color="#05ACFF"/>
</linearGradient>
<clipPath id="clip0">
<rect y="5" width="60" height="50" fill="white"/>
</clipPath>
</defs>
</svg>
