<svg width="60" height="60" viewBox="0 0 60 60" fill="none" xmlns="http://www.w3.org/2000/svg">
<g clip-path="url(#clip0)">
<path d="M34.9998 6.00002L42.0998 20.4L57.8998 22.7C59.3998 22.9 59.9998 24.8 58.8998 25.9L47.4998 37L50.1998 52.8C50.4998 54.3 48.8998 55.5 47.4998 54.8L33.2998 47.3L19.0998 54.8C17.6998 55.5 16.0998 54.4 16.3998 52.8L19.1998 37L7.69984 25.9C6.59984 24.8 7.19984 23 8.69984 22.7L24.4998 20.4L31.6998 6.00002C32.2998 4.70002 34.2998 4.70002 34.9998 6.00002Z" fill="url(#paint0_linear)" fill-opacity="0.5"/>
<path d="M10.8 42L8.13333 38.7368C7.95556 38.5263 7.95556 38.2105 8.13333 38C8.31111 37.7895 8.57778 37.7895 8.75556 38L10.7111 40.5263L15.2444 35.1579C15.4222 34.9474 15.6889 34.9474 15.8667 35.1579C16.0444 35.3684 16.0444 35.6842 15.8667 35.8947L10.8 42Z" fill="#F44336"/>
<path d="M17.2 54.8L12.1 52.3L7 54.8V47.5C7 47.2 7.2 47 7.5 47C7.8 47 8 47.2 8 47.5V53.2L12.1 51.2L16.2 53.2V47.5C16.2 47.2 16.4 47 16.7 47C17 47 17.2 47.2 17.2 47.5V54.8Z" fill="#F44336"/>
<path d="M12.0998 49.1C6.0998 49.1 1.2998 44.3 1.2998 38.3C1.2998 32.3 6.0998 27.5 12.0998 27.5C18.0998 27.5 22.8998 32.3 22.8998 38.3C22.8998 44.2 18.0998 49.1 12.0998 49.1ZM12.0998 28.5C6.6998 28.5 2.2998 32.9 2.2998 38.3C2.2998 43.7 6.6998 48.1 12.0998 48.1C17.4998 48.1 21.8998 43.7 21.8998 38.3C21.8998 32.9 17.4998 28.5 12.0998 28.5Z" fill="#F44336"/>
</g>
<defs>
<linearGradient id="paint0_linear" x1="15.0189" y1="52.4954" x2="51.6346" y2="15.8797" gradientUnits="userSpaceOnUse">
<stop stop-color="#FFD9D6" stop-opacity="0.2"/>
<stop offset="1" stop-color="#F44336"/>
</linearGradient>
<clipPath id="clip0">
<rect y="5" width="60" height="50" fill="white"/>
</clipPath>
</defs>
</svg>