<svg width="60" height="60" viewBox="0 0 60 60" fill="none" xmlns="http://www.w3.org/2000/svg">
<g clip-path="url(#clip0)">
<path fill-rule="evenodd" clip-rule="evenodd" d="M10 5H60V12.9H10V5ZM17.7 41.5V54.5H16.7V13.9H10V55H60V41.5H17.7ZM17.7 13.9H60V27.2H17.7V13.9ZM17.7 28.2H60V40.5H17.7V28.2Z" fill="url(#paint0_linear)" fill-opacity="0.9"/>
<path d="M7.1998 44.0001C4.7998 44.0001 2.7998 42.5001 2.7998 40.6001C2.7998 40.3001 2.9998 40.0001 3.2998 40.0001C3.5998 40.0001 3.7998 40.2001 3.7998 40.5001C3.7998 41.8001 5.2998 42.9001 7.1998 42.9001C9.0998 42.9001 10.5998 41.8001 10.5998 40.5001C10.5998 39.9001 10.5998 38.3001 7.0998 37.8001C5.0998 37.5001 2.7998 36.9001 2.7998 34.1001C2.7998 32.2001 4.7998 30.7001 7.1998 30.7001C9.5998 30.7001 11.5998 32.2001 11.5998 34.1001C11.5998 34.4001 11.3998 34.6001 11.0998 34.6001C10.7998 34.6001 10.5998 34.4001 10.5998 34.1001C10.5998 32.8001 9.0998 31.7001 7.1998 31.7001C5.2998 31.7001 3.7998 32.8001 3.7998 34.1001C3.7998 35.7001 4.7998 36.5001 7.2998 36.8001C10.8998 37.3001 11.5998 39.1001 11.5998 40.5001C11.5998 42.4001 9.5998 44.0001 7.1998 44.0001Z" fill="#7C57C2"/>
<path d="M7.2002 31.6C6.9002 31.6 6.7002 31.4 6.7002 31.1V28.4C6.7002 28.1 6.9002 27.9 7.2002 27.9C7.5002 27.9 7.7002 28.1 7.7002 28.4V31.1C7.7002 31.4 7.4002 31.6 7.2002 31.6Z" fill="#7C57C2"/>
<path d="M7.2002 46.8C6.9002 46.8 6.7002 46.6 6.7002 46.3V43.5C6.7002 43.2 6.9002 43 7.2002 43C7.5002 43 7.7002 43.2 7.7002 43.5V46.3C7.7002 46.6 7.4002 46.8 7.2002 46.8Z" fill="#7C57C2"/>
<path d="M27.7002 35.4C27.5002 35.4 27.4002 35.3 27.3002 35.2L23.6002 29.8L19.9002 35.2C19.7002 35.4 19.4002 35.5 19.2002 35.3C19.0002 35.1 18.9002 34.8 19.1002 34.6L23.2002 28.6C23.4002 28.3 23.8002 28.3 24.0002 28.6L28.1002 34.6C28.3002 34.8 28.2002 35.1 28.0002 35.3C27.9002 35.4 27.8002 35.4 27.7002 35.4Z" fill="#7C57C2"/>
<path d="M2 54.4C1.7 54.4 1.5 54.2 1.5 53.9C1.5 53.6 1.7 53.4 2 53.4C13.6 53.4 23.1 43.9 23.1 32.3V28.9C23.1 28.6 23.3 28.4 23.6 28.4C23.9 28.4 24.1 28.6 24.1 28.9V32.3C24.1 44.5 14.1 54.4 2 54.4Z" fill="#7C57C2"/>
</g>
<defs>
<linearGradient id="paint0_linear" x1="-0.382297" y1="43.4598" x2="50.1177" y2="-5.7902" gradientUnits="userSpaceOnUse">
<stop stop-color="#E3D9F5" stop-opacity="0.1"/>
<stop offset="1" stop-color="#7C57C2" stop-opacity="0.7"/>
</linearGradient>
<clipPath id="clip0">
<rect y="5" width="60" height="50" fill="white"/>
</clipPath>
</defs>
</svg>
