<svg width="284" height="284" viewBox="0 0 284 284" fill="none" xmlns="http://www.w3.org/2000/svg">
<circle opacity="0.6" cx="142" cy="142" r="142" fill="url(#paint0_radial)"/>
<circle cx="86" cy="178" r="50" fill="url(#paint1_linear)" fill-opacity="0.8"/>
<path d="M60.7402 182V173.545H58.9707V182H60.7402ZM62.6211 182H64.3262V178.273C64.3262 177.424 64.8125 176.867 65.6035 176.867C66.4121 176.867 66.793 177.336 66.793 178.227V182H68.498V177.822C68.498 176.275 67.7246 175.396 66.2891 175.396C65.334 175.396 64.6777 175.848 64.3789 176.574H64.2734V175.537H62.6211V182ZM75.8223 175.537H74.0234L72.6992 180.354H72.5938L71.2578 175.537H69.4238L71.668 182H73.5898L75.8223 175.537ZM79.502 176.703C80.2988 176.703 80.8145 177.236 80.8496 178.092H78.0957C78.1543 177.254 78.7109 176.703 79.502 176.703ZM80.8848 180.16C80.7031 180.588 80.2402 180.828 79.5664 180.828C78.6758 180.828 78.1133 180.23 78.0898 179.27V179.182H82.5254V178.66C82.5254 176.609 81.4004 175.396 79.4961 175.396C77.5742 175.396 76.3906 176.697 76.3906 178.801C76.3906 180.898 77.5508 182.141 79.5195 182.141C81.1016 182.141 82.2148 181.379 82.4727 180.16H80.8848ZM83.7793 177.436C83.7793 178.432 84.3887 179.029 85.6426 179.305L86.8145 179.568C87.3828 179.691 87.6289 179.885 87.6289 180.201C87.6289 180.617 87.1719 180.893 86.5098 180.893C85.8301 180.893 85.4141 180.641 85.2852 180.201H83.6211C83.7383 181.443 84.7695 182.141 86.4746 182.141C88.168 182.141 89.3223 181.297 89.3223 180.008C89.3223 179.041 88.7598 178.514 87.5059 178.238L86.293 177.975C85.6953 177.84 85.4199 177.646 85.4199 177.33C85.4199 176.92 85.8711 176.645 86.4805 176.645C87.1133 176.645 87.5059 176.902 87.5938 177.318H89.1699C89.0762 176.082 88.1094 175.396 86.4688 175.396C84.8574 175.396 83.7793 176.211 83.7793 177.436ZM91.1738 174.002V175.602H90.166V176.943H91.1738V180.254C91.1738 181.514 91.7949 182.023 93.3652 182.023C93.6934 182.023 94.0098 181.988 94.2207 181.947V180.646C94.0566 180.664 93.9395 180.67 93.7168 180.67C93.1367 180.67 92.8789 180.412 92.8789 179.85V176.943H94.2207V175.602H92.8789V174.002H91.1738ZM98.4629 182.141C100.449 182.141 101.645 180.881 101.645 178.766C101.645 176.668 100.432 175.396 98.4629 175.396C96.4941 175.396 95.2812 176.674 95.2812 178.766C95.2812 180.881 96.4766 182.141 98.4629 182.141ZM98.4629 180.746C97.5488 180.746 97.0332 180.025 97.0332 178.766C97.0332 177.523 97.5547 176.791 98.4629 176.791C99.3652 176.791 99.8926 177.523 99.8926 178.766C99.8926 180.02 99.3711 180.746 98.4629 180.746ZM103.039 182H104.744V178.42C104.744 177.512 105.383 176.961 106.314 176.961C106.59 176.961 106.988 177.014 107.123 177.066V175.514C106.977 175.461 106.689 175.432 106.455 175.432C105.635 175.432 104.967 175.924 104.797 176.568H104.691V175.537H103.039V182ZM107.967 177.436C107.967 178.432 108.576 179.029 109.83 179.305L111.002 179.568C111.57 179.691 111.816 179.885 111.816 180.201C111.816 180.617 111.359 180.893 110.697 180.893C110.018 180.893 109.602 180.641 109.473 180.201H107.809C107.926 181.443 108.957 182.141 110.662 182.141C112.355 182.141 113.51 181.297 113.51 180.008C113.51 179.041 112.947 178.514 111.693 178.238L110.48 177.975C109.883 177.84 109.607 177.646 109.607 177.33C109.607 176.92 110.059 176.645 110.668 176.645C111.301 176.645 111.693 176.902 111.781 177.318H113.357C113.264 176.082 112.297 175.396 110.656 175.396C109.045 175.396 107.967 176.211 107.967 177.436Z" fill="#AA1308"/>
<circle cx="142" cy="78" r="50" fill="url(#paint2_linear)" fill-opacity="0.8"/>
<path d="M116.488 82V78.707H119.928V77.2598H116.488V75.0566H120.256V73.5449H114.719V82H116.488ZM124.586 82.1406C126.572 82.1406 127.768 80.8809 127.768 78.7656C127.768 76.668 126.555 75.3965 124.586 75.3965C122.617 75.3965 121.404 76.6738 121.404 78.7656C121.404 80.8809 122.6 82.1406 124.586 82.1406ZM124.586 80.7461C123.672 80.7461 123.156 80.0254 123.156 78.7656C123.156 77.5234 123.678 76.791 124.586 76.791C125.488 76.791 126.016 77.5234 126.016 78.7656C126.016 80.0195 125.494 80.7461 124.586 80.7461ZM135.01 75.5371H133.305V79.2637C133.305 80.125 132.848 80.6582 131.998 80.6582C131.213 80.6582 130.809 80.2012 130.809 79.3105V75.5371H129.104V79.75C129.104 81.25 129.971 82.1406 131.365 82.1406C132.344 82.1406 132.947 81.7129 133.252 80.9629H133.357V82H135.01V75.5371ZM136.721 82H138.426V78.2734C138.426 77.4238 138.912 76.8672 139.703 76.8672C140.512 76.8672 140.893 77.3359 140.893 78.2266V82H142.598V77.8223C142.598 76.2754 141.824 75.3965 140.389 75.3965C139.434 75.3965 138.777 75.8477 138.479 76.5742H138.373V75.5371H136.721V82ZM146.57 82.0996C147.467 82.0996 148.199 81.6836 148.545 80.9863H148.65V82H150.303V73.0703H148.598V76.5684H148.498C148.164 75.8535 147.443 75.4316 146.57 75.4316C144.947 75.4316 143.939 76.7031 143.939 78.7598C143.939 80.8223 144.941 82.0996 146.57 82.0996ZM147.15 76.8613C148.059 76.8613 148.615 77.5938 148.615 78.7715C148.615 79.9551 148.064 80.6758 147.15 80.6758C146.236 80.6758 145.691 79.9609 145.691 78.7656C145.691 77.582 146.242 76.8613 147.15 76.8613ZM154.867 76.7031C155.664 76.7031 156.18 77.2363 156.215 78.0918H153.461C153.52 77.2539 154.076 76.7031 154.867 76.7031ZM156.25 80.1602C156.068 80.5879 155.605 80.8281 154.932 80.8281C154.041 80.8281 153.479 80.2305 153.455 79.2695V79.1816H157.891V78.6602C157.891 76.6094 156.766 75.3965 154.861 75.3965C152.939 75.3965 151.756 76.6973 151.756 78.8008C151.756 80.8984 152.916 82.1406 154.885 82.1406C156.467 82.1406 157.58 81.3789 157.838 80.1602H156.25ZM159.291 82H160.996V78.4199C160.996 77.5117 161.635 76.9609 162.566 76.9609C162.842 76.9609 163.24 77.0137 163.375 77.0664V75.5137C163.229 75.4609 162.941 75.4316 162.707 75.4316C161.887 75.4316 161.219 75.9238 161.049 76.5684H160.943V75.5371H159.291V82ZM164.219 77.4355C164.219 78.4316 164.828 79.0293 166.082 79.3047L167.254 79.5684C167.822 79.6914 168.068 79.8848 168.068 80.2012C168.068 80.6172 167.611 80.8926 166.949 80.8926C166.27 80.8926 165.854 80.6406 165.725 80.2012H164.061C164.178 81.4434 165.209 82.1406 166.914 82.1406C168.607 82.1406 169.762 81.2969 169.762 80.0078C169.762 79.041 169.199 78.5137 167.945 78.2383L166.732 77.9746C166.135 77.8398 165.859 77.6465 165.859 77.3301C165.859 76.9199 166.311 76.6445 166.92 76.6445C167.553 76.6445 167.945 76.9023 168.033 77.3184H169.609C169.516 76.082 168.549 75.3965 166.908 75.3965C165.297 75.3965 164.219 76.2109 164.219 77.4355Z" fill="#AA1308"/>
<circle cx="198" cy="178" r="50" fill="url(#paint3_linear)" fill-opacity="0.8"/>
<path d="M172.025 180.488H168.193V178.432H171.809V177.031H168.193V175.057H172.025V173.545H166.424V182H172.025V180.488ZM173.719 182H175.424V178.109C175.424 177.389 175.898 176.867 176.566 176.867C177.234 176.867 177.633 177.26 177.633 177.945V182H179.273V178.045C179.273 177.359 179.719 176.867 180.41 176.867C181.131 176.867 181.488 177.248 181.488 178.016V182H183.193V177.564C183.193 176.234 182.391 175.396 181.102 175.396C180.199 175.396 179.455 175.871 179.156 176.592H179.051C178.793 175.842 178.172 175.396 177.264 175.396C176.414 175.396 175.74 175.854 175.477 176.592H175.371V175.537H173.719V182ZM188.584 175.432C187.693 175.432 186.961 175.871 186.609 176.598H186.504V175.537H184.852V184.145H186.557V181.01H186.662C186.979 181.695 187.688 182.1 188.613 182.1C190.23 182.1 191.221 180.852 191.221 178.766C191.221 176.674 190.219 175.432 188.584 175.432ZM188.004 180.676C187.102 180.676 186.539 179.955 186.539 178.771C186.539 177.588 187.102 176.861 188.01 176.861C188.918 176.861 189.469 177.582 189.469 178.766C189.469 179.961 188.924 180.676 188.004 180.676ZM192.668 182H194.373V173.07H192.668V182ZM199.014 182.141C201 182.141 202.195 180.881 202.195 178.766C202.195 176.668 200.982 175.396 199.014 175.396C197.045 175.396 195.832 176.674 195.832 178.766C195.832 180.881 197.027 182.141 199.014 182.141ZM199.014 180.746C198.1 180.746 197.584 180.025 197.584 178.766C197.584 177.523 198.105 176.791 199.014 176.791C199.916 176.791 200.443 177.523 200.443 178.766C200.443 180.02 199.922 180.746 199.014 180.746ZM204.123 184.35C205.734 184.35 206.525 183.764 207.076 182.1L209.303 175.537H207.498L206.139 180.436H206.033L204.674 175.537H202.793L205.061 182.041L205.002 182.275C204.861 182.768 204.498 182.973 203.859 182.973C203.789 182.973 203.531 182.973 203.473 182.961V184.332C203.543 184.344 204.059 184.35 204.123 184.35ZM213.018 176.703C213.814 176.703 214.33 177.236 214.365 178.092H211.611C211.67 177.254 212.227 176.703 213.018 176.703ZM214.4 180.16C214.219 180.588 213.756 180.828 213.082 180.828C212.191 180.828 211.629 180.23 211.605 179.27V179.182H216.041V178.66C216.041 176.609 214.916 175.396 213.012 175.396C211.09 175.396 209.906 176.697 209.906 178.801C209.906 180.898 211.066 182.141 213.035 182.141C214.617 182.141 215.73 181.379 215.988 180.16H214.4ZM220.236 176.703C221.033 176.703 221.549 177.236 221.584 178.092H218.83C218.889 177.254 219.445 176.703 220.236 176.703ZM221.619 180.16C221.438 180.588 220.975 180.828 220.301 180.828C219.41 180.828 218.848 180.23 218.824 179.27V179.182H223.26V178.66C223.26 176.609 222.135 175.396 220.23 175.396C218.309 175.396 217.125 176.697 217.125 178.801C217.125 180.898 218.285 182.141 220.254 182.141C221.836 182.141 222.949 181.379 223.207 180.16H221.619ZM224.514 177.436C224.514 178.432 225.123 179.029 226.377 179.305L227.549 179.568C228.117 179.691 228.363 179.885 228.363 180.201C228.363 180.617 227.906 180.893 227.244 180.893C226.564 180.893 226.148 180.641 226.02 180.201H224.355C224.473 181.443 225.504 182.141 227.209 182.141C228.902 182.141 230.057 181.297 230.057 180.008C230.057 179.041 229.494 178.514 228.24 178.238L227.027 177.975C226.43 177.84 226.154 177.646 226.154 177.33C226.154 176.92 226.605 176.645 227.215 176.645C227.848 176.645 228.24 176.902 228.328 177.318H229.904C229.811 176.082 228.844 175.396 227.203 175.396C225.592 175.396 224.514 176.211 224.514 177.436Z" fill="#AA1308"/>
<defs>
<radialGradient id="paint0_radial" cx="0" cy="0" r="1" gradientUnits="userSpaceOnUse" gradientTransform="translate(142 142) rotate(90) scale(142)">
<stop stop-color="#FFBBA3" stop-opacity="0"/>
<stop offset="1" stop-color="#FF8E66" stop-opacity="0.2"/>
</radialGradient>
<linearGradient id="paint1_linear" x1="48.5" y1="142.732" x2="136" y2="208.804" gradientUnits="userSpaceOnUse">
<stop stop-color="#FF5722" stop-opacity="0.5"/>
<stop offset="1" stop-color="#FF5722" stop-opacity="0.2"/>
</linearGradient>
<linearGradient id="paint2_linear" x1="104.5" y1="42.7321" x2="192" y2="108.804" gradientUnits="userSpaceOnUse">
<stop stop-color="#FF5722" stop-opacity="0.5"/>
<stop offset="1" stop-color="#FF5722" stop-opacity="0.2"/>
</linearGradient>
<linearGradient id="paint3_linear" x1="160.5" y1="142.732" x2="248" y2="208.804" gradientUnits="userSpaceOnUse">
<stop stop-color="#FF5722" stop-opacity="0.5"/>
<stop offset="1" stop-color="#FF5722" stop-opacity="0.2"/>
</linearGradient>
</defs>
</svg>